{
.appVersion = "1230";
DisplayStrings = (
"/het-hb/het-hb/het-hb/het-hb/het-hb/Placeholder/het-hb/het-hb/het-hb/het-hb/het-hb/het-hb/het-hb/Placeholder/het-hb/het-hb/het-hb/het-hb/het-hb/het-hb/het-hb/Placeholder/het-hb/het-hb/het-hb/het-hb/het-hb/het-hb/het-hb \012/vav-hb/vav-hb/vav-hb/vav-hb/vav-hb/vav-hb/vav-hb/vav-hb/Placeholder/vav-hb/vav-hb/vav-hb/vav-hb/vav-hb/vav-hb/vav-hb/Placeholder/Placeholder/Placeholder/vav-hb/vav-hb/vav-hb/vav-hb/Placeholder/vav-hb/vav-hb/vav-hb/vav-hb/vav-hb/vav-hb/vav-hb/vav-hb/vav-hb/vav-hb/Placeholder/vav-hb/vav-hb/vav-hb/vav-hb/vav-hb/vav-hb/vav-hb/vav-hb \012/het-hb/vav-hb/het-hb/vav-hb/het-hb/Placeholder/vav-hb/het-hb/vav-hb/het-hb/vav-hb/het-hb/vav-hb/het-hb/vav-hb/Placeholder/het-hb/vav-hb/het-hb/vav-hb/het-hb/vav-hb/het-hb/vav-hb/het-hb/Placeholder/vav-hb/het-hb/vav-hb/het-hb/vav-hb/het-hb/vav-hb/Placeholder/het-hb/vav-hb/het-hb/vav-hb \012/alef-hb/alef-hb/bet-hb/bet-hb/gimel-hb/gimel-hb/dalet-hb/dalet-hb/he-hb/he-hb/vav-hb/vav-hb/zayin-hb/zayin-hb/het-hb/het-hb/tet-hb/tet-hb/yod-hb/yod-hb/kaf-hb/kaf-hb/lamed-hb/lamed-hb/mem-hb/mem-hb/nun-hb/nun-hb/samekh-hb/samekh-hb/ayin-hb/ayin-hb/pe-hb/pe-hb/tsadi-hb/tsadi-hb/qof-hb/qof-hb/resh-hb/dalet-hb/resh-hb/shin-hb/shin-hb/tav-hb/tav-hb \012/finalkaf-hb/finalkaf-hb/finalnun-hb/finalnun-hb/finalmem-hb/finalmem-hb/finaltsadi-hb/finaltsadi-hb/finalpe-hb/finalpe-hb \012..",
"/alef-hb/het-hb/vav-hb/vav-hb/he-hb  /bet-hb/vav-hb/het-hb/yod-hb/he-hb  /dalet-hb/yod-hb/vav-hb/vav-hb/het-hb",

glyphs = (
{
glyphname = e;
lastChange = "2018-10-09 14:16:28 +0000";
layers = (
{
layerId = "D0BE0C1E-19E7-43D2-9BC3-AB141F408D31";
paths = (
{
closed = 1;
nodes = (
"331 0 OFFCURVE",
"413 28 OFFCURVE",
"454 111 CURVE",
"426 135 LINE",
"379 89 OFFCURVE",
"325 82 OFFCURVE",
"290 82 CURVE SMOOTH",
"195 82 OFFCURVE",
"135 144 OFFCURVE",
"132 259 CURVE SMOOTH",
"128 391 OFFCURVE",
"178 426 OFFCURVE",
"245 426 CURVE SMOOTH",
"328 426 OFFCURVE",
"370 374 OFFCURVE",
"370 304 CURVE SMOOTH",
"370 297 OFFCURVE",
"370 294 OFFCURVE",
"368 289 CURVE",
"393 312 LINE",
"91 312 LINE",
"93 258 LINE",
"460 258 LINE",
"463 266 OFFCURVE",
"465 298 OFFCURVE",
"465 315 CURVE SMOOTH",
"465 445 OFFCURVE",
"377 499 OFFCURVE",
"273 499 CURVE SMOOTH",
"159 499 OFFCURVE",
"35 386 OFFCURVE",
"35 231 CURVE SMOOTH",
"35 99 OFFCURVE",
"110 0 OFFCURVE",
"256 0 CURVE SMOOTH"
);
}
);
width = 500;
},
{
layerId = "AFDF4EF8-A213-4348-ACF7-371209F0497C";
paths = (
{
closed = 1;
nodes = (
"365 -15 OFFCURVE",
"465 74 OFFCURVE",
"480 201 CURVE",
"449 216 LINE",
"415 173 OFFCURVE",
"361 158 OFFCURVE",
"327 158 CURVE SMOOTH",
"245 158 OFFCURVE",
"220 189 OFFCURVE",
"220 336 CURVE SMOOTH",
"220 403 OFFCURVE",
"230 452 OFFCURVE",
"256 452 CURVE SMOOTH",
"280 452 OFFCURVE",
"287 405 OFFCURVE",
"287 327 CURVE SMOOTH",
"287 315 OFFCURVE",
"287 306 OFFCURVE",
"282 297 CURVE",
"314 318 LINE",
"72 318 LINE",
"74 265 LINE",
"481 265 LINE",
"484 290 OFFCURVE",
"484 323 OFFCURVE",
"484 336 CURVE SMOOTH",
"484 458 OFFCURVE",
"401 514 OFFCURVE",
"290 514 CURVE SMOOTH",
"145 514 OFFCURVE",
"13 395 OFFCURVE",
"13 226 CURVE SMOOTH",
"13 71 OFFCURVE",
"115 -15 OFFCURVE",
"244 -15 CURVE SMOOTH"
);
}
);
width = 500;
},
{
layerId = "A396904D-C838-4FF7-A96F-91F438939708";
paths = (
{
closed = 1;
nodes = (
"344 -8 OFFCURVE",
"418 15 OFFCURVE",
"464 62 CURVE",
"464 190 LINE",
"420 161 OFFCURVE",
"362 150 OFFCURVE",
"312 150 CURVE SMOOTH",
"220 150 OFFCURVE",
"208 173 OFFCURVE",
"208 284 CURVE SMOOTH",
"208 369 OFFCURVE",
"226 387 OFFCURVE",
"254 387 CURVE SMOOTH",
"286 387 OFFCURVE",
"297 354 OFFCURVE",
"297 316 CURVE SMOOTH",
"297 306 OFFCURVE",
"297 297 OFFCURVE",
"292 291 CURVE",
"324 315 LINE",
"72 315 LINE",
"74 218 LINE",
"478 218 LINE",
"483 248 OFFCURVE",
"484 294 OFFCURVE",
"484 309 CURVE SMOOTH",
"484 445 OFFCURVE",
"401 514 OFFCURVE",
"285 514 CURVE SMOOTH",
"139 514 OFFCURVE",
"13 405 OFFCURVE",
"13 228 CURVE SMOOTH",
"13 76 OFFCURVE",
"105 -8 OFFCURVE",
"262 -8 CURVE SMOOTH"
);
}
);
width = 500;
},
{
layerId = "5539344D-F27C-4FBD-A9E2-D2F022F19CCA";
paths = (
{
closed = 1;
nodes = (
"330 0 OFFCURVE",
"410 23 OFFCURVE",
"450 70 CURVE",
"450 139 LINE",
"390 86 OFFCURVE",
"331 77 OFFCURVE",
"286 77 CURVE SMOOTH",
"179 77 OFFCURVE",
"131 131 OFFCURVE",
"127 253 CURVE SMOOTH",
"124 369 OFFCURVE",
"177 429 OFFCURVE",
"253 429 CURVE SMOOTH",
"330 429 OFFCURVE",
"376 380 OFFCURVE",
"376 307 CURVE SMOOTH",
"376 297 OFFCURVE",
"376 294 OFFCURVE",
"374 289 CURVE",
"423 312 LINE",
"91 312 LINE",
"93 252 LINE",
"460 252 LINE",
"464 270 OFFCURVE",
"465 293 OFFCURVE",
"465 311 CURVE SMOOTH",
"465 434 OFFCURVE",
"377 500 OFFCURVE",
"273 500 CURVE SMOOTH",
"149 500 OFFCURVE",
"35 396 OFFCURVE",
"35 231 CURVE SMOOTH",
"35 99 OFFCURVE",
"110 0 OFFCURVE",
"264 0 CURVE SMOOTH"
);
}
);
width = 500;
},
{
layerId = "798D7B20-9AF4-495F-9307-CAE61518AA1C";
paths = (
{
closed = 1;
nodes = (
"362 0 OFFCURVE",
"434 42 OFFCURVE",
"461 114 CURVE",
"406 144 LINE",
"385 94 OFFCURVE",
"337 70 OFFCURVE",
"271 70 CURVE SMOOTH",
"180 70 OFFCURVE",
"126 125 OFFCURVE",
"123 250 CURVE SMOOTH",
"120 366 OFFCURVE",
"180 435 OFFCURVE",
"271 435 CURVE SMOOTH",
"346 435 OFFCURVE",
"383 383 OFFCURVE",
"383 290 CURVE SMOOTH",
"383 288 OFFCURVE",
"383 284 OFFCURVE",
"383 279 CURVE",
"411 308 LINE",
"92 308 LINE",
"92 243 LINE",
"473 243 LINE",
"473 259 OFFCURVE",
"473 273 OFFCURVE",
"473 290 CURVE SMOOTH",
"473 412 OFFCURVE",
"400 505 OFFCURVE",
"271 505 CURVE SMOOTH",
"132 505 OFFCURVE",
"33 397 OFFCURVE",
"33 250 CURVE SMOOTH",
"33 93 OFFCURVE",
"132 0 OFFCURVE",
"271 0 CURVE SMOOTH"
);
}
);
width = 500;
},
{
layerId = "C42C1682-C410-46D1-BF5A-F68DB0880154";
paths = (
{
closed = 1;
nodes = (
"337 0 OFFCURVE",
"443 39 OFFCURVE",
"472 135 CURVE",
"442 148 LINE",
"408 68 OFFCURVE",
"335 40 OFFCURVE",
"270 40 CURVE SMOOTH",
"174 40 OFFCURVE",
"131 108 OFFCURVE",
"128 250 CURVE SMOOTH",
"125 381 OFFCURVE",
"174 460 OFFCURVE",
"260 460 CURVE SMOOTH",
"340 460 OFFCURVE",
"378 395 OFFCURVE",
"378 289 CURVE SMOOTH",
"378 287 OFFCURVE",
"378 284 OFFCURVE",
"378 280 CURVE",
"397 293 LINE",
"92 293 LINE",
"92 255 LINE",
"473 255 LINE",
"473 259 OFFCURVE",
"473 273 OFFCURVE",
"473 289 CURVE SMOOTH",
"473 412 OFFCURVE",
"394 500 OFFCURVE",
"260 500 CURVE SMOOTH",
"126 500 OFFCURVE",
"33 397 OFFCURVE",
"33 250 CURVE SMOOTH",
"33 93 OFFCURVE",
"126 0 OFFCURVE",
"270 0 CURVE SMOOTH"
);
}
);
width = 500;
},
{
layerId = "E84AB450-BED0-484C-851E-2EB7B7ED9E73";
paths = (
{
closed = 1;
nodes = (
"348 -7 OFFCURVE",
"451 35 OFFCURVE",
"480 142 CURVE",
"446 156 LINE",
"411 61 OFFCURVE",
"335 33 OFFCURVE",
"296 33 CURVE SMOOTH",
"243 33 OFFCURVE",
"219 59 OFFCURVE",
"218 250 CURVE SMOOTH",
"217 449 OFFCURVE",
"233 467 OFFCURVE",
"260 467 CURVE SMOOTH",
"279 467 OFFCURVE",
"298 446 OFFCURVE",
"298 282 CURVE SMOOTH",
"298 280 OFFCURVE",
"298 277 OFFCURVE",
"298 273 CURVE",
"315 288 LINE",
"87 288 LINE",
"87 248 LINE",
"483 248 LINE",
"483 251 OFFCURVE",
"483 262 OFFCURVE",
"483 282 CURVE SMOOTH",
"483 426 OFFCURVE",
"414 505 OFFCURVE",
"260 505 CURVE SMOOTH",
"116 505 OFFCURVE",
"18 422 OFFCURVE",
"18 250 CURVE SMOOTH",
"18 56 OFFCURVE",
"117 -7 OFFCURVE",
"276 -7 CURVE SMOOTH"
);
}
);
width = 500;
},
{
layerId = "FB8990CA-0F96-4B7B-86A4-9D429D534475";
paths = (
{
closed = 1;
nodes = (
"372 -8 OFFCURVE",
"464 62 OFFCURVE",
"483 164 CURVE",
"347 185 LINE",
"330 143 OFFCURVE",
"296 127 OFFCURVE",
"268 127 CURVE SMOOTH",
"225 127 OFFCURVE",
"188 153 OFFCURVE",
"188 257 CURVE SMOOTH",
"188 362 OFFCURVE",
"216 383 OFFCURVE",
"248 383 CURVE SMOOTH",
"280 383 OFFCURVE",
"308 362 OFFCURVE",
"308 297 CURVE SMOOTH",
"308 291 OFFCURVE",
"308 286 OFFCURVE",
"308 282 CURVE",
"324 311 LINE",
"67 311 LINE",
"69 215 LINE",
"486 215 LINE",
"486 239 OFFCURVE",
"486 258 OFFCURVE",
"486 270 CURVE SMOOTH",
"486 403 OFFCURVE",
"393 514 OFFCURVE",
"253 514 CURVE SMOOTH",
"113 514 OFFCURVE",
"8 403 OFFCURVE",
"8 257 CURVE SMOOTH",
"8 100 OFFCURVE",
"106 -8 OFFCURVE",
"253 -8 CURVE SMOOTH"
);
}
);
width = 500;
}
);
unicode = 0065;
},
{
color = 4;
glyphname = "alef-hb";
lastChange = "2019-06-11 07:29:36 +0000";
layers = (
{
layerId = "D0BE0C1E-19E7-43D2-9BC3-AB141F408D31";
paths = (
{
closed = 1;
nodes = (
"471 -6 LINE",
"479 14 OFFCURVE",
"489 62 OFFCURVE",
"490 90 CURVE",
"330 228 OFFCURVE",
"228 345 OFFCURVE",
"93 511 CURVE",
"70 511 LINE",
"63 493 OFFCURVE",
"53 436 OFFCURVE",
"51 414 CURVE",
"191 263 OFFCURVE",
"297 139 OFFCURVE",
"450 -6 CURVE"
);
},
{
closed = 1;
nodes = (
"153 0 LINE",
"157 21 OFFCURVE",
"170 71 OFFCURVE",
"170 99 CURVE",
"153 130 OFFCURVE",
"138 168 OFFCURVE",
"138 203 CURVE SMOOTH",
"138 244 OFFCURVE",
"146 278 OFFCURVE",
"178 310 CURVE",
"146 338 LINE",
"116 302 OFFCURVE",
"98 269 OFFCURVE",
"88 233 CURVE SMOOTH",
"80 209 OFFCURVE",
"76 180 OFFCURVE",
"76 155 CURVE SMOOTH",
"76 131 OFFCURVE",
"78 110 OFFCURVE",
"80 98 CURVE",
"52 0 LINE"
);
},
{
closed = 1;
nodes = (
"418 195 OFFCURVE",
"433 227 OFFCURVE",
"446 257 CURVE SMOOTH",
"474 321 OFFCURVE",
"480 362 OFFCURVE",
"480 401 CURVE SMOOTH",
"480 448 OFFCURVE",
"466 465 OFFCURVE",
"420 488 CURVE SMOOTH",
"392 502 OFFCURVE",
"377 509 OFFCURVE",
"365 514 CURVE",
"341 514 LINE",
"328 485 OFFCURVE",
"321 450 OFFCURVE",
"312 418 CURVE",
"328 410 OFFCURVE",
"350 402 OFFCURVE",
"375 388 CURVE SMOOTH",
"412 367 OFFCURVE",
"421 355 OFFCURVE",
"403 287 CURVE SMOOTH",
"397 265 OFFCURVE",
"386 226 OFFCURVE",
"352 169 CURVE",
"394 155 LINE"
);
}
);
width = 556;
},
{
layerId = "AFDF4EF8-A213-4348-ACF7-371209F0497C";
paths = (
{
closed = 1;
nodes = (
"477 -6 LINE",
"486 26 OFFCURVE",
"501 107 OFFCURVE",
"502 152 CURVE",
"333 266 OFFCURVE",
"226 367 OFFCURVE",
"103 511 CURVE",
"75 511 LINE",
"65 481 OFFCURVE",
"47 389 OFFCURVE",
"44 349 CURVE",
"177 217 OFFCURVE",
"292 110 OFFCURVE",
"456 -6 CURVE"
);
},
{
closed = 1;
nodes = (
"190 0 LINE",
"194 42 OFFCURVE",
"198 68 OFFCURVE",
"199 110 CURVE",
"177 141 OFFCURVE",
"152 169 OFFCURVE",
"145 200 CURVE SMOOTH",
"140 221 OFFCURVE",
"142 243 OFFCURVE",
"154 269 CURVE",
"109 299 LINE",
"96 285 OFFCURVE",
"82 258 OFFCURVE",
"70 224 CURVE SMOOTH",
"61 198 OFFCURVE",
"54 171 OFFCURVE",
"54 136 CURVE SMOOTH",
"54 116 OFFCURVE",
"58 101 OFFCURVE",
"60 84 CURVE",
"38 -3 LINE"
);
},
{
closed = 1;
nodes = (
"436 228 OFFCURVE",
"449 263 OFFCURVE",
"460 296 CURVE SMOOTH",
"471 328 OFFCURVE",
"481 371 OFFCURVE",
"481 408 CURVE SMOOTH",
"481 453 OFFCURVE",
"473 473 OFFCURVE",
"420 496 CURVE SMOOTH",
"379 514 OFFCURVE",
"354 518 OFFCURVE",
"349 519 CURVE",
"324 519 LINE",
"311 484 OFFCURVE",
"300 424 OFFCURVE",
"298 377 CURVE",
"317 370 OFFCURVE",
"325 368 OFFCURVE",
"341 361 CURVE SMOOTH",
"382 343 OFFCURVE",
"394 330 OFFCURVE",
"380 278 CURVE SMOOTH",
"373 252 OFFCURVE",
"367 237 OFFCURVE",
"360 218 CURVE",
"411 188 LINE"
);
}
);
width = 541;
},
{
layerId = "A396904D-C838-4FF7-A96F-91F438939708";
paths = (
{
closed = 1;
nodes = (
"485 -8 LINE",
"494 27 OFFCURVE",
"509 104 OFFCURVE",
"510 143 CURVE",
"351 263 OFFCURVE",
"235 386 OFFCURVE",
"112 514 CURVE",
"84 514 LINE",
"74 487 OFFCURVE",
"57 403 OFFCURVE",
"54 362 CURVE",
"186 231 OFFCURVE",
"300 113 OFFCURVE",
"464 -8 CURVE"
);
},
{
closed = 1;
nodes = (
"190 0 LINE",
"196 32 OFFCURVE",
"208 99 OFFCURVE",
"209 129 CURVE",
"180 167 OFFCURVE",
"173 187 OFFCURVE",
"170 208 CURVE SMOOTH",
"167 227 OFFCURVE",
"168 243 OFFCURVE",
"169 258 CURVE",
"112 314 LINE",
"103 293 OFFCURVE",
"95 275 OFFCURVE",
"85 245 CURVE SMOOTH",
"76 218 OFFCURVE",
"70 182 OFFCURVE",
"70 152 CURVE SMOOTH",
"70 140 OFFCURVE",
"71 129 OFFCURVE",
"71 117 CURVE",
"48 0 LINE"
);
},
{
closed = 1;
nodes = (
"454 217 OFFCURVE",
"467 259 OFFCURVE",
"476 292 CURVE SMOOTH",
"485 326 OFFCURVE",
"493 369 OFFCURVE",
"493 406 CURVE SMOOTH",
"493 459 OFFCURVE",
"481 473 OFFCURVE",
"428 496 CURVE SMOOTH",
"387 514 OFFCURVE",
"362 518 OFFCURVE",
"357 519 CURVE",
"332 519 LINE",
"319 484 OFFCURVE",
"305 416 OFFCURVE",
"303 369 CURVE",
"322 362 OFFCURVE",
"329 359 OFFCURVE",
"346 353 CURVE SMOOTH",
"380 341 OFFCURVE",
"386 325 OFFCURVE",
"375 281 CURVE SMOOTH",
"367 248 OFFCURVE",
"365 222 OFFCURVE",
"360 195 CURVE",
"439 178 LINE"
);
}
);
width = 551;
},
{
layerId = "5539344D-F27C-4FBD-A9E2-D2F022F19CCA";
paths = (
{
closed = 1;
nodes = (
"471 -6 LINE",
"479 14 OFFCURVE",
"486 63 OFFCURVE",
"487 91 CURVE",
"317 237 OFFCURVE",
"214 353 OFFCURVE",
"91 511 CURVE",
"68 511 LINE",
"61 493 OFFCURVE",
"51 437 OFFCURVE",
"49 414 CURVE",
"179 272 OFFCURVE",
"287 148 OFFCURVE",
"450 -6 CURVE"
);
},
{
closed = 1;
nodes = (
"162 0 LINE",
"168 29 OFFCURVE",
"176 71 OFFCURVE",
"180 99 CURVE",
"153 158 OFFCURVE",
"141 187 OFFCURVE",
"141 235 CURVE SMOOTH",
"141 259 OFFCURVE",
"144 276 OFFCURVE",
"169 311 CURVE",
"137 344 LINE",
"106 306 OFFCURVE",
"87 266 OFFCURVE",
"79 235 CURVE SMOOTH",
"70 201 OFFCURVE",
"71 171 OFFCURVE",
"71 160 CURVE SMOOTH",
"71 143 OFFCURVE",
"72 126 OFFCURVE",
"75 103 CURVE",
"49 0 LINE"
);
},
{
closed = 1;
nodes = (
"409 180 OFFCURVE",
"424 214 OFFCURVE",
"439 253 CURVE SMOOTH",
"462 312 OFFCURVE",
"474 347 OFFCURVE",
"474 396 CURVE SMOOTH",
"474 433 OFFCURVE",
"446 461 OFFCURVE",
"392 487 CURVE SMOOTH",
"373 496 OFFCURVE",
"359 506 OFFCURVE",
"346 512 CURVE",
"322 512 LINE",
"311 485 OFFCURVE",
"302 449 OFFCURVE",
"294 419 CURVE",
"311 409 OFFCURVE",
"345 389 OFFCURVE",
"365 378 CURVE SMOOTH",
"398 360 OFFCURVE",
"402 337 OFFCURVE",
"384 288 CURVE SMOOTH",
"369 248 OFFCURVE",
"361 225 OFFCURVE",
"341 180 CURVE",
"394 154 LINE"
);
}
);
width = 543;
},
{
layerId = "798D7B20-9AF4-495F-9307-CAE61518AA1C";
paths = (
{
closed = 1;
nodes = (
"473 0 LINE",
"473 3 OFFCURVE",
"473 7 OFFCURVE",
"473 10 CURVE",
"354 166 OFFCURVE",
"234 321 OFFCURVE",
"115 477 CURVE",
"30 477 LINE",
"30 474 OFFCURVE",
"30 470 OFFCURVE",
"30 467 CURVE",
"149 311 OFFCURVE",
"269 156 OFFCURVE",
"388 0 CURVE"
);
},
{
closed = 1;
nodes = (
"131 0 LINE",
"131 20 OFFCURVE",
"131 50 OFFCURVE",
"131 69 CURVE",
"130 122 OFFCURVE",
"130 161 OFFCURVE",
"139 197 CURVE SMOOTH",
"146 224 OFFCURVE",
"161 249 OFFCURVE",
"201 272 CURVE",
"170 327 LINE",
"109 289 OFFCURVE",
"89 256 OFFCURVE",
"77 229 CURVE SMOOTH",
"59 188 OFFCURVE",
"55 132 OFFCURVE",
"55 80 CURVE SMOOTH",
"55 56 OFFCURVE",
"55 35 OFFCURVE",
"55 5 CURVE",
"55 0 LINE"
);
},
{
closed = 1;
nodes = (
"369 174 OFFCURVE",
"402 200 OFFCURVE",
"427 247 CURVE SMOOTH",
"447 285 OFFCURVE",
"453 322 OFFCURVE",
"453 356 CURVE SMOOTH",
"453 445 OFFCURVE",
"414 477 OFFCURVE",
"336 477 CURVE SMOOTH",
"320 477 OFFCURVE",
"324 477 OFFCURVE",
"312 477 CURVE",
"289 477 LINE",
"289 455 OFFCURVE",
"289 432 OFFCURVE",
"289 407 CURVE",
"301 407 OFFCURVE",
"310 407 OFFCURVE",
"321 407 CURVE SMOOTH",
"359 407 OFFCURVE",
"377 390 OFFCURVE",
"377 346 CURVE SMOOTH",
"377 308 OFFCURVE",
"367 234 OFFCURVE",
"292 204 CURVE",
"334 150 LINE"
);
}
);
width = 514;
},
{
layerId = "C42C1682-C410-46D1-BF5A-F68DB0880154";
paths = (
{
closed = 1;
nodes = (
"422 -5 LINE",
"430 9 OFFCURVE",
"437 41 OFFCURVE",
"437 67 CURVE SMOOTH",
"437 210 OFFCURVE",
"97 377 OFFCURVE",
"88 512 CURVE",
"65 512 LINE",
"59 502 OFFCURVE",
"42 467 OFFCURVE",
"42 428 CURVE SMOOTH",
"42 303 OFFCURVE",
"401 94 OFFCURVE",
"401 -5 CURVE"
);
},
{
closed = 1;
nodes = (
"163 1 LINE",
"173 18 OFFCURVE",
"180 38 OFFCURVE",
"180 61 CURVE SMOOTH",
"180 114 OFFCURVE",
"96 188 OFFCURVE",
"96 237 CURVE SMOOTH",
"96 258 OFFCURVE",
"110 278 OFFCURVE",
"147 307 CURVE",
"112 320 LINE",
"84 296 OFFCURVE",
"54 256 OFFCURVE",
"54 215 CURVE SMOOTH",
"54 140 OFFCURVE",
"87 109 OFFCURVE",
"87 73 CURVE SMOOTH",
"87 41 OFFCURVE",
"67 30 OFFCURVE",
"39 23 CURVE",
"39 1 LINE"
);
},
{
closed = 1;
nodes = (
"358 221 OFFCURVE",
"369 233 OFFCURVE",
"380 252 CURVE SMOOTH",
"393 275 OFFCURVE",
"416 321 OFFCURVE",
"416 380 CURVE SMOOTH",
"416 464 OFFCURVE",
"399 487 OFFCURVE",
"333 487 CURVE SMOOTH",
"314 487 OFFCURVE",
"308 498 OFFCURVE",
"302 513 CURVE",
"280 513 LINE",
"269 490 OFFCURVE",
"267 468 OFFCURVE",
"267 445 CURVE SMOOTH",
"267 400 OFFCURVE",
"280 385 OFFCURVE",
"323 385 CURVE SMOOTH",
"356 385 OFFCURVE",
"371 377 OFFCURVE",
"371 339 CURVE SMOOTH",
"371 301 OFFCURVE",
"357 268 OFFCURVE",
"320 226 CURVE",
"342 203 LINE"
);
}
);
width = 480;
},
{
layerId = "E84AB450-BED0-484C-851E-2EB7B7ED9E73";
paths = (
{
closed = 1;
nodes = (
"419 -5 LINE",
"439 25 OFFCURVE",
"444 66 OFFCURVE",
"444 107 CURVE SMOOTH",
"444 268 OFFCURVE",
"102 359 OFFCURVE",
"99 512 CURVE",
"69 512 LINE",
"47 473 OFFCURVE",
"42 438 OFFCURVE",
"43 389 CURVE SMOOTH",
"47 231 OFFCURVE",
"368 133 OFFCURVE",
"388 -5 CURVE"
);
},
{
closed = 1;
nodes = (
"205 0 LINE",
"215 17 OFFCURVE",
"219 38 OFFCURVE",
"219 61 CURVE SMOOTH",
"219 141 OFFCURVE",
"106 186 OFFCURVE",
"106 228 CURVE SMOOTH",
"106 240 OFFCURVE",
"116 258 OFFCURVE",
"145 267 CURVE",
"110 300 LINE",
"71 279 OFFCURVE",
"56 242 OFFCURVE",
"56 214 CURVE SMOOTH",
"56 176 OFFCURVE",
"78 126 OFFCURVE",
"78 92 CURVE SMOOTH",
"78 57 OFFCURVE",
"62 45 OFFCURVE",
"40 37 CURVE",
"40 0 LINE"
);
},
{
closed = 1;
nodes = (
"374 224 OFFCURVE",
"394 239 OFFCURVE",
"412 266 CURVE SMOOTH",
"424 284 OFFCURVE",
"441 317 OFFCURVE",
"441 383 CURVE SMOOTH",
"441 471 OFFCURVE",
"401 486 OFFCURVE",
"341 486 CURVE SMOOTH",
"323 486 OFFCURVE",
"311 489 OFFCURVE",
"306 512 CURVE",
"275 512 LINE",
"266 481 OFFCURVE",
"265 455 OFFCURVE",
"265 427 CURVE SMOOTH",
"265 365 OFFCURVE",
"296 335 OFFCURVE",
"351 335 CURVE SMOOTH",
"372 335 OFFCURVE",
"383 326 OFFCURVE",
"383 306 CURVE SMOOTH",
"383 260 OFFCURVE",
"345 251 OFFCURVE",
"321 245 CURVE",
"338 211 LINE"
);
}
);
width = 492;
},
{
layerId = "FB8990CA-0F96-4B7B-86A4-9D429D534475";
paths = (
{
closed = 1;
nodes = (
"539 0 LINE",
"539 3 OFFCURVE",
"539 7 OFFCURVE",
"539 10 CURVE",
"410 173 OFFCURVE",
"280 337 OFFCURVE",
"151 500 CURVE",
"11 500 LINE",
"11 497 OFFCURVE",
"11 493 OFFCURVE",
"11 490 CURVE",
"140 327 OFFCURVE",
"270 163 OFFCURVE",
"399 0 CURVE"
);
},
{
closed = 1;
nodes = (
"181 0 LINE",
"181 32 OFFCURVE",
"181 79 OFFCURVE",
"181 109 CURVE",
"181 137 OFFCURVE",
"179 177 OFFCURVE",
"188 210 CURVE SMOOTH",
"195 237 OFFCURVE",
"217 250 OFFCURVE",
"251 252 CURVE",
"210 347 LINE",
"127 326 OFFCURVE",
"78 287 OFFCURVE",
"61 236 CURVE SMOOTH",
"47 193 OFFCURVE",
"45 152 OFFCURVE",
"45 110 CURVE SMOOTH",
"45 80 OFFCURVE",
"45 43 OFFCURVE",
"45 5 CURVE",
"45 0 LINE"
);
},
{
closed = 1;
nodes = (
"419 172 OFFCURVE",
"465 195 OFFCURVE",
"493 247 CURVE SMOOTH",
"512 282 OFFCURVE",
"519 322 OFFCURVE",
"519 356 CURVE SMOOTH",
"519 462 OFFCURVE",
"480 500 OFFCURVE",
"352 500 CURVE SMOOTH",
"336 500 OFFCURVE",
"340 500 OFFCURVE",
"328 500 CURVE",
"305 500 LINE",
"305 473 OFFCURVE",
"305 427 OFFCURVE",
"305 387 CURVE",
"317 387 OFFCURVE",
"326 387 OFFCURVE",
"337 387 CURVE SMOOTH",
"375 387 OFFCURVE",
"393 373 OFFCURVE",
"393 336 CURVE SMOOTH",
"393 308 OFFCURVE",
"385 253 OFFCURVE",
"326 230 CURVE",
"375 148 LINE"
);
}
);
width = 567;
}
);
unicode = 05D0;
},
{
color = 4;
glyphname = "bet-hb";
lastChange = "2019-06-11 07:29:36 +0000";
layers = (
{
associatedMasterId = "D0BE0C1E-19E7-43D2-9BC3-AB141F408D31";
layerId = "0D2F9F62-6D50-490D-B425-4005BBEB55D2";
name = "new Layer";
paths = (
{
closed = 0;
nodes = (
"509 0 LINE",
"509 354 LINE SMOOTH",
"509 468 OFFCURVE",
"456 493 OFFCURVE",
"335 493 CURVE SMOOTH",
"278 493 LINE SMOOTH",
"224 493 OFFCURVE",
"189 497 OFFCURVE",
"146 505 CURVE"
);
},
{
closed = 0;
nodes = (
"120 0 LINE",
"623 0 LINE"
);
}
);
width = 690;
},
{
background = {
paths = (
{
closed = 1;
nodes = (
"585 100 LINE",
"585 455 LINE SMOOTH",
"585 569 OFFCURVE",
"532 594 OFFCURVE",
"410 594 CURVE SMOOTH",
"353 594 LINE SMOOTH",
"299 594 OFFCURVE",
"264 598 OFFCURVE",
"221 606 CURVE",
"161 505 LINE",
"204 497 OFFCURVE",
"239 493 OFFCURVE",
"293 493 CURVE SMOOTH",
"350 493 LINE SMOOTH",
"471 493 OFFCURVE",
"524 468 OFFCURVE",
"524 354 CURVE SMOOTH",
"524 0 LINE"
);
},
{
closed = 1;
nodes = (
"638 0 LINE",
"699 100 LINE",
"195 100 LINE",
"135 0 LINE"
);
}
);
};
layerId = "D0BE0C1E-19E7-43D2-9BC3-AB141F408D31";
paths = (
{
closed = 1;
nodes = (
"354 0 LINE",
"367 32 OFFCURVE",
"378 65 OFFCURVE",
"388 109 CURVE",
"388 192 OFFCURVE",
"389 279 OFFCURVE",
"387 357 CURVE SMOOTH",
"384 471 OFFCURVE",
"347 500 OFFCURVE",
"241 500 CURVE SMOOTH",
"191 500 LINE SMOOTH",
"142 500 OFFCURVE",
"132 500 OFFCURVE",
"99 516 CURVE",
"76 516 LINE",
"62 487 OFFCURVE",
"54 456 OFFCURVE",
"50 420 CURVE",
"86 400 OFFCURVE",
"124 397 OFFCURVE",
"180 397 CURVE SMOOTH",
"230 397 LINE SMOOTH",
"310 397 OFFCURVE",
"315 388 OFFCURVE",
"318 307 CURVE SMOOTH",
"321 237 OFFCURVE",
"323 152 OFFCURVE",
"326 0 CURVE"
);
},
{
closed = 1;
nodes = (
"424 0 LINE",
"432 29 OFFCURVE",
"438 64 OFFCURVE",
"443 100 CURVE",
"66 100 LINE",
"60 82 OFFCURVE",
"51 21 OFFCURVE",
"50 0 CURVE"
);
}
);
width = 483;
},
{
background = {
paths = (
{
closed = 1;
nodes = (
"575 180 LINE",
"575 535 LINE SMOOTH",
"575 649 OFFCURVE",
"522 674 OFFCURVE",
"400 674 CURVE SMOOTH",
"343 674 LINE SMOOTH",
"289 674 OFFCURVE",
"254 678 OFFCURVE",
"211 686 CURVE",
"126 505 LINE",
"169 497 OFFCURVE",
"204 493 OFFCURVE",
"258 493 CURVE SMOOTH",
"315 493 LINE SMOOTH",
"436 493 OFFCURVE",
"489 468 OFFCURVE",
"489 354 CURVE SMOOTH",
"489 0 LINE"
);
},
{
closed = 1;
nodes = (
"603 0 LINE",
"689 180 LINE",
"185 180 LINE",
"100 0 LINE"
);
}
);
};
layerId = "AFDF4EF8-A213-4348-ACF7-371209F0497C";
paths = (
{
closed = 1;
nodes = (
"309 0 LINE",
"324 56 OFFCURVE",
"339 113 OFFCURVE",
"348 177 CURVE",
"348 251 OFFCURVE",
"347 298 OFFCURVE",
"342 367 CURVE SMOOTH",
"335 466 OFFCURVE",
"295 500 OFFCURVE",
"193 500 CURVE SMOOTH",
"173 500 LINE SMOOTH",
"121 500 OFFCURVE",
"113 501 OFFCURVE",
"93 509 CURVE",
"68 509 LINE",
"52 469 OFFCURVE",
"33 389 OFFCURVE",
"32 336 CURVE",
"81 321 OFFCURVE",
"112 318 OFFCURVE",
"165 318 CURVE SMOOTH",
"185 318 LINE SMOOTH",
"246 318 OFFCURVE",
"256 304 OFFCURVE",
"260 226 CURVE SMOOTH",
"264 156 OFFCURVE",
"267 81 OFFCURVE",
"270 0 CURVE"
);
},
{
closed = 1;
nodes = (
"365 0 LINE",
"381 57 OFFCURVE",
"389 115 OFFCURVE",
"398 177 CURVE",
"39 177 LINE",
"31 141 OFFCURVE",
"16 52 OFFCURVE",
"11 0 CURVE"
);
}
);
width = 428;
},
{
background = {
paths = (
{
closed = 1;
nodes = (
"586 160 LINE",
"586 515 LINE SMOOTH",
"586 629 OFFCURVE",
"533 654 OFFCURVE",
"411 654 CURVE SMOOTH",
"354 654 LINE SMOOTH",
"300 654 OFFCURVE",
"265 658 OFFCURVE",
"222 666 CURVE",
"102 505 LINE",
"145 497 OFFCURVE",
"180 493 OFFCURVE",
"234 493 CURVE SMOOTH",
"291 493 LINE SMOOTH",
"412 493 OFFCURVE",
"465 468 OFFCURVE",
"465 354 CURVE SMOOTH",
"465 0 LINE"
);
},
{
closed = 1;
nodes = (
"579 0 LINE",
"700 160 LINE",
"196 160 LINE",
"76 0 LINE"
);
}
);
};
layerId = "A396904D-C838-4FF7-A96F-91F438939708";
paths = (
{
closed = 1;
nodes = (
"354 0 LINE",
"365 45 OFFCURVE",
"379 100 OFFCURVE",
"385 161 CURVE",
"383 234 OFFCURVE",
"384 316 OFFCURVE",
"380 378 CURVE SMOOTH",
"375 456 OFFCURVE",
"331 500 OFFCURVE",
"206 500 CURVE SMOOTH",
"186 500 LINE SMOOTH",
"141 500 OFFCURVE",
"131 502 OFFCURVE",
"101 512 CURVE",
"74 512 LINE",
"64 487 OFFCURVE",
"45 395 OFFCURVE",
"42 348 CURVE",
"70 339 OFFCURVE",
"120 335 OFFCURVE",
"147 335 CURVE SMOOTH",
"167 335 LINE SMOOTH",
"253 335 OFFCURVE",
"263 318 OFFCURVE",
"265 232 CURVE SMOOTH",
"267 180 OFFCURVE",
"271 79 OFFCURVE",
"271 0 CURVE"
);
},
{
closed = 1;
nodes = (
"406 0 LINE",
"418 45 OFFCURVE",
"433 106 OFFCURVE",
"437 167 CURVE",
"56 167 LINE",
"48 138 OFFCURVE",
"33 44 OFFCURVE",
"32 0 CURVE"
);
}
);
width = 456;
},
{
background = {
paths = (
{
closed = 1;
nodes = (
"560 90 LINE",
"560 445 LINE SMOOTH",
"560 559 OFFCURVE",
"507 584 OFFCURVE",
"385 584 CURVE SMOOTH",
"328 584 LINE SMOOTH",
"274 584 OFFCURVE",
"239 588 OFFCURVE",
"196 596 CURVE",
"121 505 LINE",
"164 497 OFFCURVE",
"199 493 OFFCURVE",
"253 493 CURVE SMOOTH",
"310 493 LINE SMOOTH",
"431 493 OFFCURVE",
"484 468 OFFCURVE",
"484 354 CURVE SMOOTH",
"484 0 LINE"
);
},
{
closed = 1;
nodes = (
"598 0 LINE",
"674 90 LINE",
"170 90 LINE",
"95 0 LINE"
);
}
);
};
layerId = "5539344D-F27C-4FBD-A9E2-D2F022F19CCA";
paths = (
{
closed = 1;
nodes = (
"376 0 LINE",
"381 28 OFFCURVE",
"385 58 OFFCURVE",
"387 94 CURVE",
"392 152 OFFCURVE",
"391 216 OFFCURVE",
"389 296 CURVE SMOOTH",
"385 449 OFFCURVE",
"377 500 OFFCURVE",
"254 500 CURVE SMOOTH",
"214 500 LINE SMOOTH",
"149 500 OFFCURVE",
"109 504 OFFCURVE",
"88 513 CURVE",
"66 513 LINE",
"54 486 OFFCURVE",
"44 456 OFFCURVE",
"41 433 CURVE",
"64 416 OFFCURVE",
"127 411 OFFCURVE",
"173 411 CURVE SMOOTH",
"213 411 LINE SMOOTH",
"315 411 OFFCURVE",
"308 396 OFFCURVE",
"314 278 CURVE SMOOTH",
"321 146 OFFCURVE",
"320 98 OFFCURVE",
"325 0 CURVE"
);
},
{
closed = 1;
nodes = (
"436 0 LINE",
"445 27 OFFCURVE",
"451 54 OFFCURVE",
"454 89 CURVE",
"53 89 LINE",
"47 66 OFFCURVE",
"38 17 OFFCURVE",
"39 0 CURVE"
);
}
);
width = 487;
},
{
background = {
paths = (
{
closed = 1;
nodes = (
"196 461 OFFCURVE",
"233 458 OFFCURVE",
"285 458 CURVE SMOOTH",
"342 458 LINE SMOOTH",
"456 458 OFFCURVE",
"481 438 OFFCURVE",
"481 354 CURVE SMOOTH",
"481 0 LINE",
"551 0 LINE",
"551 354 LINE SMOOTH",
"551 481 OFFCURVE",
"492 528 OFFCURVE",
"342 528 CURVE SMOOTH",
"285 528 LINE SMOOTH",
"237 528 OFFCURVE",
"204 531 OFFCURVE",
"159 539 CURVE",
"147 471 LINE"
);
},
{
closed = 1;
nodes = (
"127 35 LINE",
"127 -35 LINE",
"630 -35 LINE",
"630 35 LINE"
);
}
);
};
layerId = "798D7B20-9AF4-495F-9307-CAE61518AA1C";
paths = (
{
closed = 1;
nodes = (
"383 6 LINE",
"383 91 OFFCURVE",
"383 131 OFFCURVE",
"383 184 CURVE SMOOTH",
"383 235 OFFCURVE",
"383 257 OFFCURVE",
"383 295 CURVE SMOOTH",
"383 417 OFFCURVE",
"355 477 OFFCURVE",
"242 477 CURVE SMOOTH",
"222 477 LINE SMOOTH",
"180 477 OFFCURVE",
"131 477 OFFCURVE",
"76 477 CURVE",
"46 477 LINE",
"46 455 OFFCURVE",
"46 432 OFFCURVE",
"46 407 CURVE",
"80 407 OFFCURVE",
"176 407 OFFCURVE",
"222 407 CURVE SMOOTH",
"242 407 LINE SMOOTH",
"293 407 OFFCURVE",
"307 382 OFFCURVE",
"307 295 CURVE SMOOTH",
"307 124 OFFCURVE",
"307 194 OFFCURVE",
"307 6 CURVE"
);
},
{
closed = 1;
nodes = (
"443 0 LINE",
"443 23 OFFCURVE",
"443 47 OFFCURVE",
"443 70 CURVE",
"46 70 LINE",
"46 47 OFFCURVE",
"46 23 OFFCURVE",
"46 0 CURVE SMOOTH"
);
}
);
width = 472;
},
{
background = {
paths = (
{
closed = 1;
nodes = (
"222 441 OFFCURVE",
"255 438 OFFCURVE",
"306 438 CURVE SMOOTH",
"363 438 LINE SMOOTH",
"485 438 OFFCURVE",
"512 421 OFFCURVE",
"512 354 CURVE SMOOTH",
"512 0 LINE",
"562 0 LINE",
"562 354 LINE SMOOTH",
"562 497 OFFCURVE",
"508 548 OFFCURVE",
"363 548 CURVE SMOOTH",
"306 548 LINE SMOOTH",
"258 548 OFFCURVE",
"221 551 OFFCURVE",
"179 559 CURVE",
"169 451 LINE"
);
},
{
closed = 1;
nodes = (
"148 55 LINE",
"148 -55 LINE",
"651 -55 LINE",
"651 55 LINE"
);
}
);
};
layerId = "C42C1682-C410-46D1-BF5A-F68DB0880154";
paths = (
{
closed = 1;
nodes = (
"347 11 LINE",
"354 51 OFFCURVE",
"363 58 OFFCURVE",
"363 116 CURVE SMOOTH",
"363 165 OFFCURVE",
"363 221 OFFCURVE",
"363 282 CURVE SMOOTH",
"363 462 OFFCURVE",
"345 486 OFFCURVE",
"225 486 CURVE SMOOTH",
"191 486 LINE SMOOTH",
"105 486 OFFCURVE",
"96 492 OFFCURVE",
"86 512 CURVE",
"64 512 LINE",
"53 489 OFFCURVE",
"48 459 OFFCURVE",
"48 435 CURVE SMOOTH",
"48 382 OFFCURVE",
"61 377 OFFCURVE",
"191 377 CURVE SMOOTH",
"225 377 LINE SMOOTH",
"303 377 OFFCURVE",
"318 359 OFFCURVE",
"319 282 CURVE SMOOTH",
"320 178 OFFCURVE",
"317 66 OFFCURVE",
"316 11 CURVE"
);
},
{
closed = 1;
nodes = (
"406 0 LINE",
"411 25 OFFCURVE",
"412 81 OFFCURVE",
"409 106 CURVE",
"52 107 LINE",
"47 89 OFFCURVE",
"47 21 OFFCURVE",
"52 0 CURVE"
);
}
);
width = 449;
},
{
background = {
paths = (
{
closed = 1;
nodes = (
"211 401 OFFCURVE",
"241 398 OFFCURVE",
"291 398 CURVE SMOOTH",
"348 398 LINE SMOOTH",
"478 398 OFFCURVE",
"495 397 OFFCURVE",
"495 354 CURVE SMOOTH",
"495 0 LINE",
"549 0 LINE",
"549 354 LINE SMOOTH",
"549 521 OFFCURVE",
"498 588 OFFCURVE",
"348 588 CURVE SMOOTH",
"291 588 LINE SMOOTH",
"243 588 OFFCURVE",
"202 591 OFFCURVE",
"164 598 CURVE",
"154 412 LINE"
);
},
{
closed = 1;
nodes = (
"133 95 LINE",
"133 -95 LINE",
"636 -95 LINE",
"636 95 LINE"
);
}
);
};
layerId = "E84AB450-BED0-484C-851E-2EB7B7ED9E73";
paths = (
{
closed = 1;
nodes = (
"347 0 LINE",
"347 40 OFFCURVE",
"342 74 OFFCURVE",
"342 103 CURVE SMOOTH",
"342 170 OFFCURVE",
"343 196 OFFCURVE",
"343 272 CURVE SMOOTH",
"343 467 OFFCURVE",
"329 486 OFFCURVE",
"236 486 CURVE SMOOTH",
"159 486 LINE SMOOTH",
"112 486 OFFCURVE",
"89 489 OFFCURVE",
"84 512 CURVE",
"53 512 LINE",
"42 475 OFFCURVE",
"41 431 OFFCURVE",
"41 397 CURVE SMOOTH",
"41 319 OFFCURVE",
"73 304 OFFCURVE",
"159 304 CURVE SMOOTH",
"236 304 LINE SMOOTH",
"288 304 OFFCURVE",
"292 298 OFFCURVE",
"292 248 CURVE SMOOTH",
"292 165 OFFCURVE",
"290 83 OFFCURVE",
"298 0 CURVE"
);
},
{
closed = 1;
nodes = (
"376 0 LINE",
"389 28 OFFCURVE",
"386 156 OFFCURVE",
"378 184 CURVE",
"53 184 LINE SMOOTH",
"45 161 OFFCURVE",
"45 28 OFFCURVE",
"53 0 CURVE SMOOTH"
);
}
);
width = 411;
},
{
background = {
paths = (
{
closed = 1;
nodes = (
"191 435 OFFCURVE",
"231 431 OFFCURVE",
"284 431 CURVE SMOOTH",
"341 431 LINE SMOOTH",
"440 431 OFFCURVE",
"450 421 OFFCURVE",
"450 354 CURVE SMOOTH",
"450 0 LINE",
"580 0 LINE",
"580 354 LINE SMOOTH",
"580 496 OFFCURVE",
"507 555 OFFCURVE",
"341 555 CURVE SMOOTH",
"284 555 LINE SMOOTH",
"238 555 OFFCURVE",
"208 558 OFFCURVE",
"164 566 CURVE",
"140 444 LINE"
);
},
{
closed = 1;
nodes = (
"126 62 LINE",
"126 -62 LINE",
"629 -62 LINE",
"629 62 LINE"
);
}
);
};
layerId = "FB8990CA-0F96-4B7B-86A4-9D429D534475";
paths = (
{
closed = 1;
nodes = (
"423 0 LINE",
"423 47 OFFCURVE",
"423 87 OFFCURVE",
"423 119 CURVE SMOOTH",
"423 172 OFFCURVE",
"423 199 OFFCURVE",
"423 279 CURVE SMOOTH",
"423 459 OFFCURVE",
"368 500 OFFCURVE",
"195 500 CURVE SMOOTH",
"175 500 LINE SMOOTH",
"159 500 OFFCURVE",
"116 500 OFFCURVE",
"73 500 CURVE",
"45 500 LINE",
"45 479 OFFCURVE",
"45 400 OFFCURVE",
"45 374 CURVE",
"92 374 OFFCURVE",
"136 374 OFFCURVE",
"175 374 CURVE SMOOTH",
"195 374 LINE SMOOTH",
"274 374 OFFCURVE",
"287 362 OFFCURVE",
"287 279 CURVE SMOOTH",
"287 108 OFFCURVE",
"287 109 OFFCURVE",
"287 0 CURVE"
);
},
{
closed = 1;
nodes = (
"482 0 LINE",
"482 47 OFFCURVE",
"482 106 OFFCURVE",
"482 138 CURVE",
"45 138 LINE",
"45 104 OFFCURVE",
"45 32 OFFCURVE",
"45 0 CURVE"
);
}
);
width = 509;
}
);
unicode = 05D1;
},
{
color = 4;
glyphname = "gimel-hb";
lastChange = "2019-06-11 07:29:36 +0000";
layers = (
{
layerId = "D0BE0C1E-19E7-43D2-9BC3-AB141F408D31";
paths = (
{
closed = 1;
nodes = (
"284 17 LINE",
"282 48 OFFCURVE",
"276 96 OFFCURVE",
"273 146 CURVE SMOOTH",
"270 189 OFFCURVE",
"265 239 OFFCURVE",
"255 335 CURVE SMOOTH",
"246 420 OFFCURVE",
"233 446 OFFCURVE",
"186 474 CURVE SMOOTH",
"162 490 OFFCURVE",
"140 501 OFFCURVE",
"122 509 CURVE",
"98 509 LINE",
"85 480 OFFCURVE",
"75 442 OFFCURVE",
"66 410 CURVE",
"94 397 OFFCURVE",
"118 388 OFFCURVE",
"144 371 CURVE SMOOTH",
"179 350 OFFCURVE",
"185 341 OFFCURVE",
"197 271 CURVE SMOOTH",
"206 216 OFFCURVE",
"212 174 OFFCURVE",
"215 152 CURVE SMOOTH",
"222 99 OFFCURVE",
"232 50 OFFCURVE",
"242 -2 CURVE"
);
},
{
closed = 1;
nodes = (
"159 23 OFFCURVE",
"188 65 OFFCURVE",
"230 156 CURVE",
"214 172 LINE",
"161 142 OFFCURVE",
"105 123 OFFCURVE",
"64 112 CURVE",
"53 91 OFFCURVE",
"38 17 OFFCURVE",
"36 -8 CURVE"
);
}
);
width = 337;
},
{
layerId = "AFDF4EF8-A213-4348-ACF7-371209F0497C";
paths = (
{
closed = 1;
nodes = (
"289 2 LINE",
"293 79 OFFCURVE",
"288 157 OFFCURVE",
"283 216 CURVE SMOOTH",
"278 273 OFFCURVE",
"277 288 OFFCURVE",
"271 342 CURVE SMOOTH",
"258 453 OFFCURVE",
"226 474 OFFCURVE",
"149 494 CURVE SMOOTH",
"130 499 OFFCURVE",
"114 506 OFFCURVE",
"104 509 CURVE",
"79 509 LINE",
"62 467 OFFCURVE",
"39 378 OFFCURVE",
"38 322 CURVE",
"69 310 OFFCURVE",
"98 303 OFFCURVE",
"139 288 CURVE SMOOTH",
"175 275 OFFCURVE",
"185 266 OFFCURVE",
"195 220 CURVE SMOOTH",
"197 208 OFFCURVE",
"201 194 OFFCURVE",
"206 170 CURVE SMOOTH",
"221 93 OFFCURVE",
"225 66 OFFCURVE",
"237 -7 CURVE"
);
},
{
closed = 1;
nodes = (
"116 -11 OFFCURVE",
"169 -10 OFFCURVE",
"220 166 CURVE",
"211 191 LINE",
"175 182 OFFCURVE",
"109 173 OFFCURVE",
"49 170 CURVE",
"29 134 OFFCURVE",
"1 40 OFFCURVE",
"-1 -13 CURVE"
);
}
);
width = 339;
},
{
layerId = "A396904D-C838-4FF7-A96F-91F438939708";
paths = (
{
closed = 1;
nodes = (
"328 36 LINE",
"321 83 OFFCURVE",
"320 127 OFFCURVE",
"311 195 CURVE SMOOTH",
"304 268 OFFCURVE",
"300 307 OFFCURVE",
"289 363 CURVE SMOOTH",
"274 441 OFFCURVE",
"248 451 OFFCURVE",
"179 483 CURVE SMOOTH",
"142 500 OFFCURVE",
"130 504 OFFCURVE",
"113 512 CURVE",
"86 511 LINE",
"76 469 OFFCURVE",
"57 387 OFFCURVE",
"54 340 CURVE",
"67 336 OFFCURVE",
"104 324 OFFCURVE",
"120 318 CURVE SMOOTH",
"159 304 OFFCURVE",
"164 295 OFFCURVE",
"177 226 CURVE SMOOTH",
"187 174 OFFCURVE",
"199 130 OFFCURVE",
"211 90 CURVE SMOOTH",
"225 42 OFFCURVE",
"230 17 OFFCURVE",
"240 -19 CURVE"
);
},
{
closed = 1;
nodes = (
"112 -2 OFFCURVE",
"193 52 OFFCURVE",
"240 97 CURVE",
"208 220 LINE",
"150 190 OFFCURVE",
"102 164 OFFCURVE",
"60 145 CURVE",
"52 115 OFFCURVE",
"34 8 OFFCURVE",
"30 -42 CURVE"
);
}
);
width = 357;
},
{
layerId = "5539344D-F27C-4FBD-A9E2-D2F022F19CCA";
paths = (
{
closed = 1;
nodes = (
"291 16 LINE",
"287 60 OFFCURVE",
"283 95 OFFCURVE",
"279 137 CURVE SMOOTH",
"274 185 OFFCURVE",
"268 231 OFFCURVE",
"259 300 CURVE SMOOTH",
"245 405 OFFCURVE",
"226 435 OFFCURVE",
"177 466 CURVE SMOOTH",
"147 487 OFFCURVE",
"115 504 OFFCURVE",
"93 513 CURVE",
"71 513 LINE",
"59 491 OFFCURVE",
"49 461 OFFCURVE",
"42 426 CURVE",
"67 412 OFFCURVE",
"101 397 OFFCURVE",
"126 382 CURVE SMOOTH",
"169 359 OFFCURVE",
"171 351 OFFCURVE",
"184 282 CURVE SMOOTH",
"194 227 OFFCURVE",
"203 154 OFFCURVE",
"209 120 CURVE SMOOTH",
"216 81 OFFCURVE",
"222 40 OFFCURVE",
"232 -11 CURVE"
);
},
{
closed = 1;
nodes = (
"109 22 OFFCURVE",
"157 58 OFFCURVE",
"224 118 CURVE",
"214 180 LINE",
"145 144 OFFCURVE",
"98 118 OFFCURVE",
"45 93 CURVE",
"35 69 OFFCURVE",
"32 12 OFFCURVE",
"37 -16 CURVE"
);
}
);
width = 349;
},
{
layerId = "798D7B20-9AF4-495F-9307-CAE61518AA1C";
paths = (
{
closed = 1;
nodes = (
"249 0 LINE",
"249 88 OFFCURVE",
"249 87 OFFCURVE",
"249 174 CURVE SMOOTH",
"249 214 OFFCURVE",
"249 253 OFFCURVE",
"249 325 CURVE SMOOTH",
"249 426 OFFCURVE",
"215 477 OFFCURVE",
"108 477 CURVE SMOOTH",
"97 477 OFFCURVE",
"87 477 OFFCURVE",
"76 477 CURVE",
"52 477 LINE",
"52 455 OFFCURVE",
"52 432 OFFCURVE",
"52 407 CURVE",
"69 407 OFFCURVE",
"81 407 OFFCURVE",
"108 407 CURVE SMOOTH",
"152 407 OFFCURVE",
"173 390 OFFCURVE",
"173 325 CURVE SMOOTH",
"173 228 OFFCURVE",
"173 239 OFFCURVE",
"173 166 CURVE SMOOTH",
"173 82 OFFCURVE",
"173 42 OFFCURVE",
"173 0 CURVE"
);
},
{
closed = 1;
nodes = (
"124 -5 OFFCURVE",
"192 69 OFFCURVE",
"192 253 CURVE",
"173 253 LINE",
"173 121 OFFCURVE",
"123 70 OFFCURVE",
"34 70 CURVE",
"34 53 OFFCURVE",
"34 12 OFFCURVE",
"34 -5 CURVE"
);
}
);
width = 314;
},
{
layerId = "C42C1682-C410-46D1-BF5A-F68DB0880154";
paths = (
{
closed = 1;
nodes = (
"244 0 LINE",
"251 30 OFFCURVE",
"257 50 OFFCURVE",
"257 96 CURVE SMOOTH",
"257 157 OFFCURVE",
"235 175 OFFCURVE",
"235 292 CURVE SMOOTH",
"235 446 OFFCURVE",
"223 486 OFFCURVE",
"141 486 CURVE SMOOTH",
"104 486 OFFCURVE",
"98 497 OFFCURVE",
"91 512 CURVE",
"70 512 LINE",
"59 489 OFFCURVE",
"57 467 OFFCURVE",
"57 444 CURVE SMOOTH",
"57 392 OFFCURVE",
"70 377 OFFCURVE",
"131 377 CURVE SMOOTH",
"180 377 OFFCURVE",
"191 362 OFFCURVE",
"191 294 CURVE SMOOTH",
"191 227 OFFCURVE",
"197 131 OFFCURVE",
"200 100 CURVE SMOOTH",
"203 66 OFFCURVE",
"205 41 OFFCURVE",
"213 0 CURVE"
);
},
{
closed = 1;
nodes = (
"145 -4 OFFCURVE",
"209 92 OFFCURVE",
"209 295 CURVE",
"191 294 LINE",
"191 163 OFFCURVE",
"151 120 OFFCURVE",
"54 117 CURVE",
"46 99 OFFCURVE",
"46 16 OFFCURVE",
"54 -4 CURVE"
);
}
);
width = 318;
},
{
layerId = "E84AB450-BED0-484C-851E-2EB7B7ED9E73";
paths = (
{
closed = 1;
nodes = (
"241 0 LINE",
"248 40 OFFCURVE",
"249 74 OFFCURVE",
"249 103 CURVE SMOOTH",
"249 170 OFFCURVE",
"235 206 OFFCURVE",
"235 272 CURVE SMOOTH",
"235 467 OFFCURVE",
"221 486 OFFCURVE",
"116 486 CURVE SMOOTH",
"95 486 OFFCURVE",
"89 489 OFFCURVE",
"84 512 CURVE",
"53 512 LINE",
"42 475 OFFCURVE",
"41 431 OFFCURVE",
"41 397 CURVE SMOOTH",
"41 321 OFFCURVE",
"56 304 OFFCURVE",
"126 304 CURVE SMOOTH",
"166 304 OFFCURVE",
"184 289 OFFCURVE",
"184 249 CURVE SMOOTH",
"184 168 OFFCURVE",
"187 143 OFFCURVE",
"190 101 CURVE SMOOTH",
"192 74 OFFCURVE",
"194 46 OFFCURVE",
"199 0 CURVE"
);
},
{
closed = 1;
nodes = (
"139 -6 OFFCURVE",
"188 31 OFFCURVE",
"192 250 CURVE",
"184 250 LINE",
"184 198 OFFCURVE",
"164 187 OFFCURVE",
"49 180 CURVE",
"40 157 OFFCURVE",
"40 22 OFFCURVE",
"49 -6 CURVE"
);
}
);
width = 292;
},
{
layerId = "FB8990CA-0F96-4B7B-86A4-9D429D534475";
paths = (
{
closed = 1;
nodes = (
"303 0 LINE",
"303 46 OFFCURVE",
"303 86 OFFCURVE",
"303 119 CURVE SMOOTH",
"303 198 OFFCURVE",
"303 225 OFFCURVE",
"303 305 CURVE SMOOTH",
"303 465 OFFCURVE",
"261 500 OFFCURVE",
"137 500 CURVE SMOOTH",
"118 500 OFFCURVE",
"103 500 OFFCURVE",
"83 500 CURVE",
"48 500 LINE",
"48 479 OFFCURVE",
"48 400 OFFCURVE",
"48 374 CURVE",
"72 374 OFFCURVE",
"86 374 OFFCURVE",
"115 374 CURVE SMOOTH",
"159 374 OFFCURVE",
"164 358 OFFCURVE",
"164 264 CURVE SMOOTH",
"164 230 OFFCURVE",
"187 235 OFFCURVE",
"188 203 CURVE SMOOTH",
"191 102 OFFCURVE",
"194 39 OFFCURVE",
"198 0 CURVE"
);
},
{
closed = 1;
nodes = (
"139 -4 OFFCURVE",
"199 30 OFFCURVE",
"199 259 CURVE",
"164 264 LINE",
"163 153 OFFCURVE",
"137 132 OFFCURVE",
"45 132 CURVE",
"45 98 OFFCURVE",
"45 30 OFFCURVE",
"45 -4 CURVE"
);
}
);
width = 366;
}
);
unicode = 05D2;
},
{
color = 4;
glyphname = "dalet-hb";
lastChange = "2019-06-11 07:29:36 +0000";
layers = (
{
associatedMasterId = "D0BE0C1E-19E7-43D2-9BC3-AB141F408D31";
layerId = "0D2F9F62-6D50-490D-B425-4005BBEB55D2";
name = Paths;
paths = (
{
closed = 0;
nodes = (
"408 0 LINE",
"408 337 LINE SMOOTH",
"408 390 OFFCURVE",
"419 455 OFFCURVE",
"441 495 CURVE"
);
},
{
closed = 0;
nodes = (
"569 493 LINE",
"292 493 LINE SMOOTH",
"214 493 OFFCURVE",
"154 504 OFFCURVE",
"100 525 CURVE"
);
}
);
width = 654;
},
{
layerId = "D0BE0C1E-19E7-43D2-9BC3-AB141F408D31";
paths = (
{
closed = 1;
nodes = (
"374 398 LINE",
"387 429 OFFCURVE",
"396 462 OFFCURVE",
"403 499 CURVE",
"174 500 LINE SMOOTH",
"95 500 OFFCURVE",
"85 500 OFFCURVE",
"52 516 CURVE",
"29 516 LINE",
"15 487 OFFCURVE",
"7 456 OFFCURVE",
"3 420 CURVE",
"39 400 OFFCURVE",
"77 397 OFFCURVE",
"163 397 CURVE SMOOTH"
);
},
{
closed = 1;
nodes = (
"283 0 LINE",
"298 31 OFFCURVE",
"315 64 OFFCURVE",
"326 99 CURVE",
"321 170 OFFCURVE",
"312 241 OFFCURVE",
"312 312 CURVE SMOOTH",
"312 354 OFFCURVE",
"316 407 OFFCURVE",
"323 439 CURVE",
"282 439 LINE",
"264 403 OFFCURVE",
"251 322 OFFCURVE",
"251 239 CURVE SMOOTH",
"251 0 LINE"
);
}
);
width = 434;
},
{
background = {
paths = (
{
closed = 1;
nodes = (
"261 0 LINE",
"275 59 OFFCURVE",
"293 118 OFFCURVE",
"301 177 CURVE",
"304 322 LINE SMOOTH",
"305 375 OFFCURVE",
"315 440 OFFCURVE",
"337 480 CURVE",
"251 329 LINE",
"229 289 OFFCURVE",
"216 224 OFFCURVE",
"218 171 CURVE",
"222 0 LINE"
);
},
{
closed = 1;
nodes = (
"67 500 OFFCURVE",
"59 501 OFFCURVE",
"39 509 CURVE",
"14 509 LINE",
"-2 469 OFFCURVE",
"-21 389 OFFCURVE",
"-22 336 CURVE",
"32 323 OFFCURVE",
"58 318 OFFCURVE",
"141 318 CURVE SMOOTH",
"379 317 LINE",
"400 374 OFFCURVE",
"416 446 OFFCURVE",
"419 499 CURVE",
"149 500 LINE SMOOTH"
);
}
);
};
layerId = "AFDF4EF8-A213-4348-ACF7-371209F0497C";
paths = (
{
closed = 1;
nodes = (
"365 318 LINE",
"386 374 OFFCURVE",
"402 446 OFFCURVE",
"405 499 CURVE",
"175 500 LINE SMOOTH",
"93 500 OFFCURVE",
"85 501 OFFCURVE",
"65 509 CURVE",
"40 509 LINE",
"24 469 OFFCURVE",
"5 389 OFFCURVE",
"4 336 CURVE",
"58 323 OFFCURVE",
"84 318 OFFCURVE",
"167 318 CURVE SMOOTH"
);
},
{
closed = 1;
nodes = (
"267 0 LINE",
"283 54 OFFCURVE",
"303 107 OFFCURVE",
"316 161 CURVE",
"311 214 OFFCURVE",
"299 291 OFFCURVE",
"300 322 CURVE SMOOTH",
"300 334 OFFCURVE",
"301 349 OFFCURVE",
"303 358 CURVE",
"247 329 LINE",
"225 289 OFFCURVE",
"212 224 OFFCURVE",
"212 141 CURVE SMOOTH",
"212 0 LINE"
);
}
);
width = 422;
},
{
background = {
paths = (
{
closed = 1;
nodes = (
"312 0 LINE",
"326 53 OFFCURVE",
"337 107 OFFCURVE",
"343 160 CURVE",
"338 346 LINE SMOOTH",
"337 399 OFFCURVE",
"349 456 OFFCURVE",
"371 496 CURVE",
"250 343 LINE",
"228 303 OFFCURVE",
"217 238 OFFCURVE",
"217 185 CURVE SMOOTH",
"217 0 LINE"
);
},
{
closed = 1;
nodes = (
"79 500 OFFCURVE",
"65 502 OFFCURVE",
"35 512 CURVE",
"8 512 LINE",
"-2 487 OFFCURVE",
"-21 395 OFFCURVE",
"-24 348 CURVE",
"4 339 OFFCURVE",
"54 335 OFFCURVE",
"101 335 CURVE SMOOTH",
"417 335 LINE",
"449 500 LINE",
"159 500 LINE SMOOTH"
);
}
);
};
layerId = "A396904D-C838-4FF7-A96F-91F438939708";
paths = (
{
closed = 1;
nodes = (
"402 335 LINE",
"414 379 OFFCURVE",
"427 445 OFFCURVE",
"434 500 CURVE",
"196 500 LINE SMOOTH",
"116 500 OFFCURVE",
"102 502 OFFCURVE",
"72 512 CURVE",
"45 512 LINE",
"35 487 OFFCURVE",
"16 395 OFFCURVE",
"13 348 CURVE",
"41 339 OFFCURVE",
"91 335 OFFCURVE",
"138 335 CURVE SMOOTH"
);
},
{
closed = 1;
nodes = (
"312 0 LINE",
"326 53 OFFCURVE",
"337 107 OFFCURVE",
"343 160 CURVE",
"341 222 OFFCURVE",
"340 284 OFFCURVE",
"338 346 CURVE SMOOTH",
"337 399 OFFCURVE",
"349 456 OFFCURVE",
"371 496 CURVE",
"250 343 LINE",
"228 303 OFFCURVE",
"217 238 OFFCURVE",
"217 185 CURVE SMOOTH",
"217 0 LINE"
);
}
);
width = 444;
},
{
background = {
paths = (
{
closed = 1;
nodes = (
"332 -1 LINE",
"339 34 OFFCURVE",
"342 68 OFFCURVE",
"343 103 CURVE",
"357 344 LINE SMOOTH",
"360 397 OFFCURVE",
"368 462 OFFCURVE",
"390 502 CURVE",
"313 411 LINE",
"291 371 OFFCURVE",
"280 306 OFFCURVE",
"280 253 CURVE",
"278 168 OFFCURVE",
"278 84 OFFCURVE",
"280 -1 CURVE"
);
},
{
closed = 1;
nodes = (
"121 500 OFFCURVE",
"81 504 OFFCURVE",
"60 513 CURVE",
"38 513 LINE",
"26 486 OFFCURVE",
"16 456 OFFCURVE",
"13 433 CURVE",
"36 416 OFFCURVE",
"99 411 OFFCURVE",
"155 411 CURVE SMOOTH",
"425 411 LINE",
"454 500 LINE",
"196 500 LINE SMOOTH"
);
}
);
};
layerId = "5539344D-F27C-4FBD-A9E2-D2F022F19CCA";
paths = (
{
closed = 1;
nodes = (
"395 411 LINE",
"401 433 OFFCURVE",
"410 483 OFFCURVE",
"409 500 CURVE",
"181 500 LINE SMOOTH",
"106 500 OFFCURVE",
"66 504 OFFCURVE",
"45 513 CURVE",
"23 513 LINE",
"11 486 OFFCURVE",
"1 456 OFFCURVE",
"-2 433 CURVE",
"21 416 OFFCURVE",
"84 411 OFFCURVE",
"140 411 CURVE SMOOTH"
);
},
{
closed = 1;
nodes = (
"307 -1 LINE",
"321 34 OFFCURVE",
"329 78 OFFCURVE",
"330 113 CURVE",
"331 190 OFFCURVE",
"329 267 OFFCURVE",
"329 344 CURVE SMOOTH",
"329 375 OFFCURVE",
"331 409 OFFCURVE",
"336 433 CURVE",
"273 433 LINE",
"260 395 OFFCURVE",
"255 333 OFFCURVE",
"255 283 CURVE SMOOTH",
"255 -1 LINE"
);
}
);
width = 456;
},
{
background = {
paths = (
{
closed = 1;
nodes = (
"302 421 OFFCURVE",
"287 351 OFFCURVE",
"287 287 CURVE SMOOTH",
"287 0 LINE",
"357 0 LINE",
"357 287 LINE SMOOTH",
"357 341 OFFCURVE",
"368 397 OFFCURVE",
"386 428 CURVE",
"324 462 LINE"
);
},
{
closed = 1;
nodes = (
"154 477 OFFCURVE",
"105 477 OFFCURVE",
"50 477 CURVE",
"31 477 LINE",
"31 455 OFFCURVE",
"31 432 OFFCURVE",
"31 407 CURVE",
"54 407 OFFCURVE",
"150 407 OFFCURVE",
"206 407 CURVE SMOOTH",
"483 407 LINE",
"483 477 LINE",
"206 477 LINE SMOOTH"
);
}
);
};
layerId = "798D7B20-9AF4-495F-9307-CAE61518AA1C";
paths = (
{
closed = 1;
nodes = (
"416 407 LINE",
"416 430 OFFCURVE",
"416 454 OFFCURVE",
"416 477 CURVE",
"193 477 LINE",
"141 477 OFFCURVE",
"92 477 OFFCURVE",
"37 477 CURVE",
"18 477 LINE",
"18 455 OFFCURVE",
"18 432 OFFCURVE",
"18 407 CURVE",
"41 407 OFFCURVE",
"137 407 OFFCURVE",
"193 407 CURVE"
);
},
{
closed = 1;
nodes = (
"353 0 LINE",
"353 85 OFFCURVE",
"353 131 OFFCURVE",
"353 184 CURVE",
"353 235 OFFCURVE",
"353 257 OFFCURVE",
"353 295 CURVE SMOOTH",
"353 343 OFFCURVE",
"353 392 OFFCURVE",
"353 440 CURVE",
"277 440 LINE",
"277 392 OFFCURVE",
"277 343 OFFCURVE",
"277 295 CURVE",
"277 0 LINE"
);
}
);
width = 443;
},
{
background = {
paths = (
{
closed = 1;
nodes = (
"263 424 OFFCURVE",
"247 333 OFFCURVE",
"247 267 CURVE SMOOTH",
"248 169 OFFCURVE",
"246 59 OFFCURVE",
"244 0 CURVE",
"275 0 LINE",
"289 40 OFFCURVE",
"303 49 OFFCURVE",
"303 107 CURVE SMOOTH",
"303 156 OFFCURVE",
"291 212 OFFCURVE",
"291 275 CURVE SMOOTH",
"291 329 OFFCURVE",
"307 369 OFFCURVE",
"327 406 CURVE",
"283 460 LINE"
);
},
{
closed = 1;
nodes = (
"60 486 OFFCURVE",
"51 492 OFFCURVE",
"41 512 CURVE",
"19 512 LINE",
"8 489 OFFCURVE",
"3 459 OFFCURVE",
"3 435 CURVE SMOOTH",
"3 382 OFFCURVE",
"16 377 OFFCURVE",
"156 377 CURVE SMOOTH",
"433 377 LINE",
"433 487 LINE",
"156 486 LINE SMOOTH"
);
}
);
};
layerId = "C42C1682-C410-46D1-BF5A-F68DB0880154";
paths = (
{
closed = 1;
nodes = (
"363 377 LINE",
"371 393 OFFCURVE",
"371 471 OFFCURVE",
"363 487 CURVE",
"173 486 LINE SMOOTH",
"77 485 OFFCURVE",
"68 492 OFFCURVE",
"58 512 CURVE",
"36 512 LINE",
"25 489 OFFCURVE",
"20 459 OFFCURVE",
"20 435 CURVE SMOOTH",
"20 382 OFFCURVE",
"33 377 OFFCURVE",
"173 377 CURVE SMOOTH"
);
},
{
closed = 1;
nodes = (
"292 0 LINE",
"306 40 OFFCURVE",
"313 64 OFFCURVE",
"313 107 CURVE SMOOTH",
"313 156 OFFCURVE",
"301 212 OFFCURVE",
"301 275 CURVE SMOOTH",
"301 326 OFFCURVE",
"303 359 OFFCURVE",
"309 394 CURVE",
"270 401 LINE",
"261 375 OFFCURVE",
"257 315 OFFCURVE",
"257 267 CURVE",
"254 0 LINE"
);
}
);
width = 414;
},
{
background = {
paths = (
{
closed = 1;
nodes = (
"198 406 OFFCURVE",
"179 305 OFFCURVE",
"179 235 CURVE SMOOTH",
"179 0 LINE",
"233 0 LINE",
"233 235 LINE SMOOTH",
"233 286 OFFCURVE",
"238 302 OFFCURVE",
"263 347 CURVE",
"215 439 LINE"
);
},
{
closed = 1;
nodes = (
"-35 305 OFFCURVE",
"8 296 OFFCURVE",
"90 296 CURVE SMOOTH",
"317 296 LINE",
"317 486 LINE",
"90 486 LINE SMOOTH",
"21 486 OFFCURVE",
"-54 497 OFFCURVE",
"-92 512 CURVE",
"-112 334 LINE"
);
}
);
};
layerId = "E84AB450-BED0-484C-851E-2EB7B7ED9E73";
paths = (
{
closed = 1;
nodes = (
"328 304 LINE",
"337 333 OFFCURVE",
"337 463 OFFCURVE",
"328 486 CURVE",
"136 486 LINE SMOOTH",
"79 486 OFFCURVE",
"56 489 OFFCURVE",
"51 512 CURVE",
"20 512 LINE",
"9 475 OFFCURVE",
"8 431 OFFCURVE",
"8 397 CURVE SMOOTH",
"8 321 OFFCURVE",
"28 304 OFFCURVE",
"116 304 CURVE SMOOTH"
);
},
{
closed = 1;
nodes = (
"273 0 LINE",
"282 40 OFFCURVE",
"283 74 OFFCURVE",
"283 103 CURVE SMOOTH",
"283 170 OFFCURVE",
"274 205 OFFCURVE",
"274 271 CURVE SMOOTH",
"274 283 OFFCURVE",
"274 301 OFFCURVE",
"278 338 CURVE",
"227 338 LINE",
"222 324 OFFCURVE",
"217 281 OFFCURVE",
"217 248 CURVE",
"223 0 LINE"
);
}
);
width = 371;
},
{
background = {
paths = (
{
closed = 1;
nodes = (
"136 500 OFFCURVE",
"87 500 OFFCURVE",
"40 500 CURVE",
"14 500 LINE",
"14 479 OFFCURVE",
"14 400 OFFCURVE",
"14 374 CURVE",
"63 374 OFFCURVE",
"110 374 OFFCURVE",
"162 374 CURVE SMOOTH",
"439 376 LINE",
"439 500 LINE",
"162 500 LINE SMOOTH"
);
},
{
closed = 1;
nodes = (
"377 0 LINE",
"377 85 OFFCURVE",
"377 131 OFFCURVE",
"377 184 CURVE SMOOTH",
"377 235 OFFCURVE",
"377 257 OFFCURVE",
"377 295 CURVE SMOOTH",
"377 440 LINE",
"241 440 LINE",
"241 295 LINE SMOOTH",
"241 124 OFFCURVE",
"241 188 OFFCURVE",
"241 0 CURVE"
);
}
);
};
layerId = "FB8990CA-0F96-4B7B-86A4-9D429D534475";
paths = (
{
closed = 1;
nodes = (
"450 376 LINE",
"450 417 OFFCURVE",
"450 459 OFFCURVE",
"450 500 CURVE",
"162 500 LINE SMOOTH",
"136 500 OFFCURVE",
"87 500 OFFCURVE",
"40 500 CURVE",
"14 500 LINE",
"14 479 OFFCURVE",
"14 400 OFFCURVE",
"14 374 CURVE",
"57 374 OFFCURVE",
"116 374 OFFCURVE",
"162 374 CURVE SMOOTH"
);
},
{
closed = 1;
nodes = (
"377 0 LINE",
"377 85 OFFCURVE",
"377 131 OFFCURVE",
"377 184 CURVE SMOOTH",
"377 235 OFFCURVE",
"377 257 OFFCURVE",
"377 295 CURVE SMOOTH",
"377 343 OFFCURVE",
"377 392 OFFCURVE",
"377 440 CURVE",
"241 440 LINE",
"241 392 OFFCURVE",
"241 343 OFFCURVE",
"241 295 CURVE",
"241 0 LINE"
);
}
);
width = 481;
}
);
unicode = 05D3;
},
{
color = 4;
glyphname = "he-hb";
lastChange = "2019-06-11 07:29:36 +0000";
layers = (
{
layerId = "D0BE0C1E-19E7-43D2-9BC3-AB141F408D31";
paths = (
{
closed = 1;
nodes = (
"412 0 LINE",
"425 32 OFFCURVE",
"436 65 OFFCURVE",
"446 109 CURVE",
"446 192 OFFCURVE",
"447 279 OFFCURVE",
"445 357 CURVE SMOOTH",
"442 471 OFFCURVE",
"405 500 OFFCURVE",
"289 500 CURVE SMOOTH",
"209 500 LINE SMOOTH",
"140 500 OFFCURVE",
"130 500 OFFCURVE",
"97 516 CURVE",
"74 516 LINE",
"60 487 OFFCURVE",
"52 456 OFFCURVE",
"48 420 CURVE",
"84 400 OFFCURVE",
"122 397 OFFCURVE",
"198 397 CURVE SMOOTH",
"278 397 LINE SMOOTH",
"368 397 OFFCURVE",
"373 388 OFFCURVE",
"376 307 CURVE SMOOTH",
"379 237 OFFCURVE",
"381 152 OFFCURVE",
"384 0 CURVE"
);
},
{
closed = 1;
nodes = (
"99 -2 LINE",
"116 30 OFFCURVE",
"130 67 OFFCURVE",
"141 119 CURVE",
"141 133 LINE SMOOTH",
"141 172 OFFCURVE",
"141 227 OFFCURVE",
"137 282 CURVE",
"108 282 LINE",
"95 256 OFFCURVE",
"87 226 OFFCURVE",
"76 194 CURVE",
"72 162 OFFCURVE",
"67 88 OFFCURVE",
"67 45 CURVE SMOOTH",
"67 -2 LINE"
);
}
);
width = 528;
},
{
layerId = "AFDF4EF8-A213-4348-ACF7-371209F0497C";
paths = (
{
closed = 1;
nodes = (
"369 0 LINE",
"386 54 OFFCURVE",
"401 111 OFFCURVE",
"408 177 CURVE",
"408 251 OFFCURVE",
"407 298 OFFCURVE",
"402 367 CURVE SMOOTH",
"395 465 OFFCURVE",
"355 500 OFFCURVE",
"253 500 CURVE SMOOTH",
"188 500 LINE SMOOTH",
"116 500 OFFCURVE",
"108 501 OFFCURVE",
"88 509 CURVE",
"63 509 LINE",
"47 469 OFFCURVE",
"28 389 OFFCURVE",
"27 336 CURVE",
"81 323 OFFCURVE",
"107 318 OFFCURVE",
"180 318 CURVE SMOOTH",
"245 318 LINE SMOOTH",
"306 318 OFFCURVE",
"316 304 OFFCURVE",
"320 226 CURVE SMOOTH",
"324 156 OFFCURVE",
"327 81 OFFCURVE",
"330 0 CURVE"
);
},
{
closed = 1;
nodes = (
"96 0 LINE",
"116 40 OFFCURVE",
"124 84 OFFCURVE",
"130 140 CURVE",
"130 169 LINE SMOOTH",
"130 198 OFFCURVE",
"129 210 OFFCURVE",
"127 245 CURVE",
"80 250 LINE",
"67 208 OFFCURVE",
"58 165 OFFCURVE",
"52 114 CURVE",
"51 99 OFFCURVE",
"50 58 OFFCURVE",
"51 37 CURVE SMOOTH",
"53 0 LINE"
);
}
);
width = 469;
},
{
layerId = "A396904D-C838-4FF7-A96F-91F438939708";
paths = (
{
closed = 1;
nodes = (
"440 0 LINE",
"451 45 OFFCURVE",
"465 100 OFFCURVE",
"471 161 CURVE",
"471 232 OFFCURVE",
"470 315 OFFCURVE",
"466 378 CURVE SMOOTH",
"461 456 OFFCURVE",
"417 500 OFFCURVE",
"292 500 CURVE SMOOTH",
"222 500 LINE SMOOTH",
"152 500 OFFCURVE",
"137 502 OFFCURVE",
"107 512 CURVE",
"80 512 LINE",
"70 487 OFFCURVE",
"51 395 OFFCURVE",
"48 348 CURVE",
"76 339 OFFCURVE",
"126 335 OFFCURVE",
"163 335 CURVE SMOOTH",
"233 335 LINE SMOOTH",
"337 335 OFFCURVE",
"348 318 OFFCURVE",
"351 232 CURVE SMOOTH",
"353 180 OFFCURVE",
"357 79 OFFCURVE",
"357 0 CURVE"
);
},
{
closed = 1;
nodes = (
"157 0 LINE",
"166 37 OFFCURVE",
"176 78 OFFCURVE",
"180 120 CURVE",
"180 147 LINE SMOOTH",
"180 178 OFFCURVE",
"180 221 OFFCURVE",
"181 255 CURVE",
"77 260 LINE",
"71 230 OFFCURVE",
"63 189 OFFCURVE",
"59 155 CURVE",
"56 136 OFFCURVE",
"54 97 OFFCURVE",
"53 69 CURVE SMOOTH",
"51 0 LINE"
);
}
);
width = 517;
},
{
layerId = "5539344D-F27C-4FBD-A9E2-D2F022F19CCA";
paths = (
{
closed = 1;
nodes = (
"466 0 LINE",
"471 31 OFFCURVE",
"475 64 OFFCURVE",
"477 104 CURVE",
"480 159 OFFCURVE",
"481 220 OFFCURVE",
"479 296 CURVE SMOOTH",
"475 449 OFFCURVE",
"455 500 OFFCURVE",
"304 500 CURVE SMOOTH",
"226 500 LINE SMOOTH",
"161 500 OFFCURVE",
"121 504 OFFCURVE",
"100 513 CURVE",
"78 513 LINE",
"66 486 OFFCURVE",
"56 456 OFFCURVE",
"53 433 CURVE",
"76 416 OFFCURVE",
"139 411 OFFCURVE",
"185 411 CURVE SMOOTH",
"263 411 LINE SMOOTH",
"394 411 OFFCURVE",
"398 396 OFFCURVE",
"404 278 CURVE SMOOTH",
"411 146 OFFCURVE",
"410 98 OFFCURVE",
"415 0 CURVE"
);
},
{
closed = 1;
nodes = (
"116 0 LINE",
"124 34 OFFCURVE",
"136 74 OFFCURVE",
"142 120 CURVE",
"141 176 LINE SMOOTH",
"140 224 OFFCURVE",
"142 265 OFFCURVE",
"142 301 CURVE",
"112 307 LINE",
"97 280 OFFCURVE",
"85 250 OFFCURVE",
"76 217 CURVE",
"70 178 OFFCURVE",
"67 117 OFFCURVE",
"67 56 CURVE SMOOTH",
"67 0 LINE"
);
}
);
width = 561;
},
{
layerId = "798D7B20-9AF4-495F-9307-CAE61518AA1C";
paths = (
{
closed = 1;
nodes = (
"450 0 LINE",
"450 85 OFFCURVE",
"450 131 OFFCURVE",
"450 184 CURVE SMOOTH",
"450 235 OFFCURVE",
"450 257 OFFCURVE",
"450 295 CURVE SMOOTH",
"450 417 OFFCURVE",
"421 477 OFFCURVE",
"288 477 CURVE SMOOTH",
"229 477 LINE SMOOTH",
"187 477 OFFCURVE",
"138 477 OFFCURVE",
"83 477 CURVE",
"64 477 LINE",
"64 455 OFFCURVE",
"64 432 OFFCURVE",
"64 407 CURVE",
"87 407 OFFCURVE",
"183 407 OFFCURVE",
"229 407 CURVE SMOOTH",
"288 407 LINE SMOOTH",
"359 407 OFFCURVE",
"374 382 OFFCURVE",
"374 295 CURVE SMOOTH",
"374 124 OFFCURVE",
"374 188 OFFCURVE",
"374 0 CURVE"
);
},
{
closed = 1;
nodes = (
"93 0 LINE",
"109 0 OFFCURVE",
"125 0 OFFCURVE",
"141 0 CURVE",
"141 156 LINE SMOOTH",
"141 193 OFFCURVE",
"141 249 OFFCURVE",
"141 275 CURVE",
"113 275 LINE",
"97 275 OFFCURVE",
"80 275 OFFCURVE",
"64 275 CURVE",
"64 256 OFFCURVE",
"64 198 OFFCURVE",
"64 158 CURVE SMOOTH",
"64 0 LINE"
);
}
);
width = 510;
},
{
layerId = "C42C1682-C410-46D1-BF5A-F68DB0880154";
paths = (
{
closed = 1;
nodes = (
"386 -4 LINE",
"400 36 OFFCURVE",
"414 58 OFFCURVE",
"414 116 CURVE SMOOTH",
"414 165 OFFCURVE",
"402 221 OFFCURVE",
"402 284 CURVE SMOOTH",
"402 476 OFFCURVE",
"384 486 OFFCURVE",
"243 486 CURVE SMOOTH",
"194 486 LINE SMOOTH",
"108 486 OFFCURVE",
"99 492 OFFCURVE",
"89 512 CURVE",
"67 512 LINE",
"56 489 OFFCURVE",
"51 459 OFFCURVE",
"51 435 CURVE SMOOTH",
"51 382 OFFCURVE",
"64 377 OFFCURVE",
"194 377 CURVE SMOOTH",
"243 377 LINE SMOOTH",
"341 377 OFFCURVE",
"357 359 OFFCURVE",
"358 276 CURVE SMOOTH",
"359 178 OFFCURVE",
"357 55 OFFCURVE",
"355 0 CURVE"
);
},
{
closed = 1;
nodes = (
"94 -6 LINE",
"113 25 OFFCURVE",
"128 88 OFFCURVE",
"129 121 CURVE",
"128 146 LINE SMOOTH",
"126 192 OFFCURVE",
"123 225 OFFCURVE",
"123 252 CURVE",
"85 252 LINE",
"79 231 OFFCURVE",
"74 205 OFFCURVE",
"69 172 CURVE",
"67 143 OFFCURVE",
"64 106 OFFCURVE",
"64 67 CURVE SMOOTH",
"64 0 LINE"
);
}
);
width = 461;
},
{
layerId = "E84AB450-BED0-484C-851E-2EB7B7ED9E73";
paths = (
{
closed = 1;
nodes = (
"368 0 LINE",
"383 40 OFFCURVE",
"384 74 OFFCURVE",
"384 103 CURVE SMOOTH",
"384 170 OFFCURVE",
"370 206 OFFCURVE",
"370 272 CURVE SMOOTH",
"370 467 OFFCURVE",
"356 486 OFFCURVE",
"203 486 CURVE SMOOTH",
"153 486 LINE SMOOTH",
"106 486 OFFCURVE",
"83 489 OFFCURVE",
"78 512 CURVE",
"47 512 LINE",
"36 475 OFFCURVE",
"35 431 OFFCURVE",
"35 397 CURVE SMOOTH",
"35 321 OFFCURVE",
"67 304 OFFCURVE",
"153 304 CURVE SMOOTH",
"203 304 LINE SMOOTH",
"315 304 OFFCURVE",
"319 299 OFFCURVE",
"319 248 CURVE SMOOTH",
"319 165 OFFCURVE",
"318 83 OFFCURVE",
"319 0 CURVE"
);
},
{
closed = 1;
nodes = (
"107 0 LINE",
"126 48 OFFCURVE",
"127 67 OFFCURVE",
"127 97 CURVE SMOOTH",
"127 112 LINE SMOOTH",
"127 174 OFFCURVE",
"114 213 OFFCURVE",
"107 235 CURVE",
"65 235 LINE",
"59 221 OFFCURVE",
"52 187 OFFCURVE",
"51 151 CURVE",
"51 134 OFFCURVE",
"51 114 OFFCURVE",
"51 96 CURVE SMOOTH",
"51 0 LINE"
);
}
);
width = 424;
},
{
layerId = "FB8990CA-0F96-4B7B-86A4-9D429D534475";
paths = (
{
closed = 1;
nodes = (
"503 0 LINE",
"503 47 OFFCURVE",
"503 87 OFFCURVE",
"503 119 CURVE SMOOTH",
"503 172 OFFCURVE",
"503 199 OFFCURVE",
"503 279 CURVE SMOOTH",
"503 459 OFFCURVE",
"450 500 OFFCURVE",
"285 500 CURVE SMOOTH",
"265 500 LINE SMOOTH",
"219 500 OFFCURVE",
"111 500 OFFCURVE",
"80 500 CURVE",
"54 500 LINE",
"54 479 OFFCURVE",
"54 400 OFFCURVE",
"54 374 CURVE",
"88 374 OFFCURVE",
"200 374 OFFCURVE",
"265 374 CURVE SMOOTH",
"285 374 LINE SMOOTH",
"355 374 OFFCURVE",
"367 362 OFFCURVE",
"367 279 CURVE SMOOTH",
"367 186 OFFCURVE",
"367 93 OFFCURVE",
"367 0 CURVE"
);
},
{
closed = 1;
nodes = (
"102 0 LINE",
"131 0 OFFCURVE",
"159 0 OFFCURVE",
"188 0 CURVE",
"188 105 LINE",
"188 156 OFFCURVE",
"188 207 OFFCURVE",
"188 258 CURVE",
"141 258 LINE",
"111 258 OFFCURVE",
"82 258 OFFCURVE",
"52 258 CURVE",
"52 228 OFFCURVE",
"52 158 OFFCURVE",
"52 109 CURVE SMOOTH",
"52 0 LINE"
);
}
);
width = 558;
}
);
rightMetricsKey = "het-hb";
unicode = 05D4;
},
{
color = 4;
glyphname = "vav-hb";
lastChange = "2019-06-11 07:29:36 +0000";
layers = (
{
layerId = "D0BE0C1E-19E7-43D2-9BC3-AB141F408D31";
paths = (
{
closed = 1;
nodes = (
"157 0 LINE",
"168 30 OFFCURVE",
"176 64 OFFCURVE",
"184 99 CURVE",
"187 182 OFFCURVE",
"187 245 OFFCURVE",
"184 333 CURVE SMOOTH",
"180 438 OFFCURVE",
"171 464 OFFCURVE",
"124 492 CURVE SMOOTH",
"109 501 OFFCURVE",
"95 507 OFFCURVE",
"84 512 CURVE",
"60 512 LINE",
"47 483 OFFCURVE",
"37 445 OFFCURVE",
"28 413 CURVE",
"43 405 OFFCURVE",
"61 396 OFFCURVE",
"78 385 CURVE SMOOTH",
"111 364 OFFCURVE",
"115 360 OFFCURVE",
"118 289 CURVE SMOOTH",
"121 219 OFFCURVE",
"123 102 OFFCURVE",
"125 0 CURVE"
);
}
);
width = 270;
},
{
layerId = "AFDF4EF8-A213-4348-ACF7-371209F0497C";
paths = (
{
closed = 1;
nodes = (
"148 0 LINE",
"163 54 OFFCURVE",
"176 111 OFFCURVE",
"180 168 CURVE",
"182 242 OFFCURVE",
"182 282 OFFCURVE",
"178 345 CURVE SMOOTH",
"171 449 OFFCURVE",
"161 460 OFFCURVE",
"80 500 CURVE SMOOTH",
"76 502 OFFCURVE",
"70 505 OFFCURVE",
"68 506 CURVE",
"43 506 LINE",
"26 464 OFFCURVE",
"7 382 OFFCURVE",
"4 326 CURVE",
"22 318 OFFCURVE",
"31 314 OFFCURVE",
"46 305 CURVE SMOOTH",
"76 287 OFFCURVE",
"84 277 OFFCURVE",
"87 198 CURVE SMOOTH",
"90 124 OFFCURVE",
"91 81 OFFCURVE",
"93 0 CURVE"
);
}
);
width = 242;
},
{
layerId = "A396904D-C838-4FF7-A96F-91F438939708";
paths = (
{
closed = 1;
nodes = (
"200 0 LINE",
"206 31 OFFCURVE",
"213 69 OFFCURVE",
"216 111 CURVE",
"217 193 OFFCURVE",
"217 299 OFFCURVE",
"212 376 CURVE SMOOTH",
"207 452 OFFCURVE",
"196 460 OFFCURVE",
"113 498 CURVE SMOOTH",
"100 504 OFFCURVE",
"91 509 OFFCURVE",
"79 513 CURVE",
"52 513 LINE",
"43 472 OFFCURVE",
"28 391 OFFCURVE",
"19 341 CURVE",
"29 337 OFFCURVE",
"37 333 OFFCURVE",
"44 330 CURVE SMOOTH",
"84 313 OFFCURVE",
"90 304 OFFCURVE",
"92 244 CURVE SMOOTH",
"94 182 OFFCURVE",
"97 90 OFFCURVE",
"99 0 CURVE"
);
}
);
width = 273;
},
{
layerId = "5539344D-F27C-4FBD-A9E2-D2F022F19CCA";
paths = (
{
closed = 1;
nodes = (
"157 0 LINE",
"163 31 OFFCURVE",
"169 65 OFFCURVE",
"171 105 CURVE",
"174 160 OFFCURVE",
"174 225 OFFCURVE",
"173 321 CURVE SMOOTH",
"172 428 OFFCURVE",
"160 457 OFFCURVE",
"97 495 CURVE SMOOTH",
"82 504 OFFCURVE",
"67 512 OFFCURVE",
"54 517 CURVE",
"32 517 LINE",
"20 495 OFFCURVE",
"10 465 OFFCURVE",
"3 430 CURVE",
"16 423 OFFCURVE",
"34 414 OFFCURVE",
"47 407 CURVE SMOOTH",
"91 383 OFFCURVE",
"99 368 OFFCURVE",
"101 272 CURVE SMOOTH",
"104 150 OFFCURVE",
"104 98 OFFCURVE",
"106 0 CURVE"
);
}
);
width = 256;
},
{
layerId = "798D7B20-9AF4-495F-9307-CAE61518AA1C";
paths = (
{
closed = 1;
nodes = (
"166 0 LINE",
"166 94 OFFCURVE",
"166 145 OFFCURVE",
"166 204 CURVE SMOOTH",
"166 285 OFFCURVE",
"166 342 OFFCURVE",
"166 386 CURVE SMOOTH",
"166 457 OFFCURVE",
"146 477 OFFCURVE",
"69 477 CURVE SMOOTH",
"48 477 OFFCURVE",
"54 477 OFFCURVE",
"38 477 CURVE",
"25 477 LINE",
"25 455 OFFCURVE",
"25 432 OFFCURVE",
"25 407 CURVE",
"41 407 OFFCURVE",
"57 407 OFFCURVE",
"69 407 CURVE SMOOTH",
"87 407 OFFCURVE",
"90 403 OFFCURVE",
"90 376 CURVE SMOOTH",
"90 124 OFFCURVE",
"90 269 OFFCURVE",
"90 0 CURVE"
);
}
);
width = 231;
},
{
layerId = "C42C1682-C410-46D1-BF5A-F68DB0880154";
paths = (
{
closed = 1;
nodes = (
"145 0 LINE",
"154 42 OFFCURVE",
"162 66 OFFCURVE",
"162 127 CURVE SMOOTH",
"162 173 OFFCURVE",
"152 253 OFFCURVE",
"152 332 CURVE SMOOTH",
"152 466 OFFCURVE",
"147 486 OFFCURVE",
"85 486 CURVE SMOOTH",
"70 486 OFFCURVE",
"64 497 OFFCURVE",
"58 512 CURVE",
"36 512 LINE",
"25 489 OFFCURVE",
"23 467 OFFCURVE",
"23 444 CURVE SMOOTH",
"23 392 OFFCURVE",
"36 377 OFFCURVE",
"74 377 CURVE SMOOTH",
"104 377 OFFCURVE",
"109 365 OFFCURVE",
"109 307 CURVE SMOOTH",
"109 199 OFFCURVE",
"107 121 OFFCURVE",
"107 0 CURVE"
);
}
);
width = 223;
},
{
layerId = "E84AB450-BED0-484C-851E-2EB7B7ED9E73";
paths = (
{
closed = 1;
nodes = (
"148 0 LINE",
"155 40 OFFCURVE",
"156 74 OFFCURVE",
"156 103 CURVE SMOOTH",
"156 170 OFFCURVE",
"151 246 OFFCURVE",
"151 372 CURVE SMOOTH",
"151 478 OFFCURVE",
"145 486 OFFCURVE",
"85 486 CURVE SMOOTH",
"76 486 OFFCURVE",
"64 489 OFFCURVE",
"59 512 CURVE",
"28 512 LINE",
"17 475 OFFCURVE",
"16 431 OFFCURVE",
"16 397 CURVE SMOOTH",
"16 321 OFFCURVE",
"48 304 OFFCURVE",
"75 304 CURVE SMOOTH",
"96 304 OFFCURVE",
"100 296 OFFCURVE",
"100 249 CURVE SMOOTH",
"100 166 OFFCURVE",
"93 83 OFFCURVE",
"94 0 CURVE"
);
}
);
width = 210;
},
{
layerId = "FB8990CA-0F96-4B7B-86A4-9D429D534475";
paths = (
{
closed = 1;
nodes = (
"216 0 LINE",
"216 47 OFFCURVE",
"216 87 OFFCURVE",
"216 119 CURVE SMOOTH",
"216 223 OFFCURVE",
"216 259 OFFCURVE",
"216 365 CURVE SMOOTH",
"216 469 OFFCURVE",
"186 500 OFFCURVE",
"98 500 CURVE SMOOTH",
"69 500 OFFCURVE",
"63 500 OFFCURVE",
"33 500 CURVE",
"20 500 LINE",
"20 479 OFFCURVE",
"20 400 OFFCURVE",
"20 374 CURVE",
"31 374 OFFCURVE",
"37 374 OFFCURVE",
"46 374 CURVE SMOOTH",
"71 374 OFFCURVE",
"80 371 OFFCURVE",
"80 345 CURVE SMOOTH",
"80 134 OFFCURVE",
"80 147 OFFCURVE",
"80 0 CURVE"
);
}
);
width = 276;
}
);
unicode = 05D5;
},
{
color = 4;
glyphname = "zayin-hb";
lastChange = "2019-06-11 07:29:36 +0000";
layers = (
{
associatedMasterId = "D0BE0C1E-19E7-43D2-9BC3-AB141F408D31";
layerId = "0D2F9F62-6D50-490D-B425-4005BBEB55D2";
name = Paths;
paths = (
{
closed = 0;
nodes = (
"231 0 LINE",
"257 54 OFFCURVE",
"261 82 OFFCURVE",
"261 148 CURVE SMOOTH",
"261 170 OFFCURVE",
"253 198 OFFCURVE",
"244 229 CURVE SMOOTH",
"232 269 OFFCURVE",
"220 311 OFFCURVE",
"223 347 CURVE SMOOTH",
"229 411 OFFCURVE",
"258 465 OFFCURVE",
"314 495 CURVE"
);
},
{
closed = 0;
nodes = (
"372 493 LINE",
"235 493 LINE SMOOTH",
"190 493 OFFCURVE",
"156 500 OFFCURVE",
"125 515 CURVE"
);
}
);
width = 487;
},
{
background = {
paths = (
{
closed = 1;
nodes = (
"278 100 LINE",
"305 154 OFFCURVE",
"309 182 OFFCURVE",
"309 248 CURVE SMOOTH",
"309 270 OFFCURVE",
"300 299 OFFCURVE",
"291 329 CURVE SMOOTH",
"279 370 OFFCURVE",
"267 412 OFFCURVE",
"270 448 CURVE SMOOTH",
"276 512 OFFCURVE",
"306 566 OFFCURVE",
"362 596 CURVE",
"301 495 LINE",
"245 465 OFFCURVE",
"216 411 OFFCURVE",
"210 347 CURVE SMOOTH",
"207 311 OFFCURVE",
"219 269 OFFCURVE",
"231 229 CURVE SMOOTH",
"240 198 OFFCURVE",
"248 170 OFFCURVE",
"248 148 CURVE SMOOTH",
"248 82 OFFCURVE",
"244 54 OFFCURVE",
"218 0 CURVE"
);
},
{
closed = 1;
nodes = (
"359 493 LINE",
"420 594 LINE",
"282 594 LINE SMOOTH",
"237 594 OFFCURVE",
"203 601 OFFCURVE",
"172 616 CURVE",
"112 515 LINE",
"143 500 OFFCURVE",
"177 493 OFFCURVE",
"222 493 CURVE SMOOTH"
);
}
);
};
layerId = "D0BE0C1E-19E7-43D2-9BC3-AB141F408D31";
paths = (
{
closed = 1;
nodes = (
"176 0 LINE",
"186 32 OFFCURVE",
"196 63 OFFCURVE",
"200 92 CURVE",
"170 169 LINE SMOOTH",
"148 230 OFFCURVE",
"133 270 OFFCURVE",
"133 315 CURVE SMOOTH",
"133 356 OFFCURVE",
"141 377 OFFCURVE",
"162 422 CURVE",
"129 422 LINE",
"106 400 OFFCURVE",
"73 353 OFFCURVE",
"73 287 CURVE SMOOTH",
"73 232 OFFCURVE",
"89 180 OFFCURVE",
"107 120 CURVE SMOOTH",
"146 0 LINE"
);
},
{
closed = 1;
nodes = (
"233 398 LINE",
"245 429 OFFCURVE",
"253 462 OFFCURVE",
"256 499 CURVE",
"173 500 LINE SMOOTH",
"100 501 OFFCURVE",
"87 503 OFFCURVE",
"61 520 CURVE",
"38 520 LINE",
"24 490 OFFCURVE",
"16 458 OFFCURVE",
"12 420 CURVE",
"46 400 OFFCURVE",
"81 396 OFFCURVE",
"162 397 CURVE SMOOTH"
);
}
);
width = 291;
},
{
background = {
paths = (
{
closed = 1;
nodes = (
"300 180 LINE SMOOTH",
"327 234 OFFCURVE",
"331 262 OFFCURVE",
"331 328 CURVE SMOOTH",
"331 350 OFFCURVE",
"322 379 OFFCURVE",
"313 409 CURVE SMOOTH",
"301 450 OFFCURVE",
"289 492 OFFCURVE",
"292 528 CURVE SMOOTH",
"298 592 OFFCURVE",
"328 646 OFFCURVE",
"384 676 CURVE",
"298 495 LINE",
"242 465 OFFCURVE",
"213 411 OFFCURVE",
"207 347 CURVE SMOOTH",
"204 311 OFFCURVE",
"216 269 OFFCURVE",
"228 229 CURVE SMOOTH",
"237 198 OFFCURVE",
"245 170 OFFCURVE",
"245 148 CURVE SMOOTH",
"245 82 OFFCURVE",
"241 54 OFFCURVE",
"215 0 CURVE"
);
},
{
closed = 1;
nodes = (
"356 493 LINE",
"442 674 LINE",
"304 674 LINE SMOOTH",
"259 674 OFFCURVE",
"225 681 OFFCURVE",
"194 696 CURVE",
"109 515 LINE",
"140 500 OFFCURVE",
"174 493 OFFCURVE",
"219 493 CURVE SMOOTH"
);
}
);
};
layerId = "AFDF4EF8-A213-4348-ACF7-371209F0497C";
paths = (
{
closed = 1;
nodes = (
"170 1 LINE",
"186 56 OFFCURVE",
"194 109 OFFCURVE",
"194 158 CURVE",
"172 198 LINE SMOOTH",
"147 243 OFFCURVE",
"133 268 OFFCURVE",
"133 306 CURVE SMOOTH",
"133 326 OFFCURVE",
"143 336 OFFCURVE",
"153 363 CURVE",
"96 368 LINE",
"85 354 OFFCURVE",
"54 286 OFFCURVE",
"54 226 CURVE SMOOTH",
"54 165 OFFCURVE",
"58 142 OFFCURVE",
"84 64 CURVE SMOOTH",
"105 1 LINE"
);
},
{
closed = 1;
nodes = (
"205 318 LINE",
"220 374 OFFCURVE",
"234 444 OFFCURVE",
"236 498 CURVE",
"166 499 LINE SMOOTH",
"120 500 OFFCURVE",
"89 504 OFFCURVE",
"67 517 CURVE",
"42 517 LINE",
"26 478 OFFCURVE",
"7 401 OFFCURVE",
"6 353 CURVE",
"49 325 OFFCURVE",
"112 318 OFFCURVE",
"158 318 CURVE SMOOTH"
);
}
);
width = 274;
},
{
background = {
paths = (
{
closed = 1;
nodes = (
"329 160 LINE",
"356 214 OFFCURVE",
"360 242 OFFCURVE",
"360 308 CURVE SMOOTH",
"360 330 OFFCURVE",
"351 359 OFFCURVE",
"342 389 CURVE SMOOTH",
"330 430 OFFCURVE",
"318 472 OFFCURVE",
"321 508 CURVE SMOOTH",
"327 572 OFFCURVE",
"357 626 OFFCURVE",
"413 656 CURVE",
"292 495 LINE",
"236 465 OFFCURVE",
"207 411 OFFCURVE",
"201 347 CURVE SMOOTH",
"198 311 OFFCURVE",
"210 269 OFFCURVE",
"222 229 CURVE SMOOTH",
"231 198 OFFCURVE",
"239 170 OFFCURVE",
"239 148 CURVE SMOOTH",
"239 82 OFFCURVE",
"235 54 OFFCURVE",
"209 0 CURVE"
);
},
{
closed = 1;
nodes = (
"350 493 LINE",
"471 654 LINE",
"333 654 LINE SMOOTH",
"288 654 OFFCURVE",
"254 661 OFFCURVE",
"223 676 CURVE",
"103 515 LINE",
"134 500 OFFCURVE",
"168 493 OFFCURVE",
"213 493 CURVE SMOOTH"
);
}
);
};
layerId = "A396904D-C838-4FF7-A96F-91F438939708";
paths = (
{
closed = 1;
nodes = (
"211 1 LINE",
"227 56 OFFCURVE",
"235 109 OFFCURVE",
"235 158 CURVE",
"218 198 LINE SMOOTH",
"200 240 OFFCURVE",
"192 262 OFFCURVE",
"192 296 CURVE SMOOTH",
"192 319 OFFCURVE",
"195 331 OFFCURVE",
"202 363 CURVE",
"115 368 LINE",
"104 354 OFFCURVE",
"73 286 OFFCURVE",
"73 226 CURVE SMOOTH",
"73 165 OFFCURVE",
"85 110 OFFCURVE",
"98 65 CURVE SMOOTH",
"116 1 LINE"
);
},
{
closed = 1;
nodes = (
"265 335 LINE",
"277 367 OFFCURVE",
"291 465 OFFCURVE",
"291 500 CURVE",
"217 500 LINE SMOOTH",
"134 500 OFFCURVE",
"99 503 OFFCURVE",
"68 517 CURVE",
"41 517 LINE",
"31 494 OFFCURVE",
"13 408 OFFCURVE",
"15 360 CURVE",
"49 343 OFFCURVE",
"111 335 OFFCURVE",
"169 335 CURVE SMOOTH"
);
}
);
width = 331;
},
{
background = {
paths = (
{
closed = 1;
nodes = (
"277 90 LINE",
"304 144 OFFCURVE",
"308 172 OFFCURVE",
"308 238 CURVE SMOOTH",
"308 260 OFFCURVE",
"299 289 OFFCURVE",
"290 319 CURVE SMOOTH",
"278 360 OFFCURVE",
"266 402 OFFCURVE",
"269 438 CURVE SMOOTH",
"275 502 OFFCURVE",
"305 556 OFFCURVE",
"361 586 CURVE",
"285 495 LINE",
"229 465 OFFCURVE",
"200 411 OFFCURVE",
"194 347 CURVE SMOOTH",
"191 311 OFFCURVE",
"203 269 OFFCURVE",
"215 229 CURVE SMOOTH",
"224 198 OFFCURVE",
"232 170 OFFCURVE",
"232 148 CURVE SMOOTH",
"232 82 OFFCURVE",
"228 54 OFFCURVE",
"202 0 CURVE"
);
},
{
closed = 1;
nodes = (
"343 493 LINE",
"419 584 LINE",
"281 584 LINE SMOOTH",
"236 584 OFFCURVE",
"202 591 OFFCURVE",
"171 606 CURVE",
"96 515 LINE",
"127 500 OFFCURVE",
"161 493 OFFCURVE",
"206 493 CURVE SMOOTH"
);
}
);
};
layerId = "5539344D-F27C-4FBD-A9E2-D2F022F19CCA";
paths = (
{
closed = 1;
nodes = (
"167 1 LINE",
"178 29 OFFCURVE",
"198 87 OFFCURVE",
"198 123 CURVE",
"184 175 LINE SMOOTH",
"170 228 OFFCURVE",
"153 292 OFFCURVE",
"153 337 CURVE SMOOTH",
"153 369 OFFCURVE",
"162 393 OFFCURVE",
"179 430 CURVE",
"120 430 LINE",
"104 389 OFFCURVE",
"87 351 OFFCURVE",
"87 300 CURVE SMOOTH",
"87 252 OFFCURVE",
"98 180 OFFCURVE",
"115 96 CURVE SMOOTH",
"135 -3 LINE"
);
},
{
closed = 1;
nodes = (
"251 411 LINE",
"257 433 OFFCURVE",
"266 483 OFFCURVE",
"265 500 CURVE",
"174 500 LINE SMOOTH",
"108 500 OFFCURVE",
"73 506 OFFCURVE",
"54 519 CURVE",
"32 519 LINE",
"20 489 OFFCURVE",
"11 456 OFFCURVE",
"8 431 CURVE",
"30 416 OFFCURVE",
"90 411 OFFCURVE",
"143 411 CURVE SMOOTH"
);
}
);
width = 313;
},
{
background = {
paths = (
{
closed = 1;
nodes = (
"177 492 OFFCURVE",
"139 430 OFFCURVE",
"131 350 CURVE SMOOTH",
"128 308 OFFCURVE",
"141 259 OFFCURVE",
"153 219 CURVE SMOOTH",
"166 177 OFFCURVE",
"169 161 OFFCURVE",
"169 148 CURVE SMOOTH",
"169 82 OFFCURVE",
"165 62 OFFCURVE",
"142 15 CURVE",
"206 -15 LINE",
"232 40 OFFCURVE",
"239 73 OFFCURVE",
"239 148 CURVE SMOOTH",
"239 175 OFFCURVE",
"230 208 OFFCURVE",
"221 239 CURVE SMOOTH",
"204 294 OFFCURVE",
"199 321 OFFCURVE",
"201 344 CURVE SMOOTH",
"206 401 OFFCURVE",
"231 441 OFFCURVE",
"274 464 CURVE",
"240 526 LINE"
);
},
{
closed = 1;
nodes = (
"88 466 OFFCURVE",
"129 458 OFFCURVE",
"178 458 CURVE SMOOTH",
"315 458 LINE",
"315 528 LINE",
"178 528 LINE SMOOTH",
"138 528 OFFCURVE",
"110 533 OFFCURVE",
"83 547 CURVE",
"53 483 LINE"
);
}
);
};
layerId = "798D7B20-9AF4-495F-9307-CAE61518AA1C";
paths = (
{
closed = 1;
nodes = (
"169 0 LINE",
"189 0 OFFCURVE",
"209 0 OFFCURVE",
"229 0 CURVE",
"168 176 LINE SMOOTH",
"147 238 OFFCURVE",
"141 258 OFFCURVE",
"141 292 CURVE SMOOTH",
"141 360 OFFCURVE",
"167 391 OFFCURVE",
"203 419 CURVE",
"136 419 LINE",
"86 370 OFFCURVE",
"69 335 OFFCURVE",
"69 289 CURVE SMOOTH",
"69 245 OFFCURVE",
"82 203 OFFCURVE",
"95 159 CURVE SMOOTH",
"143 0 LINE"
);
},
{
closed = 1;
nodes = (
"259 407 LINE",
"259 430 OFFCURVE",
"259 454 OFFCURVE",
"259 477 CURVE",
"82 477 LINE",
"67 477 OFFCURVE",
"52 477 OFFCURVE",
"36 477 CURVE",
"17 477 LINE",
"17 455 OFFCURVE",
"17 432 OFFCURVE",
"17 407 CURVE",
"28 407 OFFCURVE",
"61 407 OFFCURVE",
"82 407 CURVE"
);
}
);
width = 302;
},
{
background = {
paths = (
{
closed = 1;
nodes = (
"233 514 OFFCURVE",
"192 439 OFFCURVE",
"184 352 CURVE SMOOTH",
"180 303 OFFCURVE",
"196 246 OFFCURVE",
"206 213 CURVE SMOOTH",
"217 175 OFFCURVE",
"222 158 OFFCURVE",
"222 148 CURVE SMOOTH",
"222 86 OFFCURVE",
"220 77 OFFCURVE",
"194 24 CURVE",
"240 -24 LINE",
"265 30 OFFCURVE",
"272 76 OFFCURVE",
"272 148 CURVE SMOOTH",
"272 173 OFFCURVE",
"265 206 OFFCURVE",
"254 245 CURVE SMOOTH",
"240 292 OFFCURVE",
"232 319 OFFCURVE",
"234 342 CURVE SMOOTH",
"239 392 OFFCURVE",
"258 418 OFFCURVE",
"312 447 CURVE",
"288 543 LINE"
);
},
{
closed = 1;
nodes = (
"144 444 OFFCURVE",
"171 438 OFFCURVE",
"221 438 CURVE SMOOTH",
"358 438 LINE",
"358 548 LINE",
"221 548 LINE SMOOTH",
"181 548 OFFCURVE",
"143 554 OFFCURVE",
"122 565 CURVE",
"100 465 LINE"
);
}
);
};
layerId = "C42C1682-C410-46D1-BF5A-F68DB0880154";
paths = (
{
closed = 1;
nodes = (
"179 0 LINE",
"189 39 OFFCURVE",
"195 70 OFFCURVE",
"198 107 CURVE",
"157 211 LINE SMOOTH",
"135 266 OFFCURVE",
"134 280 OFFCURVE",
"134 300 CURVE SMOOTH",
"134 334 OFFCURVE",
"144 351 OFFCURVE",
"179 389 CURVE",
"137 389 LINE",
"107 355 OFFCURVE",
"86 319 OFFCURVE",
"86 271 CURVE SMOOTH",
"86 216 OFFCURVE",
"100 174 OFFCURVE",
"119 105 CURVE SMOOTH",
"148 0 LINE"
);
},
{
closed = 1;
nodes = (
"236 377 LINE",
"244 393 OFFCURVE",
"244 471 OFFCURVE",
"236 487 CURVE",
"139 486 LINE SMOOTH",
"84 485 OFFCURVE",
"65 499 OFFCURVE",
"55 515 CURVE",
"33 515 LINE",
"22 492 OFFCURVE",
"17 462 OFFCURVE",
"17 438 CURVE SMOOTH",
"17 389 OFFCURVE",
"43 377 OFFCURVE",
"139 377 CURVE SMOOTH"
);
}
);
width = 285;
},
{
background = {
paths = (
{
closed = 1;
nodes = (
"261 549 OFFCURVE",
"220 450 OFFCURVE",
"211 355 CURVE SMOOTH",
"208 312 OFFCURVE",
"217 254 OFFCURVE",
"233 202 CURVE SMOOTH",
"248 152 OFFCURVE",
"249 148 OFFCURVE",
"249 148 CURVE",
"249 88 OFFCURVE",
"252 103 OFFCURVE",
"222 41 CURVE",
"270 -41 LINE",
"293 6 OFFCURVE",
"303 64 OFFCURVE",
"303 148 CURVE SMOOTH",
"303 181 OFFCURVE",
"296 219 OFFCURVE",
"285 256 CURVE SMOOTH",
"268 312 OFFCURVE",
"264 327 OFFCURVE",
"265 339 CURVE SMOOTH",
"269 380 OFFCURVE",
"268 372 OFFCURVE",
"342 411 CURVE",
"316 579 LINE"
);
},
{
closed = 1;
nodes = (
"184 403 OFFCURVE",
"196 398 OFFCURVE",
"250 398 CURVE SMOOTH",
"387 398 LINE",
"387 588 LINE",
"250 588 LINE SMOOTH",
"201 588 OFFCURVE",
"160 596 OFFCURVE",
"152 601 CURVE",
"128 429 LINE"
);
}
);
};
layerId = "E84AB450-BED0-484C-851E-2EB7B7ED9E73";
paths = (
{
closed = 1;
nodes = (
"115 0 LINE",
"140 56 OFFCURVE",
"146 108 OFFCURVE",
"146 158 CURVE",
"143 172 LINE SMOOTH",
"134 214 OFFCURVE",
"114 244 OFFCURVE",
"114 277 CURVE SMOOTH",
"114 288 OFFCURVE",
"114 301 OFFCURVE",
"120 310 CURVE",
"96 310 LINE",
"65 265 OFFCURVE",
"53 218 OFFCURVE",
"53 186 CURVE SMOOTH",
"53 174 OFFCURVE",
"58 129 OFFCURVE",
"69 70 CURVE SMOOTH",
"82 0 LINE"
);
},
{
closed = 1;
nodes = (
"159 300 LINE",
"182 328 OFFCURVE",
"182 461 OFFCURVE",
"158 484 CURVE",
"120 486 LINE SMOOTH",
"93 487 OFFCURVE",
"70 489 OFFCURVE",
"65 512 CURVE",
"38 512 LINE",
"24 475 OFFCURVE",
"15 433 OFFCURVE",
"15 399 CURVE SMOOTH",
"15 321 OFFCURVE",
"42 306 OFFCURVE",
"100 303 CURVE SMOOTH"
);
}
);
width = 214;
},
{
background = {
paths = (
{
closed = 1;
nodes = (
"211 511 OFFCURVE",
"167 441 OFFCURVE",
"158 352 CURVE SMOOTH",
"154 305 OFFCURVE",
"169 252 OFFCURVE",
"182 211 CURVE SMOOTH",
"193 173 OFFCURVE",
"196 158 OFFCURVE",
"196 148 CURVE SMOOTH",
"196 85 OFFCURVE",
"193 70 OFFCURVE",
"172 27 CURVE",
"290 -27 LINE",
"318 32 OFFCURVE",
"326 71 OFFCURVE",
"326 148 CURVE SMOOTH",
"326 178 OFFCURVE",
"316 214 OFFCURVE",
"306 247 CURVE SMOOTH",
"291 299 OFFCURVE",
"286 323 OFFCURVE",
"288 342 CURVE SMOOTH",
"292 389 OFFCURVE",
"312 423 OFFCURVE",
"345 440 CURVE",
"283 550 LINE"
);
},
{
closed = 1;
nodes = (
"135 441 OFFCURVE",
"183 431 OFFCURVE",
"235 431 CURVE SMOOTH",
"372 431 LINE",
"372 555 LINE",
"235 555 LINE SMOOTH",
"198 555 OFFCURVE",
"178 559 OFFCURVE",
"153 571 CURVE",
"97 459 LINE"
);
}
);
};
layerId = "FB8990CA-0F96-4B7B-86A4-9D429D534475";
paths = (
{
closed = 1;
nodes = (
"164 0 LINE",
"199 0 OFFCURVE",
"230 0 OFFCURVE",
"265 0 CURVE",
"212 180 LINE SMOOTH",
"195 239 OFFCURVE",
"193 267 OFFCURVE",
"193 292 CURVE SMOOTH",
"193 326 OFFCURVE",
"201 355 OFFCURVE",
"236 391 CURVE",
"135 391 LINE",
"81 351 OFFCURVE",
"66 312 OFFCURVE",
"66 273 CURVE SMOOTH",
"66 230 OFFCURVE",
"78 179 OFFCURVE",
"100 95 CURVE SMOOTH",
"125 0 LINE"
);
},
{
closed = 1;
nodes = (
"310 374 LINE",
"310 416 OFFCURVE",
"310 459 OFFCURVE",
"310 500 CURVE",
"129 500 LINE SMOOTH",
"115 500 OFFCURVE",
"73 500 OFFCURVE",
"37 500 CURVE",
"10 500 LINE",
"10 479 OFFCURVE",
"10 399 OFFCURVE",
"10 374 CURVE",
"38 374 OFFCURVE",
"93 374 OFFCURVE",
"129 374 CURVE SMOOTH"
);
}
);
width = 350;
}
);
unicode = 05D6;
},
{
color = 4;
glyphname = "het-hb";
lastChange = "2019-06-11 07:29:36 +0000";
layers = (
{
layerId = "D0BE0C1E-19E7-43D2-9BC3-AB141F408D31";
paths = (
{
closed = 1;
nodes = (
"452 0 LINE",
"465 32 OFFCURVE",
"476 65 OFFCURVE",
"486 109 CURVE",
"486 192 OFFCURVE",
"486 270 OFFCURVE",
"484 328 CURVE SMOOTH",
"479 462 OFFCURVE",
"445 500 OFFCURVE",
"309 500 CURVE SMOOTH",
"239 500 LINE SMOOTH",
"180 500 OFFCURVE",
"154 500 OFFCURVE",
"116 516 CURVE",
"93 516 LINE",
"79 487 OFFCURVE",
"71 456 OFFCURVE",
"67 420 CURVE",
"114 400 OFFCURVE",
"160 397 OFFCURVE",
"228 397 CURVE SMOOTH",
"298 397 LINE SMOOTH",
"408 397 OFFCURVE",
"413 379 OFFCURVE",
"417 278 CURVE SMOOTH",
"419 228 OFFCURVE",
"421 152 OFFCURVE",
"424 0 CURVE"
);
},
{
closed = 1;
nodes = (
"129 0 LINE",
"141 31 OFFCURVE",
"151 64 OFFCURVE",
"159 99 CURVE",
"160 151 OFFCURVE",
"163 202 OFFCURVE",
"163 254 CURVE SMOOTH",
"163 311 OFFCURVE",
"167 410 OFFCURVE",
"137 460 CURVE",
"67 420 LINE",
"94 369 OFFCURVE",
"96 349 OFFCURVE",
"95 198 CURVE SMOOTH",
"94 0 LINE"
);
}
);
width = 568;
},
{
layerId = "AFDF4EF8-A213-4348-ACF7-371209F0497C";
paths = (
{
closed = 1;
nodes = (
"410 0 LINE",
"429 56 OFFCURVE",
"444 113 OFFCURVE",
"449 177 CURVE",
"449 251 OFFCURVE",
"448 298 OFFCURVE",
"443 367 CURVE SMOOTH",
"436 466 OFFCURVE",
"395 500 OFFCURVE",
"294 500 CURVE SMOOTH",
"274 500 LINE SMOOTH",
"195 500 OFFCURVE",
"129 501 OFFCURVE",
"88 509 CURVE",
"63 509 LINE",
"47 469 OFFCURVE",
"28 389 OFFCURVE",
"27 336 CURVE",
"85 323 OFFCURVE",
"174 318 OFFCURVE",
"256 318 CURVE SMOOTH",
"276 318 LINE SMOOTH",
"337 318 OFFCURVE",
"347 304 OFFCURVE",
"351 226 CURVE SMOOTH",
"355 156 OFFCURVE",
"358 81 OFFCURVE",
"361 0 CURVE"
);
},
{
closed = 1;
nodes = (
"119 0 LINE",
"135 53 OFFCURVE",
"153 112 OFFCURVE",
"159 177 CURVE",
"159 192 OFFCURVE",
"160 207 OFFCURVE",
"160 222 CURVE SMOOTH",
"160 272 OFFCURVE",
"155 334 OFFCURVE",
"134 372 CURVE",
"27 336 LINE",
"62 277 OFFCURVE",
"64 276 OFFCURVE",
"66 171 CURVE SMOOTH",
"70 0 LINE"
);
}
);
width = 510;
},
{
layerId = "A396904D-C838-4FF7-A96F-91F438939708";
paths = (
{
closed = 1;
nodes = (
"451 0 LINE",
"462 45 OFFCURVE",
"476 100 OFFCURVE",
"482 161 CURVE",
"480 231 OFFCURVE",
"481 309 OFFCURVE",
"477 368 CURVE SMOOTH",
"471 452 OFFCURVE",
"429 500 OFFCURVE",
"303 500 CURVE SMOOTH",
"260 500 LINE SMOOTH",
"176 500 OFFCURVE",
"134 502 OFFCURVE",
"109 512 CURVE",
"82 512 LINE",
"72 487 OFFCURVE",
"53 395 OFFCURVE",
"50 348 CURVE",
"73 339 OFFCURVE",
"150 335 OFFCURVE",
"187 335 CURVE SMOOTH",
"261 335 LINE SMOOTH",
"352 335 OFFCURVE",
"359 320 OFFCURVE",
"362 232 CURVE SMOOTH",
"364 177 OFFCURVE",
"368 68 OFFCURVE",
"368 0 CURVE"
);
},
{
closed = 1;
nodes = (
"167 0 LINE",
"181 53 OFFCURVE",
"183 107 OFFCURVE",
"189 160 CURVE",
"192 222 OFFCURVE",
"185 284 OFFCURVE",
"184 346 CURVE SMOOTH",
"183 399 OFFCURVE",
"173 413 OFFCURVE",
"162 439 CURVE",
"50 348 LINE",
"68 278 OFFCURVE",
"67 238 OFFCURVE",
"69 145 CURVE SMOOTH",
"72 0 LINE"
);
}
);
width = 528;
},
{
layerId = "5539344D-F27C-4FBD-A9E2-D2F022F19CCA";
paths = (
{
closed = 1;
nodes = (
"473 0 LINE",
"478 31 OFFCURVE",
"482 64 OFFCURVE",
"484 104 CURVE",
"487 159 OFFCURVE",
"488 220 OFFCURVE",
"486 296 CURVE SMOOTH",
"482 449 OFFCURVE",
"462 500 OFFCURVE",
"331 500 CURVE SMOOTH",
"254 500 LINE SMOOTH",
"189 500 OFFCURVE",
"129 504 OFFCURVE",
"108 513 CURVE",
"86 513 LINE",
"74 486 OFFCURVE",
"64 456 OFFCURVE",
"61 433 CURVE",
"83 416 OFFCURVE",
"167 411 OFFCURVE",
"213 411 CURVE SMOOTH",
"290 411 LINE SMOOTH",
"401 411 OFFCURVE",
"405 396 OFFCURVE",
"411 278 CURVE SMOOTH",
"418 146 OFFCURVE",
"417 98 OFFCURVE",
"422 0 CURVE"
);
},
{
closed = 1;
nodes = (
"137 0 LINE",
"143 31 OFFCURVE",
"149 65 OFFCURVE",
"151 105 CURVE",
"154 160 OFFCURVE",
"155 225 OFFCURVE",
"153 321 CURVE SMOOTH",
"153 361 OFFCURVE",
"149 414 OFFCURVE",
"134 445 CURVE",
"61 433 LINE",
"81 409 OFFCURVE",
"80 335 OFFCURVE",
"81 272 CURVE SMOOTH",
"86 0 LINE"
);
}
);
width = 568;
},
{
layerId = "798D7B20-9AF4-495F-9307-CAE61518AA1C";
paths = (
{
closed = 1;
nodes = (
"481 0 LINE",
"481 85 OFFCURVE",
"481 131 OFFCURVE",
"481 184 CURVE SMOOTH",
"481 235 OFFCURVE",
"481 257 OFFCURVE",
"481 295 CURVE SMOOTH",
"481 417 OFFCURVE",
"453 477 OFFCURVE",
"310 477 CURVE SMOOTH",
"230 477 LINE SMOOTH",
"188 477 OFFCURVE",
"99 477 OFFCURVE",
"44 477 CURVE",
"25 477 LINE",
"25 455 OFFCURVE",
"25 432 OFFCURVE",
"25 407 CURVE",
"48 407 OFFCURVE",
"184 407 OFFCURVE",
"230 407 CURVE SMOOTH",
"310 407 LINE SMOOTH",
"391 407 OFFCURVE",
"405 382 OFFCURVE",
"405 295 CURVE SMOOTH",
"405 124 OFFCURVE",
"405 188 OFFCURVE",
"405 0 CURVE"
);
},
{
closed = 1;
nodes = (
"157 0 LINE",
"157 94 OFFCURVE",
"157 145 OFFCURVE",
"157 204 CURVE SMOOTH",
"157 285 OFFCURVE",
"157 361 OFFCURVE",
"157 386 CURVE SMOOTH",
"157 409 OFFCURVE",
"157 409 OFFCURVE",
"157 439 CURVE",
"81 438 LINE",
"81 403 OFFCURVE",
"81 392 OFFCURVE",
"81 366 CURVE SMOOTH",
"81 0 LINE"
);
}
);
width = 541;
},
{
layerId = "C42C1682-C410-46D1-BF5A-F68DB0880154";
paths = (
{
closed = 1;
nodes = (
"409 -4 LINE",
"423 36 OFFCURVE",
"437 58 OFFCURVE",
"437 116 CURVE SMOOTH",
"437 162 OFFCURVE",
"427 215 OFFCURVE",
"427 274 CURVE SMOOTH",
"427 476 OFFCURVE",
"399 486 OFFCURVE",
"258 486 CURVE SMOOTH",
"130 486 LINE SMOOTH",
"84 486 OFFCURVE",
"75 492 OFFCURVE",
"65 512 CURVE",
"43 512 LINE",
"32 489 OFFCURVE",
"27 459 OFFCURVE",
"27 435 CURVE SMOOTH",
"27 382 OFFCURVE",
"40 377 OFFCURVE",
"130 377 CURVE SMOOTH",
"258 377 LINE SMOOTH",
"362 377 OFFCURVE",
"382 369 OFFCURVE",
"383 266 CURVE SMOOTH",
"384 171 OFFCURVE",
"380 52 OFFCURVE",
"378 0 CURVE"
);
},
{
closed = 1;
nodes = (
"110 -4 LINE",
"131 35 OFFCURVE",
"139 62 OFFCURVE",
"139 116 CURVE SMOOTH",
"139 159 OFFCURVE",
"132 197 OFFCURVE",
"132 255 CURVE SMOOTH",
"132 317 OFFCURVE",
"135 363 OFFCURVE",
"163 406 CURVE",
"120 406 LINE",
"88 373 OFFCURVE",
"80 312 OFFCURVE",
"80 247 CURVE SMOOTH",
"80 0 LINE"
);
}
);
width = 484;
},
{
layerId = "E84AB450-BED0-484C-851E-2EB7B7ED9E73";
paths = (
{
closed = 1;
nodes = (
"400 0 LINE",
"409 40 OFFCURVE",
"410 74 OFFCURVE",
"410 103 CURVE SMOOTH",
"410 170 OFFCURVE",
"396 206 OFFCURVE",
"396 272 CURVE SMOOTH",
"396 467 OFFCURVE",
"381 486 OFFCURVE",
"257 486 CURVE SMOOTH",
"121 486 LINE SMOOTH",
"91 486 OFFCURVE",
"68 489 OFFCURVE",
"63 512 CURVE",
"32 512 LINE",
"21 475 OFFCURVE",
"20 431 OFFCURVE",
"20 397 CURVE SMOOTH",
"20 321 OFFCURVE",
"52 304 OFFCURVE",
"121 304 CURVE SMOOTH",
"257 304 LINE SMOOTH",
"339 304 OFFCURVE",
"345 299 OFFCURVE",
"345 218 CURVE SMOOTH",
"345 165 OFFCURVE",
"343 83 OFFCURVE",
"351 0 CURVE"
);
},
{
closed = 1;
nodes = (
"128 0 LINE",
"137 40 OFFCURVE",
"138 74 OFFCURVE",
"138 103 CURVE SMOOTH",
"138 146 OFFCURVE",
"132 171 OFFCURVE",
"132 223 CURVE SMOOTH",
"132 269 OFFCURVE",
"137 290 OFFCURVE",
"151 332 CURVE",
"107 331 LINE",
"90 299 OFFCURVE",
"71 244 OFFCURVE",
"73 148 CURVE SMOOTH",
"76 0 LINE"
);
}
);
width = 450;
},
{
layerId = "FB8990CA-0F96-4B7B-86A4-9D429D534475";
paths = (
{
closed = 1;
nodes = (
"530 0 LINE",
"530 47 OFFCURVE",
"530 87 OFFCURVE",
"530 119 CURVE SMOOTH",
"530 172 OFFCURVE",
"530 199 OFFCURVE",
"530 279 CURVE SMOOTH",
"530 459 OFFCURVE",
"477 500 OFFCURVE",
"312 500 CURVE SMOOTH",
"242 500 LINE SMOOTH",
"226 500 OFFCURVE",
"97 500 OFFCURVE",
"50 500 CURVE",
"24 500 LINE",
"24 479 OFFCURVE",
"24 400 OFFCURVE",
"24 374 CURVE",
"73 374 OFFCURVE",
"200 374 OFFCURVE",
"242 374 CURVE SMOOTH",
"312 374 LINE SMOOTH",
"382 374 OFFCURVE",
"394 362 OFFCURVE",
"394 279 CURVE SMOOTH",
"394 108 OFFCURVE",
"394 109 OFFCURVE",
"394 0 CURVE"
);
},
{
closed = 1;
nodes = (
"220 0 LINE",
"220 47 OFFCURVE",
"220 87 OFFCURVE",
"220 119 CURVE SMOOTH",
"220 223 OFFCURVE",
"220 259 OFFCURVE",
"220 365 CURVE",
"220 382 OFFCURVE",
"220 399 OFFCURVE",
"220 416 CURVE",
"84 416 LINE",
"84 392 OFFCURVE",
"84 369 OFFCURVE",
"84 345 CURVE",
"84 0 LINE"
);
}
);
width = 585;
}
);
unicode = 05D7;
},
{
color = 4;
glyphname = "tet-hb";
lastChange = "2019-06-11 07:29:36 +0000";
layers = (
{
layerId = "D0BE0C1E-19E7-43D2-9BC3-AB141F408D31";
paths = (
{
closed = 1;
nodes = (
"388 -5 OFFCURVE",
"480 108 OFFCURVE",
"480 301 CURVE SMOOTH",
"480 439 OFFCURVE",
"430 513 OFFCURVE",
"332 513 CURVE SMOOTH",
"300 513 OFFCURVE",
"270 501 OFFCURVE",
"250 486 CURVE",
"239 463 OFFCURVE",
"226 423 OFFCURVE",
"224 388 CURVE",
"245 388 LINE",
"264 402 OFFCURVE",
"291 410 OFFCURVE",
"321 410 CURVE SMOOTH",
"379 410 OFFCURVE",
"417 370 OFFCURVE",
"417 285 CURVE SMOOTH",
"417 160 OFFCURVE",
"355 94 OFFCURVE",
"268 94 CURVE SMOOTH",
"200 94 OFFCURVE",
"164 130 OFFCURVE",
"153 264 CURVE SMOOTH",
"141 410 OFFCURVE",
"134 459 OFFCURVE",
"95 516 CURVE",
"72 516 LINE",
"58 487 OFFCURVE",
"50 456 OFFCURVE",
"46 420 CURVE",
"79 354 OFFCURVE",
"80 325 OFFCURVE",
"85 238 CURVE SMOOTH",
"96 57 OFFCURVE",
"152 -5 OFFCURVE",
"268 -5 CURVE SMOOTH"
);
}
);
width = 539;
},
{
layerId = "AFDF4EF8-A213-4348-ACF7-371209F0497C";
paths = (
{
closed = 1;
nodes = (
"344 -8 OFFCURVE",
"420 98 OFFCURVE",
"420 307 CURVE SMOOTH",
"420 466 OFFCURVE",
"342 510 OFFCURVE",
"273 510 CURVE SMOOTH",
"240 510 OFFCURVE",
"221 500 OFFCURVE",
"205 487 CURVE",
"194 458 OFFCURVE",
"173 363 OFFCURVE",
"177 309 CURVE",
"198 309 LINE",
"218 321 OFFCURVE",
"237 325 OFFCURVE",
"257 325 CURVE SMOOTH",
"314 325 OFFCURVE",
"339 293 OFFCURVE",
"339 254 CURVE SMOOTH",
"339 193 OFFCURVE",
"298 158 OFFCURVE",
"226 158 CURVE SMOOTH",
"149 158 OFFCURVE",
"131 169 OFFCURVE",
"127 282 CURVE SMOOTH",
"121 428 OFFCURVE",
"114 467 OFFCURVE",
"67 512 CURVE",
"42 512 LINE",
"27 469 OFFCURVE",
"8 390 OFFCURVE",
"7 332 CURVE",
"45 294 OFFCURVE",
"44 286 OFFCURVE",
"51 183 CURVE SMOOTH",
"61 35 OFFCURVE",
"109 -8 OFFCURVE",
"208 -8 CURVE SMOOTH"
);
}
);
width = 471;
},
{
layerId = "A396904D-C838-4FF7-A96F-91F438939708";
paths = (
{
closed = 1;
nodes = (
"393 -8 OFFCURVE",
"498 108 OFFCURVE",
"498 297 CURVE SMOOTH",
"498 456 OFFCURVE",
"431 513 OFFCURVE",
"323 513 CURVE SMOOTH",
"287 513 OFFCURVE",
"261 503 OFFCURVE",
"246 494 CURVE",
"228 441 OFFCURVE",
"218 372 OFFCURVE",
"217 321 CURVE",
"241 321 LINE",
"259 334 OFFCURVE",
"280 341 OFFCURVE",
"301 341 CURVE SMOOTH",
"355 341 OFFCURVE",
"387 309 OFFCURVE",
"387 264 CURVE SMOOTH",
"387 191 OFFCURVE",
"338 151 OFFCURVE",
"260 151 CURVE SMOOTH",
"191 151 OFFCURVE",
"183 164 OFFCURVE",
"179 259 CURVE SMOOTH",
"172 441 OFFCURVE",
"166 447 OFFCURVE",
"95 512 CURVE",
"70 512 LINE",
"55 472 OFFCURVE",
"36 399 OFFCURVE",
"35 346 CURVE",
"73 304 OFFCURVE",
"73 304 OFFCURVE",
"81 213 CURVE SMOOTH",
"96 45 OFFCURVE",
"121 -8 OFFCURVE",
"244 -8 CURVE SMOOTH"
);
}
);
width = 540;
},
{
layerId = "5539344D-F27C-4FBD-A9E2-D2F022F19CCA";
paths = (
{
closed = 1;
nodes = (
"381 -4 OFFCURVE",
"475 109 OFFCURVE",
"475 305 CURVE SMOOTH",
"475 433 OFFCURVE",
"411 513 OFFCURVE",
"316 513 CURVE SMOOTH",
"262 513 OFFCURVE",
"226 497 OFFCURVE",
"208 481 CURVE",
"201 462 OFFCURVE",
"197 422 OFFCURVE",
"197 392 CURVE",
"208 392 LINE",
"230 408 OFFCURVE",
"258 418 OFFCURVE",
"305 418 CURVE SMOOTH",
"364 418 OFFCURVE",
"408 370 OFFCURVE",
"408 298 CURVE SMOOTH",
"408 168 OFFCURVE",
"355 95 OFFCURVE",
"248 95 CURVE SMOOTH",
"165 95 OFFCURVE",
"134 126 OFFCURVE",
"126 247 CURVE SMOOTH",
"115 414 OFFCURVE",
"115 450 OFFCURVE",
"67 513 CURVE",
"45 513 LINE",
"33 486 OFFCURVE",
"23 456 OFFCURVE",
"20 433 CURVE",
"48 378 OFFCURVE",
"53 346 OFFCURVE",
"59 233 CURVE SMOOTH",
"68 67 OFFCURVE",
"126 -4 OFFCURVE",
"247 -4 CURVE SMOOTH"
);
}
);
width = 534;
},
{
layerId = "798D7B20-9AF4-495F-9307-CAE61518AA1C";
paths = (
{
closed = 1;
nodes = (
"394 0 OFFCURVE",
"478 100 OFFCURVE",
"478 263 CURVE SMOOTH",
"478 422 OFFCURVE",
"402 486 OFFCURVE",
"305 486 CURVE SMOOTH",
"271 486 OFFCURVE",
"239 476 OFFCURVE",
"209 460 CURVE",
"209 434 OFFCURVE",
"209 408 OFFCURVE",
"209 382 CURVE",
"219 389 LINE",
"250 407 OFFCURVE",
"275 414 OFFCURVE",
"302 414 CURVE SMOOTH",
"364 414 OFFCURVE",
"402 372 OFFCURVE",
"402 263 CURVE SMOOTH",
"402 140 OFFCURVE",
"357 70 OFFCURVE",
"250 70 CURVE SMOOTH",
"163 70 OFFCURVE",
"127 125 OFFCURVE",
"126 243 CURVE",
"126 321 OFFCURVE",
"126 399 OFFCURVE",
"126 477 CURVE",
"107 477 LINE",
"89 477 OFFCURVE",
"68 477 OFFCURVE",
"50 477 CURVE",
"50 398 OFFCURVE",
"50 321 OFFCURVE",
"50 243 CURVE SMOOTH",
"50 85 OFFCURVE",
"117 0 OFFCURVE",
"250 0 CURVE SMOOTH"
);
}
);
width = 524;
},
{
layerId = "C42C1682-C410-46D1-BF5A-F68DB0880154";
paths = (
{
closed = 1;
nodes = (
"364 -8 OFFCURVE",
"429 104 OFFCURVE",
"429 277 CURVE SMOOTH",
"429 426 OFFCURVE",
"383 492 OFFCURVE",
"307 492 CURVE SMOOTH",
"252 492 OFFCURVE",
"208 463 OFFCURVE",
"189 368 CURVE",
"188 356 OFFCURVE",
"188 344 OFFCURVE",
"189 334 CURVE",
"201 334 LINE",
"229 372 OFFCURVE",
"253 387 OFFCURVE",
"293 387 CURVE SMOOTH",
"350 387 OFFCURVE",
"384 350 OFFCURVE",
"384 277 CURVE SMOOTH",
"384 145 OFFCURVE",
"325 99 OFFCURVE",
"235 99 CURVE SMOOTH",
"152 99 OFFCURVE",
"120 148 OFFCURVE",
"120 265 CURVE SMOOTH",
"120 420 OFFCURVE",
"128 440 OFFCURVE",
"70 496 CURVE",
"46 496 LINE",
"39 472 OFFCURVE",
"29 392 OFFCURVE",
"34 368 CURVE",
"62 347 OFFCURVE",
"73 317 OFFCURVE",
"73 241 CURVE SMOOTH",
"73 65 OFFCURVE",
"137 -8 OFFCURVE",
"235 -8 CURVE SMOOTH"
);
}
);
width = 472;
},
{
layerId = "E84AB450-BED0-484C-851E-2EB7B7ED9E73";
paths = (
{
closed = 1;
nodes = (
"302 -7 OFFCURVE",
"402 79 OFFCURVE",
"402 261 CURVE SMOOTH",
"402 477 OFFCURVE",
"324 494 OFFCURVE",
"283 494 CURVE SMOOTH",
"239 494 OFFCURVE",
"189 463 OFFCURVE",
"181 331 CURVE",
"181 321 OFFCURVE",
"182 308 OFFCURVE",
"182 297 CURVE",
"201 297 LINE",
"226 309 OFFCURVE",
"243 313 OFFCURVE",
"271 313 CURVE SMOOTH",
"308 313 OFFCURVE",
"352 299 OFFCURVE",
"352 253 CURVE SMOOTH",
"352 198 OFFCURVE",
"296 169 OFFCURVE",
"216 169 CURVE SMOOTH",
"140 169 OFFCURVE",
"115 184 OFFCURVE",
"115 351 CURVE SMOOTH",
"115 456 OFFCURVE",
"114 480 OFFCURVE",
"43 492 CURVE",
"22 495 LINE",
"16 463 OFFCURVE",
"14 355 OFFCURVE",
"22 320 CURVE",
"68 311 OFFCURVE",
"71 298 OFFCURVE",
"71 241 CURVE SMOOTH",
"71 38 OFFCURVE",
"114 -7 OFFCURVE",
"199 -7 CURVE SMOOTH"
);
}
);
width = 440;
},
{
layerId = "FB8990CA-0F96-4B7B-86A4-9D429D534475";
paths = (
{
closed = 1;
nodes = (
"442 -10 OFFCURVE",
"537 91 OFFCURVE",
"537 275 CURVE SMOOTH",
"537 434 OFFCURVE",
"466 506 OFFCURVE",
"333 506 CURVE SMOOTH",
"309 506 OFFCURVE",
"269 500 OFFCURVE",
"251 494 CURVE",
"251 452 OFFCURVE",
"251 410 OFFCURVE",
"251 368 CURVE",
"262 372 LINE",
"277 378 OFFCURVE",
"297 382 OFFCURVE",
"313 382 CURVE SMOOTH",
"366 382 OFFCURVE",
"400 349 OFFCURVE",
"400 275 CURVE SMOOTH",
"400 163 OFFCURVE",
"364 128 OFFCURVE",
"295 128 CURVE SMOOTH",
"219 128 OFFCURVE",
"177 160 OFFCURVE",
"177 271 CURVE SMOOTH",
"177 329 OFFCURVE",
"177 415 OFFCURVE",
"177 500 CURVE",
"154 500 LINE",
"116 500 OFFCURVE",
"79 500 OFFCURVE",
"41 500 CURVE",
"41 412 OFFCURVE",
"41 326 OFFCURVE",
"41 269 CURVE SMOOTH",
"41 83 OFFCURVE",
"120 -10 OFFCURVE",
"295 -10 CURVE SMOOTH"
);
}
);
width = 579;
}
);
rightMetricsKey = "samekh-hb";
unicode = 05D8;
},
{
color = 4;
glyphname = "yod-hb";
lastChange = "2019-06-11 07:29:36 +0000";
layers = (
{
layerId = "D0BE0C1E-19E7-43D2-9BC3-AB141F408D31";
paths = (
{
closed = 1;
nodes = (
"138 180 OFFCURVE",
"154 210 OFFCURVE",
"171 250 CURVE SMOOTH",
"196 309 OFFCURVE",
"205 337 OFFCURVE",
"205 368 CURVE SMOOTH",
"205 443 OFFCURVE",
"173 459 OFFCURVE",
"126 487 CURVE SMOOTH",
"106 499 OFFCURVE",
"86 506 OFFCURVE",
"71 512 CURVE",
"47 512 LINE",
"34 483 OFFCURVE",
"24 445 OFFCURVE",
"15 413 CURVE",
"35 403 OFFCURVE",
"58 393 OFFCURVE",
"80 380 CURVE SMOOTH",
"114 360 OFFCURVE",
"132 349 OFFCURVE",
"120 284 CURVE SMOOTH",
"112 241 OFFCURVE",
"104 211 OFFCURVE",
"92 161 CURVE",
"119 154 LINE"
);
}
);
width = 278;
},
{
layerId = "AFDF4EF8-A213-4348-ACF7-371209F0497C";
paths = (
{
closed = 1;
nodes = (
"132 174 OFFCURVE",
"152 214 OFFCURVE",
"164 248 CURVE SMOOTH",
"175 279 OFFCURVE",
"195 326 OFFCURVE",
"195 375 CURVE SMOOTH",
"195 438 OFFCURVE",
"185 459 OFFCURVE",
"132 482 CURVE SMOOTH",
"91 501 OFFCURVE",
"73 508 OFFCURVE",
"68 509 CURVE",
"43 509 LINE",
"26 467 OFFCURVE",
"7 385 OFFCURVE",
"4 329 CURVE",
"28 320 OFFCURVE",
"40 315 OFFCURVE",
"63 305 CURVE SMOOTH",
"88 294 OFFCURVE",
"91 284 OFFCURVE",
"81 239 CURVE SMOOTH",
"72 197 OFFCURVE",
"67 184 OFFCURVE",
"61 158 CURVE",
"115 138 LINE"
);
}
);
width = 251;
},
{
layerId = "A396904D-C838-4FF7-A96F-91F438939708";
paths = (
{
closed = 1;
nodes = (
"178 177 OFFCURVE",
"191 221 OFFCURVE",
"199 256 CURVE SMOOTH",
"208 298 OFFCURVE",
"213 342 OFFCURVE",
"213 378 CURVE SMOOTH",
"213 441 OFFCURVE",
"198 459 OFFCURVE",
"145 482 CURVE SMOOTH",
"104 501 OFFCURVE",
"86 508 OFFCURVE",
"81 509 CURVE",
"56 509 LINE",
"39 467 OFFCURVE",
"20 385 OFFCURVE",
"17 329 CURVE",
"36 322 OFFCURVE",
"44 320 OFFCURVE",
"60 313 CURVE SMOOTH",
"79 305 OFFCURVE",
"83 290 OFFCURVE",
"76 245 CURVE SMOOTH",
"71 211 OFFCURVE",
"66 186 OFFCURVE",
"61 159 CURVE",
"163 138 LINE"
);
}
);
width = 249;
},
{
layerId = "5539344D-F27C-4FBD-A9E2-D2F022F19CCA";
paths = (
{
closed = 1;
nodes = (
"132 191 OFFCURVE",
"148 218 OFFCURVE",
"161 251 CURVE",
"179 294 OFFCURVE",
"197 338 OFFCURVE",
"197 388 CURVE SMOOTH",
"197 420 OFFCURVE",
"189 445 OFFCURVE",
"126 480 CURVE SMOOTH",
"102 494 OFFCURVE",
"77 506 OFFCURVE",
"59 513 CURVE",
"37 513 LINE",
"25 491 OFFCURVE",
"15 461 OFFCURVE",
"8 426 CURVE",
"28 415 OFFCURVE",
"56 403 OFFCURVE",
"76 392 CURVE SMOOTH",
"120 368 OFFCURVE",
"125 360 OFFCURVE",
"105 291 CURVE SMOOTH",
"90 237 OFFCURVE",
"86 228 OFFCURVE",
"73 185 CURVE",
"115 168 LINE"
);
}
);
width = 263;
},
{
layerId = "798D7B20-9AF4-495F-9307-CAE61518AA1C";
paths = (
{
closed = 1;
nodes = (
"166 247 OFFCURVE",
"166 253 OFFCURVE",
"166 264 CURVE SMOOTH",
"166 318 OFFCURVE",
"166 357 OFFCURVE",
"166 386 CURVE SMOOTH",
"166 457 OFFCURVE",
"146 477 OFFCURVE",
"69 477 CURVE SMOOTH",
"46 477 OFFCURVE",
"52 477 OFFCURVE",
"35 477 CURVE",
"22 477 LINE",
"22 455 OFFCURVE",
"22 432 OFFCURVE",
"22 407 CURVE",
"37 407 OFFCURVE",
"52 407 OFFCURVE",
"64 407 CURVE SMOOTH",
"87 407 OFFCURVE",
"90 403 OFFCURVE",
"90 376 CURVE SMOOTH",
"90 273 OFFCURVE",
"90 340 OFFCURVE",
"90 230 CURVE",
"166 230 LINE"
);
}
);
width = 225;
},
{
layerId = "C42C1682-C410-46D1-BF5A-F68DB0880154";
paths = (
{
closed = 1;
nodes = (
"126 177 OFFCURVE",
"138 190 OFFCURVE",
"151 211 CURVE SMOOTH",
"166 236 OFFCURVE",
"183 280 OFFCURVE",
"183 339 CURVE SMOOTH",
"183 463 OFFCURVE",
"166 486 OFFCURVE",
"89 486 CURVE SMOOTH",
"62 486 OFFCURVE",
"56 497 OFFCURVE",
"50 512 CURVE",
"28 512 LINE",
"17 489 OFFCURVE",
"15 467 OFFCURVE",
"15 444 CURVE SMOOTH",
"15 392 OFFCURVE",
"28 377 OFFCURVE",
"79 377 CURVE SMOOTH",
"123 377 OFFCURVE",
"135 372 OFFCURVE",
"135 314 CURVE SMOOTH",
"135 267 OFFCURVE",
"123 230 OFFCURVE",
"82 184 CURVE",
"104 161 LINE"
);
}
);
width = 244;
},
{
layerId = "E84AB450-BED0-484C-851E-2EB7B7ED9E73";
paths = (
{
closed = 1;
nodes = (
"114 157 OFFCURVE",
"134 174 OFFCURVE",
"151 203 CURVE SMOOTH",
"171 236 OFFCURVE",
"182 274 OFFCURVE",
"182 363 CURVE SMOOTH",
"182 468 OFFCURVE",
"149 486 OFFCURVE",
"79 486 CURVE SMOOTH",
"64 486 OFFCURVE",
"52 489 OFFCURVE",
"47 512 CURVE",
"16 512 LINE",
"5 475 OFFCURVE",
"4 431 OFFCURVE",
"4 397 CURVE SMOOTH",
"4 319 OFFCURVE",
"36 304 OFFCURVE",
"69 304 CURVE SMOOTH",
"97 304 OFFCURVE",
"109 294 OFFCURVE",
"109 265 CURVE SMOOTH",
"109 225 OFFCURVE",
"93 204 OFFCURVE",
"60 175 CURVE",
"86 141 LINE"
);
}
);
width = 235;
},
{
layerId = "FB8990CA-0F96-4B7B-86A4-9D429D534475";
paths = (
{
closed = 1;
nodes = (
"221 219 OFFCURVE",
"221 229 OFFCURVE",
"221 239 CURVE SMOOTH",
"221 284 OFFCURVE",
"221 319 OFFCURVE",
"221 365 CURVE SMOOTH",
"221 469 OFFCURVE",
"191 500 OFFCURVE",
"103 500 CURVE SMOOTH",
"72 500 OFFCURVE",
"65 500 OFFCURVE",
"33 500 CURVE",
"19 500 LINE",
"19 479 OFFCURVE",
"19 400 OFFCURVE",
"19 374 CURVE",
"32 374 OFFCURVE",
"40 374 OFFCURVE",
"51 374 CURVE SMOOTH",
"76 374 OFFCURVE",
"85 371 OFFCURVE",
"85 345 CURVE SMOOTH",
"85 270 OFFCURVE",
"85 281 OFFCURVE",
"85 207 CURVE",
"221 207 LINE"
);
}
);
width = 276;
}
);
unicode = 05D9;
},
{
color = 4;
glyphname = "finalkaf-hb";
lastChange = "2019-06-11 07:29:36 +0000";
layers = (
{
layerId = "D0BE0C1E-19E7-43D2-9BC3-AB141F408D31";
paths = (
{
closed = 1;
nodes = (
"307 -150 LINE",
"320 -118 OFFCURVE",
"331 -85 OFFCURVE",
"341 -41 CURVE",
"341 54 OFFCURVE",
"342 268 OFFCURVE",
"340 357 CURVE SMOOTH",
"336 471 OFFCURVE",
"300 500 OFFCURVE",
"174 500 CURVE SMOOTH",
"95 500 OFFCURVE",
"85 500 OFFCURVE",
"52 516 CURVE",
"29 516 LINE",
"15 487 OFFCURVE",
"7 456 OFFCURVE",
"3 420 CURVE",
"39 400 OFFCURVE",
"77 397 OFFCURVE",
"163 397 CURVE SMOOTH",
"263 397 OFFCURVE",
"267 388 OFFCURVE",
"271 307 CURVE SMOOTH",
"274 228 OFFCURVE",
"276 21 OFFCURVE",
"279 -150 CURVE"
);
}
);
width = 423;
},
{
layerId = "AFDF4EF8-A213-4348-ACF7-371209F0497C";
paths = (
{
closed = 1;
nodes = (
"301 -150 LINE",
"316 -94 OFFCURVE",
"331 -37 OFFCURVE",
"340 27 CURVE",
"340 159 OFFCURVE",
"339 244 OFFCURVE",
"334 367 CURVE SMOOTH",
"327 465 OFFCURVE",
"287 500 OFFCURVE",
"175 500 CURVE SMOOTH",
"93 500 OFFCURVE",
"85 501 OFFCURVE",
"65 509 CURVE",
"40 509 LINE",
"24 469 OFFCURVE",
"5 389 OFFCURVE",
"4 336 CURVE",
"58 323 OFFCURVE",
"84 318 OFFCURVE",
"167 318 CURVE SMOOTH",
"238 318 OFFCURVE",
"248 304 OFFCURVE",
"252 226 CURVE SMOOTH",
"256 110 OFFCURVE",
"259 -15 OFFCURVE",
"262 -150 CURVE"
);
}
);
width = 401;
},
{
layerId = "A396904D-C838-4FF7-A96F-91F438939708";
paths = (
{
closed = 1;
nodes = (
"355 -150 LINE",
"366 -105 OFFCURVE",
"380 -50 OFFCURVE",
"386 11 CURVE",
"386 131 OFFCURVE",
"385 271 OFFCURVE",
"381 378 CURVE SMOOTH",
"376 456 OFFCURVE",
"332 500 OFFCURVE",
"197 500 CURVE SMOOTH",
"117 500 OFFCURVE",
"102 502 OFFCURVE",
"72 512 CURVE",
"45 512 LINE",
"35 487 OFFCURVE",
"16 395 OFFCURVE",
"13 348 CURVE",
"41 339 OFFCURVE",
"91 335 OFFCURVE",
"138 335 CURVE SMOOTH",
"252 335 OFFCURVE",
"263 318 OFFCURVE",
"266 232 CURVE SMOOTH",
"268 146 OFFCURVE",
"272 -20 OFFCURVE",
"272 -150 CURVE"
);
}
);
width = 432;
},
{
layerId = "5539344D-F27C-4FBD-A9E2-D2F022F19CCA";
paths = (
{
closed = 1;
nodes = (
"353 -150 LINE",
"358 -119 OFFCURVE",
"362 -86 OFFCURVE",
"364 -46 CURVE",
"367 52 OFFCURVE",
"368 161 OFFCURVE",
"366 296 CURVE SMOOTH",
"362 449 OFFCURVE",
"342 500 OFFCURVE",
"181 500 CURVE SMOOTH",
"106 500 OFFCURVE",
"66 504 OFFCURVE",
"45 513 CURVE",
"23 513 LINE",
"11 486 OFFCURVE",
"1 456 OFFCURVE",
"-2 433 CURVE",
"21 416 OFFCURVE",
"84 411 OFFCURVE",
"140 411 CURVE SMOOTH",
"281 411 OFFCURVE",
"285 396 OFFCURVE",
"291 278 CURVE SMOOTH",
"298 75 OFFCURVE",
"297 1 OFFCURVE",
"302 -150 CURVE"
);
}
);
width = 448;
},
{
layerId = "798D7B20-9AF4-495F-9307-CAE61518AA1C";
paths = (
{
closed = 1;
nodes = (
"344 -150 LINE",
"344 -72 OFFCURVE",
"344 -30 OFFCURVE",
"344 18 CURVE SMOOTH",
"344 145 OFFCURVE",
"344 200 OFFCURVE",
"344 295 CURVE SMOOTH",
"344 417 OFFCURVE",
"316 477 OFFCURVE",
"193 477 CURVE SMOOTH",
"141 477 OFFCURVE",
"92 477 OFFCURVE",
"37 477 CURVE",
"18 477 LINE",
"18 455 OFFCURVE",
"18 432 OFFCURVE",
"18 407 CURVE",
"41 407 OFFCURVE",
"137 407 OFFCURVE",
"193 407 CURVE SMOOTH",
"254 407 OFFCURVE",
"268 382 OFFCURVE",
"268 295 CURVE SMOOTH",
"268 37 OFFCURVE",
"268 134 OFFCURVE",
"268 -150 CURVE"
);
}
);
width = 404;
},
{
layerId = "C42C1682-C410-46D1-BF5A-F68DB0880154";
paths = (
{
closed = 1;
nodes = (
"326 -154 LINE",
"340 -114 OFFCURVE",
"354 -92 OFFCURVE",
"354 -34 CURVE SMOOTH",
"354 59 OFFCURVE",
"342 165 OFFCURVE",
"342 284 CURVE SMOOTH",
"342 476 OFFCURVE",
"324 486 OFFCURVE",
"173 486 CURVE SMOOTH",
"77 486 OFFCURVE",
"68 492 OFFCURVE",
"58 512 CURVE",
"36 512 LINE",
"25 489 OFFCURVE",
"20 459 OFFCURVE",
"20 435 CURVE SMOOTH",
"20 382 OFFCURVE",
"33 377 OFFCURVE",
"173 377 CURVE SMOOTH",
"281 377 OFFCURVE",
"297 359 OFFCURVE",
"298 276 CURVE SMOOTH",
"299 125 OFFCURVE",
"285 5 OFFCURVE",
"292 -150 CURVE"
);
}
);
width = 401;
},
{
layerId = "E84AB450-BED0-484C-851E-2EB7B7ED9E73";
paths = (
{
closed = 1;
nodes = (
"313 -150 LINE",
"324 -110 OFFCURVE",
"327 -76 OFFCURVE",
"327 -47 CURVE SMOOTH",
"327 49 OFFCURVE",
"313 147 OFFCURVE",
"313 272 CURVE SMOOTH",
"313 467 OFFCURVE",
"299 486 OFFCURVE",
"136 486 CURVE SMOOTH",
"79 486 OFFCURVE",
"56 489 OFFCURVE",
"51 512 CURVE",
"20 512 LINE",
"9 475 OFFCURVE",
"8 431 OFFCURVE",
"8 397 CURVE SMOOTH",
"8 321 OFFCURVE",
"40 304 OFFCURVE",
"136 304 CURVE SMOOTH",
"258 304 OFFCURVE",
"262 299 OFFCURVE",
"262 248 CURVE SMOOTH",
"262 115 OFFCURVE",
"248 -17 OFFCURVE",
"264 -150 CURVE"
);
}
);
width = 367;
},
{
layerId = "FB8990CA-0F96-4B7B-86A4-9D429D534475";
paths = (
{
closed = 1;
nodes = (
"390 -150 LINE",
"390 -103 OFFCURVE",
"390 -63 OFFCURVE",
"390 -31 CURVE SMOOTH",
"390 22 OFFCURVE",
"390 199 OFFCURVE",
"390 279 CURVE SMOOTH",
"390 459 OFFCURVE",
"337 500 OFFCURVE",
"162 500 CURVE SMOOTH",
"136 500 OFFCURVE",
"87 500 OFFCURVE",
"40 500 CURVE",
"14 500 LINE",
"14 479 OFFCURVE",
"14 400 OFFCURVE",
"14 374 CURVE",
"63 374 OFFCURVE",
"110 374 OFFCURVE",
"162 374 CURVE SMOOTH",
"242 374 OFFCURVE",
"254 362 OFFCURVE",
"254 279 CURVE SMOOTH",
"254 108 OFFCURVE",
"254 -41 OFFCURVE",
"254 -150 CURVE"
);
}
);
width = 445;
}
);
leftMetricsKey = "dalet-hb";
rightMetricsKey = "resh-hb";
unicode = 05DA;
},
{
color = 4;
glyphname = "kaf-hb";
lastChange = "2019-06-11 07:29:36 +0000";
layers = (
{
layerId = "D0BE0C1E-19E7-43D2-9BC3-AB141F408D31";
paths = (
{
closed = 1;
nodes = (
"106 0 OFFCURVE",
"165 0 OFFCURVE",
"219 0 CURVE SMOOTH",
"335 0 OFFCURVE",
"387 67 OFFCURVE",
"387 197 CURVE SMOOTH",
"387 237 OFFCURVE",
"387 277 OFFCURVE",
"387 317 CURVE SMOOTH",
"387 465 OFFCURVE",
"319 500 OFFCURVE",
"233 500 CURVE SMOOTH",
"191 500 LINE SMOOTH",
"142 500 OFFCURVE",
"132 500 OFFCURVE",
"99 516 CURVE",
"76 516 LINE",
"62 487 OFFCURVE",
"54 456 OFFCURVE",
"50 420 CURVE",
"86 400 OFFCURVE",
"124 397 OFFCURVE",
"180 397 CURVE SMOOTH",
"222 397 LINE SMOOTH",
"300 397 OFFCURVE",
"324 356 OFFCURVE",
"324 301 CURVE SMOOTH",
"324 274 OFFCURVE",
"324 245 OFFCURVE",
"324 209 CURVE SMOOTH",
"324 116 OFFCURVE",
"304 100 OFFCURVE",
"219 100 CURVE SMOOTH",
"170 100 OFFCURVE",
"117 100 OFFCURVE",
"68 100 CURVE",
"62 82 OFFCURVE",
"53 21 OFFCURVE",
"52 0 CURVE"
);
}
);
width = 466;
},
{
layerId = "AFDF4EF8-A213-4348-ACF7-371209F0497C";
paths = (
{
closed = 1;
nodes = (
"82 -2 OFFCURVE",
"137 0 OFFCURVE",
"190 0 CURVE SMOOTH",
"331 0 OFFCURVE",
"358 55 OFFCURVE",
"358 204 CURVE SMOOTH",
"358 237 OFFCURVE",
"358 253 OFFCURVE",
"358 284 CURVE SMOOTH",
"358 443 OFFCURVE",
"315 500 OFFCURVE",
"196 500 CURVE SMOOTH",
"149 500 LINE SMOOTH",
"131 500 OFFCURVE",
"107 501 OFFCURVE",
"89 509 CURVE",
"64 509 LINE",
"48 470 OFFCURVE",
"29 392 OFFCURVE",
"28 335 CURVE",
"75 324 OFFCURVE",
"113 323 OFFCURVE",
"146 322 CURVE SMOOTH",
"200 321 LINE SMOOTH",
"246 320 OFFCURVE",
"271 303 OFFCURVE",
"271 256 CURVE SMOOTH",
"271 247 OFFCURVE",
"271 240 OFFCURVE",
"271 232 CURVE SMOOTH",
"271 191 OFFCURVE",
"248 176 OFFCURVE",
"207 176 CURVE SMOOTH",
"153 176 OFFCURVE",
"89 176 OFFCURVE",
"39 176 CURVE",
"30 139 OFFCURVE",
"13 50 OFFCURVE",
"11 0 CURVE"
);
}
);
width = 416;
},
{
layerId = "A396904D-C838-4FF7-A96F-91F438939708";
paths = (
{
closed = 1;
nodes = (
"89 0 OFFCURVE",
"149 0 OFFCURVE",
"207 0 CURVE SMOOTH",
"322 0 OFFCURVE",
"387 51 OFFCURVE",
"387 228 CURVE SMOOTH",
"387 241 OFFCURVE",
"387 259 OFFCURVE",
"387 272 CURVE SMOOTH",
"387 458 OFFCURVE",
"315 500 OFFCURVE",
"198 500 CURVE SMOOTH",
"178 500 LINE SMOOTH",
"132 500 OFFCURVE",
"120 502 OFFCURVE",
"100 512 CURVE",
"73 512 LINE",
"63 487 OFFCURVE",
"44 395 OFFCURVE",
"41 348 CURVE",
"67 339 OFFCURVE",
"112 335 OFFCURVE",
"146 335 CURVE SMOOTH",
"172 335 LINE SMOOTH",
"252 335 OFFCURVE",
"272 310 OFFCURVE",
"272 257 CURVE SMOOTH",
"272 252 OFFCURVE",
"272 247 OFFCURVE",
"272 242 CURVE SMOOTH",
"272 187 OFFCURVE",
"247 167 OFFCURVE",
"192 167 CURVE SMOOTH",
"147 167 OFFCURVE",
"101 167 OFFCURVE",
"57 167 CURVE",
"50 138 OFFCURVE",
"35 44 OFFCURVE",
"32 0 CURVE"
);
}
);
width = 443;
},
{
layerId = "5539344D-F27C-4FBD-A9E2-D2F022F19CCA";
paths = (
{
closed = 1;
nodes = (
"104 0 OFFCURVE",
"132 0 OFFCURVE",
"183 0 CURVE SMOOTH",
"350 0 OFFCURVE",
"389 76 OFFCURVE",
"389 201 CURVE SMOOTH",
"389 228 OFFCURVE",
"389 258 OFFCURVE",
"389 289 CURVE SMOOTH",
"389 447 OFFCURVE",
"339 500 OFFCURVE",
"212 500 CURVE SMOOTH",
"202 500 LINE SMOOTH",
"142 500 OFFCURVE",
"105 504 OFFCURVE",
"86 513 CURVE",
"64 513 LINE",
"52 486 OFFCURVE",
"42 456 OFFCURVE",
"39 433 CURVE",
"62 416 OFFCURVE",
"125 411 OFFCURVE",
"171 411 CURVE SMOOTH",
"181 411 LINE SMOOTH",
"284 411 OFFCURVE",
"320 396 OFFCURVE",
"320 278 CURVE SMOOTH",
"320 254 OFFCURVE",
"320 233 OFFCURVE",
"320 213 CURVE SMOOTH",
"320 121 OFFCURVE",
"301 89 OFFCURVE",
"183 89 CURVE SMOOTH",
"143 89 OFFCURVE",
"116 89 OFFCURVE",
"53 89 CURVE",
"47 67 OFFCURVE",
"38 17 OFFCURVE",
"39 0 CURVE"
);
}
);
width = 458;
},
{
layerId = "798D7B20-9AF4-495F-9307-CAE61518AA1C";
paths = (
{
closed = 1;
nodes = (
"86 0 OFFCURVE",
"125 0 OFFCURVE",
"159 0 CURVE SMOOTH",
"324 0 OFFCURVE",
"386 79 OFFCURVE",
"386 188 CURVE SMOOTH",
"386 215 OFFCURVE",
"386 238 OFFCURVE",
"386 265 CURVE SMOOTH",
"386 400 OFFCURVE",
"338 477 OFFCURVE",
"185 477 CURVE SMOOTH",
"163 477 LINE SMOOTH",
"130 477 OFFCURVE",
"99 477 OFFCURVE",
"64 477 CURVE",
"46 477 LINE",
"46 455 OFFCURVE",
"46 432 OFFCURVE",
"46 407 CURVE",
"62 407 OFFCURVE",
"125 407 OFFCURVE",
"163 407 CURVE SMOOTH",
"185 407 LINE SMOOTH",
"276 407 OFFCURVE",
"310 368 OFFCURVE",
"310 265 CURVE SMOOTH",
"310 238 OFFCURVE",
"310 215 OFFCURVE",
"310 188 CURVE SMOOTH",
"310 113 OFFCURVE",
"267 70 OFFCURVE",
"159 70 CURVE SMOOTH",
"125 70 OFFCURVE",
"86 70 OFFCURVE",
"46 70 CURVE",
"46 50 OFFCURVE",
"46 25 OFFCURVE",
"46 0 CURVE"
);
}
);
width = 438;
},
{
layerId = "C42C1682-C410-46D1-BF5A-F68DB0880154";
paths = (
{
closed = 1;
nodes = (
"106 0 OFFCURVE",
"152 0 OFFCURVE",
"194 0 CURVE SMOOTH",
"334 0 OFFCURVE",
"365 77 OFFCURVE",
"365 211 CURVE SMOOTH",
"365 230 OFFCURVE",
"365 250 OFFCURVE",
"365 270 CURVE SMOOTH",
"365 460 OFFCURVE",
"323 486 OFFCURVE",
"198 486 CURVE SMOOTH",
"144 486 LINE SMOOTH",
"105 486 OFFCURVE",
"96 492 OFFCURVE",
"86 512 CURVE",
"64 512 LINE",
"53 489 OFFCURVE",
"48 459 OFFCURVE",
"48 435 CURVE SMOOTH",
"48 382 OFFCURVE",
"61 377 OFFCURVE",
"144 377 CURVE SMOOTH",
"198 377 LINE SMOOTH",
"305 377 OFFCURVE",
"320 353 OFFCURVE",
"320 262 CURVE SMOOTH",
"320 249 OFFCURVE",
"320 235 OFFCURVE",
"320 222 CURVE SMOOTH",
"320 136 OFFCURVE",
"298 107 OFFCURVE",
"194 107 CURVE SMOOTH",
"159 107 OFFCURVE",
"109 107 OFFCURVE",
"56 107 CURVE",
"48 91 OFFCURVE",
"48 16 OFFCURVE",
"56 0 CURVE"
);
}
);
width = 425;
},
{
layerId = "E84AB450-BED0-484C-851E-2EB7B7ED9E73";
paths = (
{
closed = 1;
nodes = (
"106 0 OFFCURVE",
"142 0 OFFCURVE",
"192 0 CURVE SMOOTH",
"315 0 OFFCURVE",
"342 39 OFFCURVE",
"342 222 CURVE SMOOTH",
"342 237 OFFCURVE",
"342 253 OFFCURVE",
"342 270 CURVE SMOOTH",
"342 467 OFFCURVE",
"296 486 OFFCURVE",
"179 486 CURVE SMOOTH",
"159 486 LINE SMOOTH",
"112 486 OFFCURVE",
"89 489 OFFCURVE",
"84 512 CURVE",
"53 512 LINE",
"42 478 OFFCURVE",
"41 437 OFFCURVE",
"41 396 CURVE SMOOTH",
"41 325 OFFCURVE",
"73 307 OFFCURVE",
"159 307 CURVE SMOOTH",
"203 307 LINE SMOOTH",
"264 307 OFFCURVE",
"290 291 OFFCURVE",
"290 250 CURVE SMOOTH",
"290 246 OFFCURVE",
"290 240 OFFCURVE",
"290 236 CURVE SMOOTH",
"290 197 OFFCURVE",
"265 180 OFFCURVE",
"203 180 CURVE SMOOTH",
"142 180 OFFCURVE",
"109 180 OFFCURVE",
"56 180 CURVE",
"47 157 OFFCURVE",
"46 27 OFFCURVE",
"55 0 CURVE"
);
}
);
width = 384;
},
{
layerId = "FB8990CA-0F96-4B7B-86A4-9D429D534475";
paths = (
{
closed = 1;
nodes = (
"77 0 OFFCURVE",
"106 0 OFFCURVE",
"164 0 CURVE SMOOTH",
"348 0 OFFCURVE",
"423 74 OFFCURVE",
"423 229 CURVE SMOOTH",
"423 241 OFFCURVE",
"423 257 OFFCURVE",
"423 269 CURVE SMOOTH",
"423 432 OFFCURVE",
"363 500 OFFCURVE",
"164 500 CURVE SMOOTH",
"143 500 LINE SMOOTH",
"119 500 OFFCURVE",
"105 500 OFFCURVE",
"71 500 CURVE",
"45 500 LINE",
"45 479 OFFCURVE",
"45 400 OFFCURVE",
"45 374 CURVE",
"69 374 OFFCURVE",
"92 374 OFFCURVE",
"116 374 CURVE",
"164 374 LINE SMOOTH",
"247 374 OFFCURVE",
"286 361 OFFCURVE",
"286 269 CURVE SMOOTH",
"286 257 OFFCURVE",
"286 241 OFFCURVE",
"286 229 CURVE SMOOTH",
"286 166 OFFCURVE",
"247 138 OFFCURVE",
"164 138 CURVE SMOOTH",
"127 138 OFFCURVE",
"88 138 OFFCURVE",
"45 138 CURVE",
"45 92 OFFCURVE",
"45 46 OFFCURVE",
"45 0 CURVE"
);
}
);
width = 470;
}
);
leftMetricsKey = "bet-hb";
unicode = 05DB;
},
{
color = 4;
glyphname = "lamed-hb";
lastChange = "2019-06-11 07:29:36 +0000";
layers = (
{
associatedMasterId = "D0BE0C1E-19E7-43D2-9BC3-AB141F408D31";
layerId = "0D2F9F62-6D50-490D-B425-4005BBEB55D2";
name = Paths;
paths = (
{
closed = 0;
nodes = (
"280 0 LINE",
"380 80 LINE SMOOTH",
"482 161 OFFCURVE",
"537 244 OFFCURVE",
"537 364 CURVE SMOOTH",
"537 481 OFFCURVE",
"492 500 OFFCURVE",
"405 500 CURVE SMOOTH",
"230 500 LINE SMOOTH",
"184 500 OFFCURVE",
"162 526 OFFCURVE",
"161 578 CURVE SMOOTH",
"158 743 LINE"
);
}
);
width = 700;
},
{
layerId = "D0BE0C1E-19E7-43D2-9BC3-AB141F408D31";
paths = (
{
closed = 1;
nodes = (
"122 -4 LINE",
"205 54 LINE SMOOTH",
"345 152 OFFCURVE",
"379 211 OFFCURVE",
"379 365 CURVE SMOOTH",
"379 472 OFFCURVE",
"348 500 OFFCURVE",
"257 500 CURVE SMOOTH",
"131 500 LINE SMOOTH",
"93 500 OFFCURVE",
"81 519 OFFCURVE",
"81 550 CURVE SMOOTH",
"81 604 OFFCURVE",
"83 658 OFFCURVE",
"66 712 CURVE",
"40 712 LINE",
"26 682 OFFCURVE",
"17 647 OFFCURVE",
"12 607 CURVE",
"29 564 OFFCURVE",
"27 521 OFFCURVE",
"27 478 CURVE SMOOTH",
"27 425 OFFCURVE",
"51 397 OFFCURVE",
"91 397 CURVE SMOOTH",
"222 397 LINE SMOOTH",
"303 397 OFFCURVE",
"311 382 OFFCURVE",
"316 312 CURVE SMOOTH",
"322 219 OFFCURVE",
"309 203 OFFCURVE",
"202 140 CURVE SMOOTH",
"119 91 LINE",
"110 64 OFFCURVE",
"103 33 OFFCURVE",
"101 2 CURVE"
);
}
);
width = 432;
},
{
layerId = "AFDF4EF8-A213-4348-ACF7-371209F0497C";
paths = (
{
closed = 1;
nodes = (
"101 -12 LINE",
"151 9 LINE SMOOTH",
"308 75 OFFCURVE",
"356 211 OFFCURVE",
"356 345 CURVE SMOOTH",
"356 472 OFFCURVE",
"325 500 OFFCURVE",
"234 500 CURVE SMOOTH",
"145 500 LINE SMOOTH",
"107 500 OFFCURVE",
"94 514 OFFCURVE",
"92 550 CURVE SMOOTH",
"89 593 OFFCURVE",
"89 617 OFFCURVE",
"89 652 CURVE",
"49 652 LINE",
"37 634 OFFCURVE",
"29 614 OFFCURVE",
"20 593 CURVE",
"11 519 OFFCURVE",
"13 479 OFFCURVE",
"13 407 CURVE SMOOTH",
"13 329 OFFCURVE",
"42 318 OFFCURVE",
"108 318 CURVE SMOOTH",
"219 318 LINE SMOOTH",
"261 318 OFFCURVE",
"274 310 OFFCURVE",
"276 285 CURVE SMOOTH",
"279 246 OFFCURVE",
"245 226 OFFCURVE",
"186 201 CURVE SMOOTH",
"98 164 LINE",
"83 112 OFFCURVE",
"74 58 OFFCURVE",
"70 -3 CURVE"
);
}
);
width = 408;
},
{
background = {
paths = (
{
closed = 1;
nodes = (
"147 151 LINE",
"304 189 LINE SMOOTH",
"341 266 OFFCURVE",
"401 289 OFFCURVE",
"401 363 CURVE SMOOTH",
"401 480 OFFCURVE",
"355 500 OFFCURVE",
"269 500 CURVE SMOOTH",
"213 500 LINE SMOOTH",
"167 500 OFFCURVE",
"145 526 OFFCURVE",
"144 578 CURVE SMOOTH",
"141 743 LINE",
"21 582 LINE",
"24 417 LINE SMOOTH",
"25 365 OFFCURVE",
"47 339 OFFCURVE",
"93 339 CURVE SMOOTH",
"198 339 LINE SMOOTH",
"265 339 OFFCURVE",
"280 331 OFFCURVE",
"280 283 CURVE SMOOTH",
"280 163 OFFCURVE",
"269 55 OFFCURVE",
"183 -1 CURVE SMOOTH",
"83 -41 LINE"
);
}
);
};
layerId = "A396904D-C838-4FF7-A96F-91F438939708";
paths = (
{
closed = 1;
nodes = (
"98 -7 LINE",
"170 24 LINE SMOOTH",
"320 88 OFFCURVE",
"399 209 OFFCURVE",
"399 351 CURVE SMOOTH",
"399 460 OFFCURVE",
"357 500 OFFCURVE",
"256 500 CURVE SMOOTH",
"196 500 LINE SMOOTH",
"155 500 OFFCURVE",
"145 509 OFFCURVE",
"143 550 CURVE SMOOTH",
"141 585 OFFCURVE",
"140 611 OFFCURVE",
"140 650 CURVE",
"112 650 LINE",
"80 643 OFFCURVE",
"48 634 OFFCURVE",
"24 622 CURVE",
"17 535 OFFCURVE",
"17 494 OFFCURVE",
"17 429 CURVE SMOOTH",
"17 347 OFFCURVE",
"58 335 OFFCURVE",
"123 335 CURVE SMOOTH",
"217 335 LINE SMOOTH",
"259 335 OFFCURVE",
"273 326 OFFCURVE",
"273 292 CURVE SMOOTH",
"273 245 OFFCURVE",
"237 223 OFFCURVE",
"158 193 CURVE SMOOTH",
"94 169 LINE",
"82 117 OFFCURVE",
"72 63 OFFCURVE",
"69 2 CURVE"
);
}
);
width = 441;
},
{
background = {
paths = (
{
closed = 1;
nodes = (
"136 59 LINE",
"237 139 LINE SMOOTH",
"340 203 OFFCURVE",
"394 268 OFFCURVE",
"394 363 CURVE SMOOTH",
"394 480 OFFCURVE",
"348 500 OFFCURVE",
"262 500 CURVE SMOOTH",
"166 500 LINE SMOOTH",
"120 500 OFFCURVE",
"98 526 OFFCURVE",
"97 578 CURVE SMOOTH",
"94 743 LINE",
"19 652 LINE",
"22 487 LINE SMOOTH",
"23 435 OFFCURVE",
"45 409 OFFCURVE",
"91 409 CURVE SMOOTH",
"186 409 LINE SMOOTH",
"273 409 OFFCURVE",
"318 390 OFFCURVE",
"318 273 CURVE SMOOTH",
"318 178 OFFCURVE",
"263 130 OFFCURVE",
"161 49 CURVE SMOOTH",
"61 -31 LINE"
);
}
);
};
layerId = "5539344D-F27C-4FBD-A9E2-D2F022F19CCA";
paths = (
{
closed = 1;
nodes = (
"134 -2 LINE",
"204 44 LINE SMOOTH",
"371 154 OFFCURVE",
"381 232 OFFCURVE",
"381 351 CURVE SMOOTH",
"381 462 OFFCURVE",
"335 500 OFFCURVE",
"236 500 CURVE SMOOTH",
"140 500 LINE SMOOTH",
"87 500 OFFCURVE",
"85 502 OFFCURVE",
"85 550 CURVE SMOOTH",
"85 604 OFFCURVE",
"83 657 OFFCURVE",
"62 711 CURVE",
"40 717 LINE",
"18 684 OFFCURVE",
"6 647 OFFCURVE",
"-4 611 CURVE",
"16 564 OFFCURVE",
"17 541 OFFCURVE",
"17 488 CURVE SMOOTH",
"17 427 OFFCURVE",
"31 411 OFFCURVE",
"97 411 CURVE SMOOTH",
"214 411 LINE SMOOTH",
"295 411 OFFCURVE",
"304 398 OFFCURVE",
"309 326 CURVE SMOOTH",
"314 244 OFFCURVE",
"308 198 OFFCURVE",
"175 126 CURVE SMOOTH",
"118 95 LINE",
"106 70 OFFCURVE",
"100 31 OFFCURVE",
"102 2 CURVE"
);
}
);
width = 437;
},
{
layerId = "798D7B20-9AF4-495F-9307-CAE61518AA1C";
paths = (
{
closed = 1;
nodes = (
"212 0 LINE",
"294 146 LINE SMOOTH",
"348 242 OFFCURVE",
"368 307 OFFCURVE",
"368 351 CURVE SMOOTH",
"368 434 OFFCURVE",
"326 477 OFFCURVE",
"216 477 CURVE SMOOTH",
"114 477 LINE SMOOTH",
"100 477 OFFCURVE",
"95 482 OFFCURVE",
"95 499 CURVE SMOOTH",
"95 539 OFFCURVE",
"95 577 OFFCURVE",
"95 615 CURVE",
"69 615 LINE",
"53 615 OFFCURVE",
"36 615 OFFCURVE",
"20 615 CURVE",
"20 561 OFFCURVE",
"20 505 OFFCURVE",
"20 451 CURVE SMOOTH",
"20 419 OFFCURVE",
"33 407 OFFCURVE",
"61 407 CURVE SMOOTH",
"216 407 LINE SMOOTH",
"270 407 OFFCURVE",
"292 391 OFFCURVE",
"292 350 CURVE SMOOTH",
"292 314 OFFCURVE",
"285 277 OFFCURVE",
"220 164 CURVE SMOOTH",
"126 0 LINE",
"146 0 OFFCURVE",
"166 0 OFFCURVE",
"186 0 CURVE"
);
}
);
width = 420;
},
{
layerId = "C42C1682-C410-46D1-BF5A-F68DB0880154";
paths = (
{
closed = 1;
nodes = (
"146 0 LINE",
"211 47 LINE SMOOTH",
"280 98 OFFCURVE",
"347 181 OFFCURVE",
"347 296 CURVE SMOOTH",
"347 433 OFFCURVE",
"329 486 OFFCURVE",
"226 486 CURVE SMOOTH",
"111 486 LINE SMOOTH",
"73 486 OFFCURVE",
"66 489 OFFCURVE",
"66 520 CURVE SMOOTH",
"66 585 OFFCURVE",
"66 649 OFFCURVE",
"66 714 CURVE",
"47 714 LINE",
"34 685 OFFCURVE",
"24 649 OFFCURVE",
"17 594 CURVE",
"17 545 OFFCURVE",
"17 498 OFFCURVE",
"17 439 CURVE SMOOTH",
"17 398 OFFCURVE",
"31 376 OFFCURVE",
"81 376 CURVE SMOOTH",
"216 376 LINE SMOOTH",
"290 376 OFFCURVE",
"303 365 OFFCURVE",
"303 295 CURVE SMOOTH",
"303 220 OFFCURVE",
"250 172 OFFCURVE",
"181 128 CURVE SMOOTH",
"98 74 LINE",
"102 49 OFFCURVE",
"110 26 OFFCURVE",
"122 0 CURVE"
);
}
);
width = 405;
},
{
layerId = "E84AB450-BED0-484C-851E-2EB7B7ED9E73";
paths = (
{
closed = 1;
nodes = (
"86 0 LINE",
"112 0 LINE SMOOTH",
"263 0 OFFCURVE",
"322 151 OFFCURVE",
"322 275 CURVE SMOOTH",
"322 469 OFFCURVE",
"302 486 OFFCURVE",
"193 486 CURVE SMOOTH",
"111 486 LINE SMOOTH",
"81 486 OFFCURVE",
"70 493 OFFCURVE",
"70 523 CURVE SMOOTH",
"70 551 OFFCURVE",
"69 577 OFFCURVE",
"65 604 CURVE",
"50 604 LINE",
"42 604 OFFCURVE",
"33 604 OFFCURVE",
"25 604 CURVE",
"16 532 OFFCURVE",
"15 459 OFFCURVE",
"15 387 CURVE SMOOTH",
"15 319 OFFCURVE",
"46 304 OFFCURVE",
"113 304 CURVE SMOOTH",
"222 304 LINE SMOOTH",
"262 304 OFFCURVE",
"268 293 OFFCURVE",
"268 261 CURVE SMOOTH",
"268 213 OFFCURVE",
"233 180 OFFCURVE",
"132 180 CURVE SMOOTH",
"73 180 LINE",
"65 148 OFFCURVE",
"65 38 OFFCURVE",
"73 0 CURVE"
);
}
);
width = 366;
},
{
layerId = "FB8990CA-0F96-4B7B-86A4-9D429D534475";
paths = (
{
closed = 1;
nodes = (
"275 0 LINE",
"328 115 LINE SMOOTH",
"390 249 OFFCURVE",
"408 299 OFFCURVE",
"408 362 CURVE SMOOTH",
"408 473 OFFCURVE",
"368 500 OFFCURVE",
"251 500 CURVE SMOOTH",
"163 500 LINE SMOOTH",
"148 500 OFFCURVE",
"140 507 OFFCURVE",
"140 528 CURVE SMOOTH",
"140 569 OFFCURVE",
"140 609 OFFCURVE",
"140 650 CURVE",
"95 650 LINE",
"67 650 OFFCURVE",
"39 650 OFFCURVE",
"11 650 CURVE",
"11 592 OFFCURVE",
"11 534 OFFCURVE",
"11 476 CURVE SMOOTH",
"11 396 OFFCURVE",
"32 374 OFFCURVE",
"119 374 CURVE SMOOTH",
"207 374 LINE SMOOTH",
"255 374 OFFCURVE",
"273 365 OFFCURVE",
"273 335 CURVE SMOOTH",
"273 300 OFFCURVE",
"258 270 OFFCURVE",
"233 220 CURVE SMOOTH",
"123 0 LINE",
"161 0 OFFCURVE",
"198 0 OFFCURVE",
"236 0 CURVE"
);
}
);
width = 459;
}
);
unicode = 05DC;
},
{
color = 4;
glyphname = "finalmem-hb";
lastChange = "2019-06-11 07:30:33 +0000";
layers = (
{
layerId = "D0BE0C1E-19E7-43D2-9BC3-AB141F408D31";
paths = (
{
closed = 1;
nodes = (
"458 0 LINE",
"471 32 OFFCURVE",
"482 65 OFFCURVE",
"492 109 CURVE",
"492 192 OFFCURVE",
"493 279 OFFCURVE",
"491 357 CURVE SMOOTH",
"488 471 OFFCURVE",
"451 500 OFFCURVE",
"335 500 CURVE SMOOTH",
"315 500 LINE SMOOTH",
"170 500 OFFCURVE",
"144 500 OFFCURVE",
"123 516 CURVE",
"100 516 LINE",
"86 487 OFFCURVE",
"78 456 OFFCURVE",
"74 420 CURVE",
"104 400 OFFCURVE",
"149 397 OFFCURVE",
"304 397 CURVE SMOOTH",
"324 397 LINE SMOOTH",
"414 397 OFFCURVE",
"419 388 OFFCURVE",
"422 307 CURVE SMOOTH",
"425 237 OFFCURVE",
"427 152 OFFCURVE",
"430 0 CURVE"
);
},
{
closed = 1;
nodes = (
"119 0 LINE",
"131 31 OFFCURVE",
"140 64 OFFCURVE",
"148 99 CURVE",
"149 151 OFFCURVE",
"152 202 OFFCURVE",
"152 254 CURVE SMOOTH",
"152 317 OFFCURVE",
"145 425 OFFCURVE",
"125 480 CURVE",
"74 420 LINE",
"84 346 OFFCURVE",
"85 293 OFFCURVE",
"85 198 CURVE SMOOTH",
"84 0 LINE"
);
},
{
closed = 1;
nodes = (
"94 0 LINE",
"447 0 LINE",
"447 100 LINE",
"94 100 LINE"
);
}
);
width = 574;
},
{
layerId = "AFDF4EF8-A213-4348-ACF7-371209F0497C";
paths = (
{
closed = 1;
nodes = (
"380 0 LINE",
"395 56 OFFCURVE",
"410 113 OFFCURVE",
"419 177 CURVE",
"419 251 OFFCURVE",
"418 298 OFFCURVE",
"413 367 CURVE SMOOTH",
"406 466 OFFCURVE",
"365 500 OFFCURVE",
"264 500 CURVE SMOOTH",
"244 500 LINE SMOOTH",
"174 500 OFFCURVE",
"108 501 OFFCURVE",
"91 509 CURVE",
"66 509 LINE",
"50 469 OFFCURVE",
"31 389 OFFCURVE",
"30 336 CURVE",
"84 323 OFFCURVE",
"163 318 OFFCURVE",
"236 318 CURVE SMOOTH",
"256 318 LINE SMOOTH",
"317 318 OFFCURVE",
"327 304 OFFCURVE",
"331 226 CURVE SMOOTH",
"335 156 OFFCURVE",
"338 81 OFFCURVE",
"341 0 CURVE"
);
},
{
closed = 1;
nodes = (
"88 0 LINE",
"102 59 OFFCURVE",
"120 118 OFFCURVE",
"128 177 CURVE",
"128 192 OFFCURVE",
"129 207 OFFCURVE",
"129 222 CURVE SMOOTH",
"129 272 OFFCURVE",
"124 334 OFFCURVE",
"113 372 CURVE",
"30 336 LINE",
"39 294 OFFCURVE",
"46 226 OFFCURVE",
"45 171 CURVE",
"49 0 LINE"
);
},
{
closed = 1;
nodes = (
"62 0 LINE",
"365 0 LINE",
"365 163 LINE",
"62 163 LINE"
);
}
);
width = 480;
},
{
layerId = "A396904D-C838-4FF7-A96F-91F438939708";
paths = (
{
closed = 1;
nodes = (
"460 0 LINE",
"471 45 OFFCURVE",
"485 100 OFFCURVE",
"491 161 CURVE",
"489 234 OFFCURVE",
"490 316 OFFCURVE",
"486 378 CURVE SMOOTH",
"481 456 OFFCURVE",
"438 500 OFFCURVE",
"312 500 CURVE SMOOTH",
"262 500 LINE SMOOTH",
"178 500 OFFCURVE",
"133 502 OFFCURVE",
"114 512 CURVE",
"87 512 LINE",
"77 487 OFFCURVE",
"58 395 OFFCURVE",
"55 348 CURVE",
"72 339 OFFCURVE",
"152 335 OFFCURVE",
"189 335 CURVE SMOOTH",
"270 335 LINE SMOOTH",
"357 335 OFFCURVE",
"368 318 OFFCURVE",
"371 232 CURVE SMOOTH",
"373 177 OFFCURVE",
"377 68 OFFCURVE",
"377 0 CURVE"
);
},
{
closed = 1;
nodes = (
"169 0 LINE",
"183 53 OFFCURVE",
"185 107 OFFCURVE",
"191 160 CURVE",
"194 222 OFFCURVE",
"187 284 OFFCURVE",
"186 346 CURVE SMOOTH",
"185 399 OFFCURVE",
"175 413 OFFCURVE",
"164 439 CURVE",
"55 348 LINE",
"68 275 OFFCURVE",
"70 208 OFFCURVE",
"71 145 CURVE SMOOTH",
"74 0 LINE"
);
},
{
closed = 1;
nodes = (
"109 0 LINE",
"434 0 LINE",
"434 138 LINE",
"109 138 LINE"
);
}
);
width = 537;
},
{
layerId = "5539344D-F27C-4FBD-A9E2-D2F022F19CCA";
paths = (
{
closed = 1;
nodes = (
"506 0 LINE",
"511 31 OFFCURVE",
"515 64 OFFCURVE",
"517 104 CURVE",
"520 159 OFFCURVE",
"521 220 OFFCURVE",
"519 296 CURVE SMOOTH",
"515 449 OFFCURVE",
"495 500 OFFCURVE",
"344 500 CURVE SMOOTH",
"260 500 LINE SMOOTH",
"195 500 OFFCURVE",
"135 504 OFFCURVE",
"114 513 CURVE",
"92 513 LINE",
"80 486 OFFCURVE",
"70 456 OFFCURVE",
"67 433 CURVE",
"89 416 OFFCURVE",
"173 411 OFFCURVE",
"219 411 CURVE SMOOTH",
"303 411 LINE SMOOTH",
"434 411 OFFCURVE",
"438 396 OFFCURVE",
"444 278 CURVE SMOOTH",
"451 146 OFFCURVE",
"450 98 OFFCURVE",
"455 0 CURVE"
);
},
{
closed = 1;
nodes = (
"143 0 LINE",
"149 31 OFFCURVE",
"155 65 OFFCURVE",
"157 105 CURVE",
"160 160 OFFCURVE",
"161 225 OFFCURVE",
"159 321 CURVE SMOOTH",
"158 361 OFFCURVE",
"155 414 OFFCURVE",
"140 445 CURVE",
"67 433 LINE",
"87 409 OFFCURVE",
"86 335 OFFCURVE",
"87 272 CURVE SMOOTH",
"92 0 LINE"
);
},
{
closed = 1;
nodes = (
"113 0 LINE",
"485 0 LINE",
"484 88 LINE",
"112 88 LINE"
);
}
);
width = 601;
},
{
layerId = "798D7B20-9AF4-495F-9307-CAE61518AA1C";
paths = (
{
closed = 1;
nodes = (
"484 0 LINE",
"484 85 OFFCURVE",
"484 131 OFFCURVE",
"484 184 CURVE SMOOTH",
"484 235 OFFCURVE",
"484 257 OFFCURVE",
"484 295 CURVE SMOOTH",
"484 417 OFFCURVE",
"456 477 OFFCURVE",
"313 477 CURVE SMOOTH",
"233 477 LINE SMOOTH",
"191 477 OFFCURVE",
"102 477 OFFCURVE",
"47 477 CURVE",
"28 477 LINE",
"28 455 OFFCURVE",
"28 432 OFFCURVE",
"28 407 CURVE",
"51 407 OFFCURVE",
"187 407 OFFCURVE",
"233 407 CURVE SMOOTH",
"313 407 LINE SMOOTH",
"394 407 OFFCURVE",
"408 382 OFFCURVE",
"408 295 CURVE SMOOTH",
"408 124 OFFCURVE",
"408 188 OFFCURVE",
"408 0 CURVE"
);
},
{
closed = 1;
nodes = (
"160 0 LINE",
"160 94 OFFCURVE",
"160 145 OFFCURVE",
"160 204 CURVE SMOOTH",
"160 285 OFFCURVE",
"160 361 OFFCURVE",
"160 386 CURVE SMOOTH",
"160 409 OFFCURVE",
"160 409 OFFCURVE",
"160 439 CURVE",
"84 438 LINE",
"84 403 OFFCURVE",
"84 392 OFFCURVE",
"84 366 CURVE SMOOTH",
"84 0 LINE"
);
},
{
closed = 1;
nodes = (
"114 0 LINE",
"451 0 LINE",
"451 70 LINE",
"114 70 LINE"
);
}
);
width = 544;
},
{
layerId = "C42C1682-C410-46D1-BF5A-F68DB0880154";
paths = (
{
closed = 1;
nodes = (
"415 0 LINE",
"429 40 OFFCURVE",
"443 58 OFFCURVE",
"443 116 CURVE SMOOTH",
"443 165 OFFCURVE",
"431 221 OFFCURVE",
"431 284 CURVE SMOOTH",
"431 476 OFFCURVE",
"413 486 OFFCURVE",
"272 486 CURVE SMOOTH",
"193 486 LINE SMOOTH",
"87 486 OFFCURVE",
"78 492 OFFCURVE",
"68 512 CURVE",
"46 512 LINE",
"35 489 OFFCURVE",
"30 459 OFFCURVE",
"30 435 CURVE SMOOTH",
"30 382 OFFCURVE",
"43 377 OFFCURVE",
"193 377 CURVE SMOOTH",
"272 377 LINE SMOOTH",
"370 377 OFFCURVE",
"386 359 OFFCURVE",
"387 276 CURVE SMOOTH",
"388 177 OFFCURVE",
"386 54 OFFCURVE",
"384 0 CURVE"
);
},
{
closed = 1;
nodes = (
"102 0 LINE",
"123 39 OFFCURVE",
"131 62 OFFCURVE",
"131 116 CURVE SMOOTH",
"131 165 OFFCURVE",
"124 209 OFFCURVE",
"124 275 CURVE SMOOTH",
"124 329 OFFCURVE",
"127 369 OFFCURVE",
"147 406 CURVE",
"104 406 LINE",
"81 377 OFFCURVE",
"72 324 OFFCURVE",
"72 267 CURVE SMOOTH",
"72 0 LINE"
);
},
{
closed = 1;
nodes = (
"89 0 LINE",
"403 0 LINE",
"403 108 LINE",
"89 108 LINE"
);
}
);
width = 490;
},
{
layerId = "E84AB450-BED0-484C-851E-2EB7B7ED9E73";
paths = (
{
closed = 1;
nodes = (
"391 0 LINE",
"400 40 OFFCURVE",
"401 74 OFFCURVE",
"401 103 CURVE SMOOTH",
"401 170 OFFCURVE",
"387 206 OFFCURVE",
"387 272 CURVE SMOOTH",
"387 467 OFFCURVE",
"374 486 OFFCURVE",
"210 486 CURVE SMOOTH",
"170 486 LINE SMOOTH",
"93 486 OFFCURVE",
"70 489 OFFCURVE",
"65 512 CURVE",
"34 512 LINE",
"23 475 OFFCURVE",
"22 431 OFFCURVE",
"22 397 CURVE SMOOTH",
"22 328 OFFCURVE",
"54 311 OFFCURVE",
"170 311 CURVE SMOOTH",
"210 311 LINE SMOOTH",
"332 311 OFFCURVE",
"336 306 OFFCURVE",
"336 218 CURVE SMOOTH",
"336 162 OFFCURVE",
"334 83 OFFCURVE",
"342 0 CURVE"
);
},
{
closed = 1;
nodes = (
"116 0 LINE",
"125 40 OFFCURVE",
"126 74 OFFCURVE",
"126 103 CURVE SMOOTH",
"126 146 OFFCURVE",
"120 168 OFFCURVE",
"120 223 CURVE SMOOTH",
"120 269 OFFCURVE",
"126 290 OFFCURVE",
"142 332 CURVE",
"98 331 LINE",
"80 306 OFFCURVE",
"59 244 OFFCURVE",
"61 148 CURVE SMOOTH",
"64 0 LINE"
);
},
{
closed = 1;
nodes = (
"84 0 LINE",
"369 0 LINE",
"369 171 LINE",
"84 171 LINE"
);
}
);
width = 441;
},
{
layerId = "FB8990CA-0F96-4B7B-86A4-9D429D534475";
paths = (
{
closed = 1;
nodes = (
"532 0 LINE",
"532 47 OFFCURVE",
"532 87 OFFCURVE",
"532 119 CURVE SMOOTH",
"532 172 OFFCURVE",
"532 199 OFFCURVE",
"532 279 CURVE SMOOTH",
"532 459 OFFCURVE",
"479 500 OFFCURVE",
"314 500 CURVE SMOOTH",
"244 500 LINE SMOOTH",
"228 500 OFFCURVE",
"99 500 OFFCURVE",
"52 500 CURVE",
"26 500 LINE",
"26 479 OFFCURVE",
"26 400 OFFCURVE",
"26 374 CURVE",
"75 374 OFFCURVE",
"202 374 OFFCURVE",
"244 374 CURVE SMOOTH",
"314 374 LINE SMOOTH",
"384 374 OFFCURVE",
"396 362 OFFCURVE",
"396 279 CURVE SMOOTH",
"396 108 OFFCURVE",
"396 109 OFFCURVE",
"396 0 CURVE"
);
},
{
closed = 1;
nodes = (
"222 0 LINE",
"222 47 OFFCURVE",
"222 87 OFFCURVE",
"222 119 CURVE SMOOTH",
"222 223 OFFCURVE",
"222 259 OFFCURVE",
"222 365 CURVE",
"222 382 OFFCURVE",
"222 399 OFFCURVE",
"222 416 CURVE",
"86 416 LINE",
"86 392 OFFCURVE",
"86 369 OFFCURVE",
"86 345 CURVE",
"86 0 LINE"
);
},
{
closed = 1;
nodes = (
"124 0 LINE",
"490 0 LINE",
"490 138 LINE",
"124 138 LINE"
);
}
);
width = 587;
}
);
leftMetricsKey = "=het-hb*1.1";
rightMetricsKey = "het-hb";
unicode = 05DD;
},
{
color = 4;
glyphname = "mem-hb";
lastChange = "2019-06-11 07:32:05 +0000";
layers = (
{
layerId = "D0BE0C1E-19E7-43D2-9BC3-AB141F408D31";
paths = (
{
closed = 1;
nodes = (
"87 0 LINE",
"105 35 OFFCURVE",
"123 64 OFFCURVE",
"133 99 CURVE",
"147 157 OFFCURVE",
"153 219 OFFCURVE",
"171 277 CURVE SMOOTH",
"198 363 OFFCURVE",
"257 395 OFFCURVE",
"301 395 CURVE SMOOTH",
"408 395 OFFCURVE",
"421 290 OFFCURVE",
"430 161 CURVE SMOOTH",
"431 141 OFFCURVE",
"433 121 OFFCURVE",
"434 100 CURVE",
"263 100 LINE",
"257 82 OFFCURVE",
"248 21 OFFCURVE",
"247 0 CURVE",
"308 -2 OFFCURVE",
"380 -2 OFFCURVE",
"441 0 CURVE",
"458 30 OFFCURVE",
"471 64 OFFCURVE",
"483 99 CURVE",
"483 300 OFFCURVE",
"476 500 OFFCURVE",
"319 500 CURVE SMOOTH",
"239 500 OFFCURVE",
"192 447 OFFCURVE",
"156 358 CURVE",
"157 366 OFFCURVE",
"157 373 OFFCURVE",
"157 388 CURVE SMOOTH",
"157 408 OFFCURVE",
"155 448 OFFCURVE",
"117 481 CURVE SMOOTH",
"100 494 OFFCURVE",
"91 501 OFFCURVE",
"76 509 CURVE",
"52 509 LINE",
"39 480 OFFCURVE",
"29 439 OFFCURVE",
"20 407 CURVE",
"35 399 OFFCURVE",
"57 389 OFFCURVE",
"74 377 CURVE SMOOTH",
"118 345 OFFCURVE",
"115 309 OFFCURVE",
"100 237 CURVE SMOOTH",
"84 160 OFFCURVE",
"65 78 OFFCURVE",
"47 0 CURVE"
);
}
);
width = 549;
},
{
layerId = "AFDF4EF8-A213-4348-ACF7-371209F0497C";
paths = (
{
closed = 1;
nodes = (
"102 0 LINE",
"124 43 OFFCURVE",
"144 90 OFFCURVE",
"161 132 CURVE",
"168 165 OFFCURVE",
"174 198 OFFCURVE",
"181 231 CURVE SMOOTH",
"199 301 OFFCURVE",
"229 329 OFFCURVE",
"281 329 CURVE SMOOTH",
"341 329 OFFCURVE",
"378 280 OFFCURVE",
"378 218 CURVE SMOOTH",
"378 206 OFFCURVE",
"379 194 OFFCURVE",
"378 182 CURVE",
"249 182 LINE",
"241 145 OFFCURVE",
"223 52 OFFCURVE",
"221 0 CURVE",
"289 -3 OFFCURVE",
"361 -3 OFFCURVE",
"429 0 CURVE",
"444 57 OFFCURVE",
"459 115 OFFCURVE",
"468 178 CURVE",
"468 350 OFFCURVE",
"457 512 OFFCURVE",
"317 512 CURVE SMOOTH",
"240 512 OFFCURVE",
"206 442 OFFCURVE",
"175 331 CURVE",
"176 344 OFFCURVE",
"176 357 OFFCURVE",
"176 372 CURVE SMOOTH",
"176 441 OFFCURVE",
"148 476 OFFCURVE",
"115 494 CURVE SMOOTH",
"95 505 OFFCURVE",
"84 508 OFFCURVE",
"78 509 CURVE",
"53 509 LINE",
"36 467 OFFCURVE",
"17 385 OFFCURVE",
"14 329 CURVE",
"36 320 OFFCURVE",
"54 315 OFFCURVE",
"73 303 CURVE SMOOTH",
"87 294 OFFCURVE",
"97 279 OFFCURVE",
"91 244 CURVE SMOOTH",
"77 163 OFFCURVE",
"62 81 OFFCURVE",
"48 0 CURVE"
);
}
);
width = 520;
},
{
layerId = "A396904D-C838-4FF7-A96F-91F438939708";
paths = (
{
closed = 1;
nodes = (
"155 0 LINE",
"168 31 OFFCURVE",
"183 69 OFFCURVE",
"195 111 CURVE",
"203 145 OFFCURVE",
"210 178 OFFCURVE",
"218 212 CURVE SMOOTH",
"238 300 OFFCURVE",
"261 330 OFFCURVE",
"321 330 CURVE SMOOTH",
"391 330 OFFCURVE",
"405 285 OFFCURVE",
"412 207 CURVE SMOOTH",
"413 194 OFFCURVE",
"414 181 OFFCURVE",
"415 167 CURVE",
"288 167 LINE",
"281 138 OFFCURVE",
"266 44 OFFCURVE",
"263 0 CURVE",
"348 -2 OFFCURVE",
"435 -2 OFFCURVE",
"503 0 CURVE",
"514 45 OFFCURVE",
"528 100 OFFCURVE",
"534 161 CURVE",
"534 347 OFFCURVE",
"513 509 OFFCURVE",
"363 509 CURVE SMOOTH",
"306 509 OFFCURVE",
"245 480 OFFCURVE",
"212 351 CURVE",
"214 362 OFFCURVE",
"214 373 OFFCURVE",
"214 386 CURVE SMOOTH",
"214 432 OFFCURVE",
"196 461 OFFCURVE",
"158 481 CURVE SMOOTH",
"120 501 OFFCURVE",
"103 505 OFFCURVE",
"79 512 CURVE",
"52 512 LINE",
"43 471 OFFCURVE",
"28 390 OFFCURVE",
"19 340 CURVE",
"30 336 OFFCURVE",
"48 328 OFFCURVE",
"68 320 CURVE SMOOTH",
"99 305 OFFCURVE",
"109 291 OFFCURVE",
"99 230 CURVE SMOOTH",
"86 153 OFFCURVE",
"73 77 OFFCURVE",
"60 0 CURVE"
);
}
);
width = 576;
},
{
layerId = "5539344D-F27C-4FBD-A9E2-D2F022F19CCA";
paths = (
{
closed = 1;
nodes = (
"106 0 LINE",
"117 31 OFFCURVE",
"131 65 OFFCURVE",
"144 102 CURVE",
"156 156 OFFCURVE",
"171 208 OFFCURVE",
"179 252 CURVE SMOOTH",
"200 366 OFFCURVE",
"245 417 OFFCURVE",
"312 417 CURVE SMOOTH",
"412 417 OFFCURVE",
"436 330 OFFCURVE",
"448 144 CURVE SMOOTH",
"448 127 OFFCURVE",
"449 108 OFFCURVE",
"450 89 CURVE",
"289 89 LINE",
"283 67 OFFCURVE",
"274 17 OFFCURVE",
"275 0 CURVE",
"364 -2 OFFCURVE",
"408 -2 OFFCURVE",
"484 0 CURVE",
"497 31 OFFCURVE",
"508 64 OFFCURVE",
"515 104 CURVE",
"515 337 OFFCURVE",
"486 504 OFFCURVE",
"332 504 CURVE SMOOTH",
"265 504 OFFCURVE",
"203 466 OFFCURVE",
"168 369 CURVE",
"172 383 OFFCURVE",
"172 396 OFFCURVE",
"172 407 CURVE SMOOTH",
"172 433 OFFCURVE",
"159 454 OFFCURVE",
"126 480 CURVE SMOOTH",
"107 495 OFFCURVE",
"84 506 OFFCURVE",
"69 513 CURVE",
"47 513 LINE",
"35 491 OFFCURVE",
"25 461 OFFCURVE",
"18 426 CURVE",
"35 415 OFFCURVE",
"59 403 OFFCURVE",
"76 392 CURVE SMOOTH",
"110 373 OFFCURVE",
"128 343 OFFCURVE",
"116 284 CURVE SMOOTH",
"97 189 OFFCURVE",
"78 95 OFFCURVE",
"59 0 CURVE"
);
}
);
width = 582;
},
{
layerId = "798D7B20-9AF4-495F-9307-CAE61518AA1C";
paths = (
{
closed = 1;
nodes = (
"169 0 LINE",
"169 29 OFFCURVE",
"169 45 OFFCURVE",
"169 64 CURVE SMOOTH",
"169 121 OFFCURVE",
"170 180 OFFCURVE",
"170 237 CURVE SMOOTH",
"171 367 OFFCURVE",
"229 411 OFFCURVE",
"296 411 CURVE SMOOTH",
"375 411 OFFCURVE",
"411 371 OFFCURVE",
"411 251 CURVE SMOOTH",
"411 163 OFFCURVE",
"411 113 OFFCURVE",
"411 70 CURVE",
"283 70 LINE",
"283 47 OFFCURVE",
"283 23 OFFCURVE",
"283 0 CURVE",
"350 0 OFFCURVE",
"417 0 OFFCURVE",
"486 0 CURVE",
"486 90 OFFCURVE",
"486 150 OFFCURVE",
"486 251 CURVE SMOOTH",
"486 431 OFFCURVE",
"413 482 OFFCURVE",
"312 482 CURVE SMOOTH",
"250 482 OFFCURVE",
"192 446 OFFCURVE",
"159 379 CURVE",
"159 385 OFFCURVE",
"159 390 OFFCURVE",
"159 396 CURVE SMOOTH",
"159 457 OFFCURVE",
"133 477 OFFCURVE",
"72 477 CURVE SMOOTH",
"61 477 OFFCURVE",
"49 477 OFFCURVE",
"38 477 CURVE",
"25 477 LINE",
"25 455 OFFCURVE",
"25 432 OFFCURVE",
"25 407 CURVE",
"41 407 OFFCURVE",
"56 407 OFFCURVE",
"72 407 CURVE SMOOTH",
"90 407 OFFCURVE",
"93 403 OFFCURVE",
"93 376 CURVE SMOOTH",
"93 251 OFFCURVE",
"93 125 OFFCURVE",
"93 0 CURVE"
);
}
);
width = 548;
},
{
layerId = "C42C1682-C410-46D1-BF5A-F68DB0880154";
paths = (
{
closed = 1;
nodes = (
"118 0 LINE",
"127 25 OFFCURVE",
"130 40 OFFCURVE",
"130 77 CURVE SMOOTH",
"130 157 OFFCURVE",
"139 223 OFFCURVE",
"161 281 CURVE SMOOTH",
"185 345 OFFCURVE",
"230 379 OFFCURVE",
"285 379 CURVE SMOOTH",
"357 379 OFFCURVE",
"403 330 OFFCURVE",
"403 225 CURVE SMOOTH",
"403 174 OFFCURVE",
"397 129 OFFCURVE",
"388 107 CURVE",
"233 107 LINE",
"225 91 OFFCURVE",
"225 16 OFFCURVE",
"233 0 CURVE",
"294 0 OFFCURVE",
"355 0 OFFCURVE",
"416 0 CURVE",
"431 55 OFFCURVE",
"446 98 OFFCURVE",
"446 225 CURVE SMOOTH",
"446 405 OFFCURVE",
"403 486 OFFCURVE",
"292 486 CURVE SMOOTH",
"224 486 OFFCURVE",
"188 421 OFFCURVE",
"157 332 CURVE",
"157 342 OFFCURVE",
"157 358 OFFCURVE",
"157 372 CURVE SMOOTH",
"157 443 OFFCURVE",
"148 481 OFFCURVE",
"85 486 CURVE SMOOTH",
"68 487 OFFCURVE",
"62 497 OFFCURVE",
"56 512 CURVE",
"34 512 LINE",
"23 489 OFFCURVE",
"21 467 OFFCURVE",
"21 444 CURVE SMOOTH",
"21 392 OFFCURVE",
"34 384 OFFCURVE",
"73 377 CURVE SMOOTH",
"130 367 OFFCURVE",
"131 344 OFFCURVE",
"121 298 CURVE SMOOTH",
"95 170 OFFCURVE",
"80 75 OFFCURVE",
"80 0 CURVE"
);
}
);
width = 496;
},
{
layerId = "E84AB450-BED0-484C-851E-2EB7B7ED9E73";
paths = (
{
closed = 1;
nodes = (
"129 0 LINE",
"134 21 OFFCURVE",
"132 41 OFFCURVE",
"134 66 CURVE SMOOTH",
"141 172 OFFCURVE",
"156 234 OFFCURVE",
"181 269 CURVE SMOOTH",
"204 301 OFFCURVE",
"233 310 OFFCURVE",
"270 310 CURVE SMOOTH",
"325 310 OFFCURVE",
"364 286 OFFCURVE",
"364 222 CURVE SMOOTH",
"364 208 OFFCURVE",
"362 195 OFFCURVE",
"358 184 CURVE",
"221 184 LINE",
"212 160 OFFCURVE",
"212 28 OFFCURVE",
"221 0 CURVE",
"278 0 OFFCURVE",
"334 0 OFFCURVE",
"391 0 CURVE",
"416 88 OFFCURVE",
"425 133 OFFCURVE",
"425 222 CURVE SMOOTH",
"425 450 OFFCURVE",
"384 502 OFFCURVE",
"296 502 CURVE SMOOTH",
"218 502 OFFCURVE",
"188 442 OFFCURVE",
"156 307 CURVE",
"156 315 OFFCURVE",
"156 323 OFFCURVE",
"156 332 CURVE SMOOTH",
"156 450 OFFCURVE",
"128 480 OFFCURVE",
"89 486 CURVE SMOOTH",
"76 488 OFFCURVE",
"68 489 OFFCURVE",
"63 512 CURVE",
"32 512 LINE",
"21 475 OFFCURVE",
"20 431 OFFCURVE",
"20 397 CURVE SMOOTH",
"20 331 OFFCURVE",
"43 316 OFFCURVE",
"77 304 CURVE SMOOTH",
"109 293 OFFCURVE",
"113 274 OFFCURVE",
"98 223 CURVE SMOOTH",
"79 157 OFFCURVE",
"69 89 OFFCURVE",
"69 0 CURVE"
);
}
);
width = 463;
},
{
layerId = "FB8990CA-0F96-4B7B-86A4-9D429D534475";
paths = (
{
closed = 1;
nodes = (
"222 0 LINE",
"222 39 OFFCURVE",
"222 72 OFFCURVE",
"222 99 CURVE SMOOTH",
"222 131 OFFCURVE",
"222 164 OFFCURVE",
"222 196 CURVE SMOOTH",
"222 310 OFFCURVE",
"261 374 OFFCURVE",
"331 374 CURVE SMOOTH",
"392 374 OFFCURVE",
"418 326 OFFCURVE",
"418 220 CURVE SMOOTH",
"418 195 OFFCURVE",
"418 167 OFFCURVE",
"418 138 CURVE",
"311 138 LINE",
"311 92 OFFCURVE",
"311 46 OFFCURVE",
"311 0 CURVE",
"396 -1 OFFCURVE",
"469 -1 OFFCURVE",
"554 0 CURVE",
"554 82 OFFCURVE",
"554 162 OFFCURVE",
"554 240 CURVE SMOOTH",
"554 460 OFFCURVE",
"456 509 OFFCURVE",
"358 509 CURVE SMOOTH",
"278 509 OFFCURVE",
"232 471 OFFCURVE",
"202 400 CURVE",
"202 408 OFFCURVE",
"202 417 OFFCURVE",
"202 425 CURVE SMOOTH",
"202 479 OFFCURVE",
"177 500 OFFCURVE",
"104 500 CURVE SMOOTH",
"81 500 OFFCURVE",
"58 500 OFFCURVE",
"35 500 CURVE",
"20 500 LINE",
"20 479 OFFCURVE",
"20 400 OFFCURVE",
"20 374 CURVE",
"31 374 OFFCURVE",
"41 374 OFFCURVE",
"52 374 CURVE SMOOTH",
"77 374 OFFCURVE",
"86 371 OFFCURVE",
"86 345 CURVE SMOOTH",
"86 230 OFFCURVE",
"86 115 OFFCURVE",
"86 0 CURVE"
);
}
);
width = 607;
}
);
unicode = 05DE;
},
{
color = 4;
glyphname = "finalnun-hb";
lastChange = "2019-06-11 07:29:36 +0000";
layers = (
{
layerId = "D0BE0C1E-19E7-43D2-9BC3-AB141F408D31";
paths = (
{
closed = 1;
nodes = (
"197 -150 LINE",
"208 -120 OFFCURVE",
"216 -86 OFFCURVE",
"224 -51 CURVE",
"227 107 OFFCURVE",
"226 166 OFFCURVE",
"223 315 CURVE SMOOTH",
"219 420 OFFCURVE",
"211 446 OFFCURVE",
"164 474 CURVE SMOOTH",
"135 491 OFFCURVE",
"106 501 OFFCURVE",
"84 509 CURVE",
"60 509 LINE",
"47 480 OFFCURVE",
"37 442 OFFCURVE",
"28 410 CURVE",
"55 397 OFFCURVE",
"87 384 OFFCURVE",
"118 367 CURVE SMOOTH",
"152 347 OFFCURVE",
"155 342 OFFCURVE",
"158 271 CURVE SMOOTH",
"162 162 OFFCURVE",
"163 8 OFFCURVE",
"165 -150 CURVE"
);
}
);
width = 310;
},
{
layerId = "AFDF4EF8-A213-4348-ACF7-371209F0497C";
paths = (
{
closed = 1;
nodes = (
"165 -150 LINE",
"180 -96 OFFCURVE",
"193 -39 OFFCURVE",
"197 18 CURVE",
"199 155 OFFCURVE",
"199 229 OFFCURVE",
"195 345 CURVE SMOOTH",
"188 449 OFFCURVE",
"175 463 OFFCURVE",
"98 497 CURVE SMOOTH",
"81 505 OFFCURVE",
"73 508 OFFCURVE",
"68 509 CURVE",
"43 509 LINE",
"26 467 OFFCURVE",
"7 385 OFFCURVE",
"4 329 CURVE",
"28 320 OFFCURVE",
"40 315 OFFCURVE",
"63 305 CURVE SMOOTH",
"95 291 OFFCURVE",
"101 277 OFFCURVE",
"104 198 CURVE SMOOTH",
"107 68 OFFCURVE",
"108 -8 OFFCURVE",
"110 -150 CURVE"
);
}
);
width = 259;
},
{
layerId = "A396904D-C838-4FF7-A96F-91F438939708";
paths = (
{
closed = 1;
nodes = (
"227 -150 LINE",
"233 -119 OFFCURVE",
"240 -81 OFFCURVE",
"243 -39 CURVE",
"244 91 OFFCURVE",
"244 244 OFFCURVE",
"239 366 CURVE SMOOTH",
"233 442 OFFCURVE",
"223 450 OFFCURVE",
"140 488 CURVE SMOOTH",
"116 499 OFFCURVE",
"101 505 OFFCURVE",
"79 512 CURVE",
"52 512 LINE",
"43 471 OFFCURVE",
"28 390 OFFCURVE",
"19 340 CURVE",
"29 336 OFFCURVE",
"57 326 OFFCURVE",
"71 320 CURVE SMOOTH",
"111 303 OFFCURVE",
"117 294 OFFCURVE",
"119 234 CURVE SMOOTH",
"121 132 OFFCURVE",
"124 -2 OFFCURVE",
"126 -150 CURVE"
);
}
);
width = 300;
},
{
layerId = "5539344D-F27C-4FBD-A9E2-D2F022F19CCA";
paths = (
{
closed = 1;
nodes = (
"181 -150 LINE",
"187 -119 OFFCURVE",
"193 -85 OFFCURVE",
"195 -45 CURVE",
"198 48 OFFCURVE",
"198 158 OFFCURVE",
"197 321 CURVE SMOOTH",
"196 413 OFFCURVE",
"184 443 OFFCURVE",
"121 480 CURVE SMOOTH",
"97 494 OFFCURVE",
"72 506 OFFCURVE",
"54 513 CURVE",
"32 513 LINE",
"20 491 OFFCURVE",
"10 461 OFFCURVE",
"3 426 CURVE",
"23 415 OFFCURVE",
"51 403 OFFCURVE",
"71 392 CURVE SMOOTH",
"115 368 OFFCURVE",
"123 353 OFFCURVE",
"125 272 CURVE SMOOTH",
"128 83 OFFCURVE",
"128 2 OFFCURVE",
"130 -150 CURVE"
);
}
);
width = 280;
},
{
layerId = "798D7B20-9AF4-495F-9307-CAE61518AA1C";
paths = (
{
closed = 1;
nodes = (
"169 -150 LINE",
"169 -56 OFFCURVE",
"169 -5 OFFCURVE",
"169 54 CURVE SMOOTH",
"169 201 OFFCURVE",
"169 306 OFFCURVE",
"169 386 CURVE SMOOTH",
"169 457 OFFCURVE",
"149 477 OFFCURVE",
"72 477 CURVE SMOOTH",
"49 477 OFFCURVE",
"55 477 OFFCURVE",
"38 477 CURVE",
"25 477 LINE",
"25 455 OFFCURVE",
"25 432 OFFCURVE",
"25 407 CURVE",
"42 407 OFFCURVE",
"59 407 OFFCURVE",
"72 407 CURVE SMOOTH",
"90 407 OFFCURVE",
"93 403 OFFCURVE",
"93 376 CURVE SMOOTH",
"93 24 OFFCURVE",
"93 225 OFFCURVE",
"93 -150 CURVE"
);
}
);
width = 234;
},
{
layerId = "C42C1682-C410-46D1-BF5A-F68DB0880154";
paths = (
{
closed = 1;
nodes = (
"186 -150 LINE",
"195 -108 OFFCURVE",
"203 -84 OFFCURVE",
"203 -23 CURVE SMOOTH",
"203 65 OFFCURVE",
"191 179 OFFCURVE",
"191 292 CURVE SMOOTH",
"191 446 OFFCURVE",
"179 486 OFFCURVE",
"97 486 CURVE SMOOTH",
"70 486 OFFCURVE",
"64 497 OFFCURVE",
"58 512 CURVE",
"36 512 LINE",
"25 489 OFFCURVE",
"23 467 OFFCURVE",
"23 444 CURVE SMOOTH",
"23 392 OFFCURVE",
"36 377 OFFCURVE",
"87 377 CURVE SMOOTH",
"136 377 OFFCURVE",
"148 362 OFFCURVE",
"148 294 CURVE SMOOTH",
"148 146 OFFCURVE",
"148 33 OFFCURVE",
"148 -150 CURVE"
);
}
);
width = 264;
},
{
layerId = "E84AB450-BED0-484C-851E-2EB7B7ED9E73";
paths = (
{
closed = 1;
nodes = (
"172 -150 LINE",
"179 -110 OFFCURVE",
"180 -76 OFFCURVE",
"180 -47 CURVE SMOOTH",
"180 71 OFFCURVE",
"173 151 OFFCURVE",
"173 302 CURVE SMOOTH",
"173 477 OFFCURVE",
"161 486 OFFCURVE",
"91 486 CURVE SMOOTH",
"76 486 OFFCURVE",
"64 489 OFFCURVE",
"59 512 CURVE",
"28 512 LINE",
"17 475 OFFCURVE",
"16 431 OFFCURVE",
"16 397 CURVE SMOOTH",
"16 321 OFFCURVE",
"48 304 OFFCURVE",
"81 304 CURVE SMOOTH",
"104 304 OFFCURVE",
"122 296 OFFCURVE",
"122 249 CURVE SMOOTH",
"122 116 OFFCURVE",
"117 -17 OFFCURVE",
"118 -150 CURVE"
);
}
);
width = 234;
},
{
layerId = "FB8990CA-0F96-4B7B-86A4-9D429D534475";
paths = (
{
closed = 1;
nodes = (
"225 -150 LINE",
"225 -103 OFFCURVE",
"225 -63 OFFCURVE",
"225 -31 CURVE SMOOTH",
"225 136 OFFCURVE",
"225 194 OFFCURVE",
"225 365 CURVE SMOOTH",
"225 469 OFFCURVE",
"195 500 OFFCURVE",
"107 500 CURVE SMOOTH",
"76 500 OFFCURVE",
"52 500 OFFCURVE",
"20 500 CURVE",
"23 500 LINE",
"23 479 OFFCURVE",
"23 400 OFFCURVE",
"23 374 CURVE",
"36 374 OFFCURVE",
"44 374 OFFCURVE",
"55 374 CURVE SMOOTH",
"80 374 OFFCURVE",
"89 371 OFFCURVE",
"89 345 CURVE SMOOTH",
"89 42 OFFCURVE",
"89 61 OFFCURVE",
"89 -150 CURVE"
);
}
);
width = 285;
}
);
leftMetricsKey = "vav-hb";
rightMetricsKey = "vav-hb";
unicode = 05DF;
},
{
color = 4;
glyphname = "nun-hb";
lastChange = "2019-06-11 07:29:36 +0000";
layers = (
{
layerId = "D0BE0C1E-19E7-43D2-9BC3-AB141F408D31";
paths = (
{
closed = 1;
nodes = (
"103 -2 OFFCURVE",
"155 -2 OFFCURVE",
"208 0 CURVE",
"225 30 OFFCURVE",
"238 64 OFFCURVE",
"250 99 CURVE",
"250 192 OFFCURVE",
"249 227 OFFCURVE",
"246 315 CURVE SMOOTH",
"242 420 OFFCURVE",
"234 446 OFFCURVE",
"187 474 CURVE SMOOTH",
"158 491 OFFCURVE",
"129 501 OFFCURVE",
"107 509 CURVE",
"83 509 LINE",
"70 480 OFFCURVE",
"60 442 OFFCURVE",
"51 410 CURVE",
"78 397 OFFCURVE",
"110 384 OFFCURVE",
"141 367 CURVE SMOOTH",
"177 347 OFFCURVE",
"176 342 OFFCURVE",
"183 271 CURVE SMOOTH",
"189 213 OFFCURVE",
"192 172 OFFCURVE",
"197 45 CURVE",
"220 100 LINE",
"169 100 OFFCURVE",
"117 100 OFFCURVE",
"66 100 CURVE",
"60 82 OFFCURVE",
"51 21 OFFCURVE",
"50 0 CURVE"
);
}
);
width = 333;
},
{
layerId = "AFDF4EF8-A213-4348-ACF7-371209F0497C";
paths = (
{
closed = 1;
nodes = (
"79 -3 OFFCURVE",
"147 -3 OFFCURVE",
"215 0 CURVE",
"230 57 OFFCURVE",
"245 115 OFFCURVE",
"254 178 CURVE",
"254 244 OFFCURVE",
"251 285 OFFCURVE",
"242 347 CURVE SMOOTH",
"226 458 OFFCURVE",
"192 479 OFFCURVE",
"116 504 CURVE SMOOTH",
"107 507 OFFCURVE",
"100 508 OFFCURVE",
"95 509 CURVE",
"70 509 LINE",
"53 469 OFFCURVE",
"35 388 OFFCURVE",
"34 335 CURVE",
"58 326 OFFCURVE",
"80 321 OFFCURVE",
"111 310 CURVE SMOOTH",
"147 296 OFFCURVE",
"153 277 OFFCURVE",
"165 220 CURVE SMOOTH",
"169 200 OFFCURVE",
"173 168 OFFCURVE",
"176 147 CURVE",
"200 176 LINE",
"146 176 OFFCURVE",
"93 176 OFFCURVE",
"39 176 CURVE",
"31 140 OFFCURVE",
"13 50 OFFCURVE",
"11 0 CURVE"
);
}
);
width = 304;
},
{
layerId = "A396904D-C838-4FF7-A96F-91F438939708";
paths = (
{
closed = 1;
nodes = (
"117 -2 OFFCURVE",
"194 -2 OFFCURVE",
"262 0 CURVE",
"273 45 OFFCURVE",
"287 100 OFFCURVE",
"293 161 CURVE",
"293 226 OFFCURVE",
"289 299 OFFCURVE",
"277 361 CURVE SMOOTH",
"262 439 OFFCURVE",
"243 451 OFFCURVE",
"174 483 CURVE SMOOTH",
"134 502 OFFCURVE",
"121 507 OFFCURVE",
"102 516 CURVE",
"75 516 LINE",
"65 474 OFFCURVE",
"46 391 OFFCURVE",
"43 344 CURVE",
"56 340 OFFCURVE",
"98 325 OFFCURVE",
"115 318 CURVE SMOOTH",
"154 303 OFFCURVE",
"161 296 OFFCURVE",
"166 247 CURVE SMOOTH",
"169 218 OFFCURVE",
"173 179 OFFCURVE",
"173 147 CURVE",
"197 167 LINE",
"137 167 OFFCURVE",
"99 167 OFFCURVE",
"57 167 CURVE",
"50 138 OFFCURVE",
"35 44 OFFCURVE",
"32 0 CURVE"
);
}
);
width = 341;
},
{
layerId = "5539344D-F27C-4FBD-A9E2-D2F022F19CCA";
paths = (
{
closed = 1;
nodes = (
"125 -2 OFFCURVE",
"163 -2 OFFCURVE",
"240 0 CURVE",
"253 31 OFFCURVE",
"264 64 OFFCURVE",
"271 104 CURVE",
"274 159 OFFCURVE",
"272 224 OFFCURVE",
"266 300 CURVE SMOOTH",
"257 406 OFFCURVE",
"233 436 OFFCURVE",
"184 467 CURVE SMOOTH",
"151 488 OFFCURVE",
"116 505 OFFCURVE",
"92 514 CURVE",
"70 514 LINE",
"58 492 OFFCURVE",
"48 462 OFFCURVE",
"41 427 CURVE",
"69 413 OFFCURVE",
"105 398 OFFCURVE",
"133 383 CURVE SMOOTH",
"176 360 OFFCURVE",
"184 352 OFFCURVE",
"191 282 CURVE SMOOTH",
"201 185 OFFCURVE",
"204 146 OFFCURVE",
"209 74 CURVE",
"230 89 LINE",
"141 89 OFFCURVE",
"111 89 OFFCURVE",
"53 89 CURVE",
"47 64 OFFCURVE",
"38 19 OFFCURVE",
"39 0 CURVE"
);
}
);
width = 350;
},
{
layerId = "798D7B20-9AF4-495F-9307-CAE61518AA1C";
paths = (
{
closed = 1;
nodes = (
"114 0 OFFCURVE",
"179 0 OFFCURVE",
"252 0 CURVE",
"252 94 OFFCURVE",
"252 145 OFFCURVE",
"252 204 CURVE SMOOTH",
"252 259 OFFCURVE",
"252 303 OFFCURVE",
"252 325 CURVE SMOOTH",
"252 426 OFFCURVE",
"219 477 OFFCURVE",
"115 477 CURVE SMOOTH",
"100 477 OFFCURVE",
"83 477 OFFCURVE",
"65 477 CURVE",
"46 477 LINE",
"46 455 OFFCURVE",
"46 432 OFFCURVE",
"46 407 CURVE",
"64 407 OFFCURVE",
"87 407 OFFCURVE",
"115 407 CURVE SMOOTH",
"157 407 OFFCURVE",
"176 390 OFFCURVE",
"176 325 CURVE SMOOTH",
"176 136 OFFCURVE",
"176 241 OFFCURVE",
"176 47 CURVE",
"190 70 LINE",
"141 70 OFFCURVE",
"93 70 OFFCURVE",
"46 70 CURVE",
"46 47 OFFCURVE",
"46 23 OFFCURVE",
"46 0 CURVE"
);
}
);
width = 318;
},
{
layerId = "C42C1682-C410-46D1-BF5A-F68DB0880154";
paths = (
{
closed = 1;
nodes = (
"116 0 OFFCURVE",
"177 0 OFFCURVE",
"238 0 CURVE",
"243 32 OFFCURVE",
"248 50 OFFCURVE",
"248 96 CURVE SMOOTH",
"248 151 OFFCURVE",
"229 211 OFFCURVE",
"229 292 CURVE SMOOTH",
"229 446 OFFCURVE",
"217 486 OFFCURVE",
"135 486 CURVE SMOOTH",
"95 486 OFFCURVE",
"89 497 OFFCURVE",
"83 512 CURVE",
"61 512 LINE",
"50 489 OFFCURVE",
"48 467 OFFCURVE",
"48 444 CURVE SMOOTH",
"48 392 OFFCURVE",
"61 377 OFFCURVE",
"125 377 CURVE SMOOTH",
"174 377 OFFCURVE",
"185 362 OFFCURVE",
"185 294 CURVE SMOOTH",
"185 226 OFFCURVE",
"185 120 OFFCURVE",
"185 89 CURVE",
"203 107 LINE",
"148 107 OFFCURVE",
"110 107 OFFCURVE",
"55 107 CURVE",
"47 91 OFFCURVE",
"47 16 OFFCURVE",
"55 0 CURVE"
);
}
);
width = 305;
},
{
layerId = "E84AB450-BED0-484C-851E-2EB7B7ED9E73";
paths = (
{
closed = 1;
nodes = (
"117 0 OFFCURVE",
"176 0 OFFCURVE",
"242 0 CURVE",
"249 40 OFFCURVE",
"250 74 OFFCURVE",
"250 103 CURVE SMOOTH",
"250 170 OFFCURVE",
"236 206 OFFCURVE",
"236 272 CURVE SMOOTH",
"236 467 OFFCURVE",
"222 486 OFFCURVE",
"134 486 CURVE SMOOTH",
"112 486 OFFCURVE",
"89 489 OFFCURVE",
"84 512 CURVE",
"53 512 LINE",
"42 475 OFFCURVE",
"41 431 OFFCURVE",
"41 397 CURVE SMOOTH",
"41 321 OFFCURVE",
"73 304 OFFCURVE",
"144 304 CURVE SMOOTH",
"167 304 OFFCURVE",
"185 294 OFFCURVE",
"185 249 CURVE SMOOTH",
"185 213 OFFCURVE",
"185 181 OFFCURVE",
"186 162 CURVE",
"203 184 LINE",
"150 184 OFFCURVE",
"104 184 OFFCURVE",
"53 184 CURVE",
"44 160 OFFCURVE",
"44 28 OFFCURVE",
"53 0 CURVE"
);
}
);
width = 294;
},
{
layerId = "FB8990CA-0F96-4B7B-86A4-9D429D534475";
paths = (
{
closed = 1;
nodes = (
"130 -1 OFFCURVE",
"203 -1 OFFCURVE",
"288 0 CURVE",
"288 47 OFFCURVE",
"288 87 OFFCURVE",
"288 119 CURVE SMOOTH",
"288 198 OFFCURVE",
"288 225 OFFCURVE",
"288 305 CURVE SMOOTH",
"288 455 OFFCURVE",
"245 500 OFFCURVE",
"125 500 CURVE SMOOTH",
"110 500 OFFCURVE",
"98 500 OFFCURVE",
"83 500 CURVE",
"47 500 LINE",
"47 479 OFFCURVE",
"47 400 OFFCURVE",
"47 374 CURVE",
"75 374 OFFCURVE",
"84 374 OFFCURVE",
"103 374 CURVE SMOOTH",
"142 374 OFFCURVE",
"152 365 OFFCURVE",
"152 295 CURVE SMOOTH",
"152 176 OFFCURVE",
"152 183 OFFCURVE",
"152 100 CURVE",
"179 138 LINE",
"133 138 OFFCURVE",
"95 138 OFFCURVE",
"45 138 CURVE",
"45 104 OFFCURVE",
"45 32 OFFCURVE",
"45 0 CURVE"
);
}
);
width = 345;
}
);
leftMetricsKey = "bet-hb";
unicode = 05E0;
},
{
color = 4;
glyphname = "samekh-hb";
lastChange = "2019-06-11 07:29:36 +0000";
layers = (
{
associatedMasterId = "D0BE0C1E-19E7-43D2-9BC3-AB141F408D31";
layerId = "0D2F9F62-6D50-490D-B425-4005BBEB55D2";
name = Paths;
paths = (
{
closed = 0;
nodes = (
"190 500 LINE",
"181 442 OFFCURVE",
"178 399 OFFCURVE",
"178 357 CURVE SMOOTH",
"178 331 OFFCURVE",
"179 306 OFFCURVE",
"181 278 CURVE SMOOTH",
"199 -7 LINE",
"325 13 LINE SMOOTH",
"495 40 OFFCURVE",
"609 158 OFFCURVE",
"609 347 CURVE SMOOTH",
"609 455 OFFCURVE",
"574 500 OFFCURVE",
"413 500 CURVE SMOOTH",
"366 500 LINE SMOOTH",
"251 500 OFFCURVE",
"131 502 OFFCURVE",
"47 527 CURVE"
);
}
);
width = 739;
},
{
background = {
paths = (
{
closed = 1;
nodes = (
"274 278 LINE SMOOTH",
"272 306 OFFCURVE",
"271 331 OFFCURVE",
"271 357 CURVE SMOOTH",
"271 399 OFFCURVE",
"274 442 OFFCURVE",
"283 500 CURVE",
"343 600 LINE",
"334 542 OFFCURVE",
"331 499 OFFCURVE",
"331 457 CURVE SMOOTH",
"331 431 OFFCURVE",
"332 406 OFFCURVE",
"334 378 CURVE SMOOTH",
"352 93 LINE",
"478 113 LINE SMOOTH",
"648 140 OFFCURVE",
"762 258 OFFCURVE",
"762 447 CURVE SMOOTH",
"762 555 OFFCURVE",
"727 600 OFFCURVE",
"566 600 CURVE SMOOTH",
"519 600 LINE SMOOTH",
"404 600 OFFCURVE",
"284 602 OFFCURVE",
"200 627 CURVE",
"140 527 LINE",
"224 502 OFFCURVE",
"344 500 OFFCURVE",
"459 500 CURVE SMOOTH",
"506 500 LINE SMOOTH",
"667 500 OFFCURVE",
"702 455 OFFCURVE",
"702 347 CURVE SMOOTH",
"702 158 OFFCURVE",
"588 40 OFFCURVE",
"418 13 CURVE SMOOTH",
"292 -7 LINE"
);
}
);
};
layerId = "D0BE0C1E-19E7-43D2-9BC3-AB141F408D31";
paths = (
{
closed = 1;
nodes = (
"377 -5 OFFCURVE",
"464 102 OFFCURVE",
"464 315 CURVE SMOOTH",
"464 433 OFFCURVE",
"418 500 OFFCURVE",
"280 500 CURVE SMOOTH",
"189 500 LINE SMOOTH",
"140 500 OFFCURVE",
"130 500 OFFCURVE",
"90 516 CURVE",
"67 516 LINE",
"53 487 OFFCURVE",
"45 456 OFFCURVE",
"41 420 CURVE",
"104 400 OFFCURVE",
"142 397 OFFCURVE",
"198 397 CURVE SMOOTH",
"269 397 LINE SMOOTH",
"371 397 OFFCURVE",
"405 364 OFFCURVE",
"405 299 CURVE SMOOTH",
"405 154 OFFCURVE",
"344 94 OFFCURVE",
"263 94 CURVE SMOOTH",
"195 94 OFFCURVE",
"160 129 OFFCURVE",
"148 264 CURVE SMOOTH",
"142 329 OFFCURVE",
"140 400 OFFCURVE",
"123 440 CURVE",
"41 420 LINE",
"74 354 OFFCURVE",
"76 325 OFFCURVE",
"81 238 CURVE SMOOTH",
"92 57 OFFCURVE",
"147 -5 OFFCURVE",
"263 -5 CURVE SMOOTH"
);
}
);
width = 523;
},
{
background = {
paths = (
{
closed = 1;
nodes = (
"188 278 LINE SMOOTH",
"186 306 OFFCURVE",
"185 331 OFFCURVE",
"185 357 CURVE SMOOTH",
"185 399 OFFCURVE",
"188 442 OFFCURVE",
"197 500 CURVE",
"282 680 LINE",
"273 622 OFFCURVE",
"270 579 OFFCURVE",
"270 537 CURVE SMOOTH",
"270 511 OFFCURVE",
"271 486 OFFCURVE",
"273 458 CURVE SMOOTH",
"291 173 LINE",
"417 193 LINE SMOOTH",
"587 220 OFFCURVE",
"701 338 OFFCURVE",
"701 527 CURVE SMOOTH",
"701 635 OFFCURVE",
"666 680 OFFCURVE",
"505 680 CURVE SMOOTH",
"458 680 LINE SMOOTH",
"343 680 OFFCURVE",
"223 682 OFFCURVE",
"139 707 CURVE",
"54 527 LINE",
"138 502 OFFCURVE",
"258 500 OFFCURVE",
"373 500 CURVE SMOOTH",
"420 500 LINE SMOOTH",
"581 500 OFFCURVE",
"616 455 OFFCURVE",
"616 347 CURVE SMOOTH",
"616 158 OFFCURVE",
"502 40 OFFCURVE",
"332 13 CURVE SMOOTH",
"206 -7 LINE"
);
}
);
};
layerId = "AFDF4EF8-A213-4348-ACF7-371209F0497C";
paths = (
{
closed = 1;
nodes = (
"354 -8 OFFCURVE",
"430 98 OFFCURVE",
"430 307 CURVE SMOOTH",
"430 466 OFFCURVE",
"359 500 OFFCURVE",
"220 500 CURVE SMOOTH",
"165 500 LINE SMOOTH",
"127 500 OFFCURVE",
"103 501 OFFCURVE",
"77 512 CURVE",
"52 512 LINE",
"37 469 OFFCURVE",
"18 390 OFFCURVE",
"17 332 CURVE",
"91 321 OFFCURVE",
"121 322 OFFCURVE",
"144 322 CURVE SMOOTH",
"267 322 LINE SMOOTH",
"325 322 OFFCURVE",
"349 309 OFFCURVE",
"349 274 CURVE SMOOTH",
"349 203 OFFCURVE",
"308 162 OFFCURVE",
"230 162 CURVE SMOOTH",
"166 162 OFFCURVE",
"145 184 OFFCURVE",
"138 259 CURVE SMOOTH",
"134 288 OFFCURVE",
"129 334 OFFCURVE",
"115 372 CURVE",
"17 332 LINE",
"55 294 OFFCURVE",
"54 286 OFFCURVE",
"61 183 CURVE SMOOTH",
"71 35 OFFCURVE",
"119 -8 OFFCURVE",
"218 -8 CURVE SMOOTH"
);
}
);
width = 481;
},
{
background = {
paths = (
{
closed = 1;
nodes = (
"192 278 LINE SMOOTH",
"190 306 OFFCURVE",
"189 331 OFFCURVE",
"189 357 CURVE SMOOTH",
"189 399 OFFCURVE",
"192 442 OFFCURVE",
"201 500 CURVE",
"321 660 LINE",
"312 602 OFFCURVE",
"309 559 OFFCURVE",
"309 517 CURVE SMOOTH",
"309 491 OFFCURVE",
"310 466 OFFCURVE",
"312 438 CURVE SMOOTH",
"330 153 LINE",
"456 173 LINE SMOOTH",
"626 200 OFFCURVE",
"740 318 OFFCURVE",
"740 507 CURVE SMOOTH",
"740 615 OFFCURVE",
"705 660 OFFCURVE",
"544 660 CURVE SMOOTH",
"497 660 LINE SMOOTH",
"382 660 OFFCURVE",
"262 662 OFFCURVE",
"178 687 CURVE",
"58 527 LINE",
"142 502 OFFCURVE",
"262 500 OFFCURVE",
"377 500 CURVE SMOOTH",
"424 500 LINE SMOOTH",
"585 500 OFFCURVE",
"620 455 OFFCURVE",
"620 347 CURVE SMOOTH",
"620 158 OFFCURVE",
"506 40 OFFCURVE",
"336 13 CURVE SMOOTH",
"210 -7 LINE"
);
}
);
};
layerId = "A396904D-C838-4FF7-A96F-91F438939708";
paths = (
{
closed = 1;
nodes = (
"391 -8 OFFCURVE",
"496 108 OFFCURVE",
"496 297 CURVE SMOOTH",
"496 456 OFFCURVE",
"425 500 OFFCURVE",
"286 500 CURVE SMOOTH",
"161 500 LINE SMOOTH",
"143 500 OFFCURVE",
"119 501 OFFCURVE",
"93 512 CURVE",
"68 512 LINE",
"53 472 OFFCURVE",
"34 399 OFFCURVE",
"33 346 CURVE",
"107 335 OFFCURVE",
"137 336 OFFCURVE",
"180 336 CURVE SMOOTH",
"313 336 LINE SMOOTH",
"371 336 OFFCURVE",
"385 309 OFFCURVE",
"385 264 CURVE SMOOTH",
"385 191 OFFCURVE",
"336 151 OFFCURVE",
"258 151 CURVE SMOOTH",
"189 151 OFFCURVE",
"179 164 OFFCURVE",
"177 259 CURVE SMOOTH",
"176 288 OFFCURVE",
"169 348 OFFCURVE",
"158 372 CURVE",
"33 346 LINE",
"71 304 OFFCURVE",
"71 304 OFFCURVE",
"79 213 CURVE SMOOTH",
"94 45 OFFCURVE",
"119 -8 OFFCURVE",
"242 -8 CURVE SMOOTH"
);
}
);
width = 538;
},
{
background = {
paths = (
{
closed = 1;
nodes = (
"116 440 OFFCURVE",
"245 438 OFFCURVE",
"361 438 CURVE SMOOTH",
"408 438 LINE SMOOTH",
"526 438 OFFCURVE",
"539 425 OFFCURVE",
"539 347 CURVE SMOOTH",
"539 196 OFFCURVE",
"456 97 OFFCURVE",
"310 74 CURVE SMOOTH",
"255 65 LINE",
"241 282 LINE SMOOTH",
"239 310 OFFCURVE",
"238 333 OFFCURVE",
"238 357 CURVE SMOOTH",
"238 400 OFFCURVE",
"241 440 OFFCURVE",
"249 490 CURVE",
"121 510 LINE",
"112 453 OFFCURVE",
"108 406 OFFCURVE",
"108 357 CURVE SMOOTH",
"108 330 OFFCURVE",
"109 304 OFFCURVE",
"111 274 CURVE SMOOTH",
"133 -79 LINE",
"330 -48 LINE SMOOTH",
"540 -15 OFFCURVE",
"669 136 OFFCURVE",
"669 347 CURVE SMOOTH",
"669 501 OFFCURVE",
"592 562 OFFCURVE",
"408 562 CURVE SMOOTH",
"361 562 LINE SMOOTH",
"247 562 OFFCURVE",
"136 564 OFFCURVE",
"61 586 CURVE",
"23 468 LINE"
);
}
);
};
layerId = "FB8990CA-0F96-4B7B-86A4-9D429D534475";
paths = (
{
closed = 1;
nodes = (
"467 -10 OFFCURVE",
"562 101 OFFCURVE",
"562 275 CURVE SMOOTH",
"562 431 OFFCURVE",
"493 500 OFFCURVE",
"294 500 CURVE SMOOTH",
"110 500 LINE SMOOTH",
"86 500 OFFCURVE",
"72 500 OFFCURVE",
"38 500 CURVE",
"12 500 LINE",
"12 479 OFFCURVE",
"12 400 OFFCURVE",
"12 374 CURVE",
"36 374 OFFCURVE",
"59 374 OFFCURVE",
"83 374 CURVE",
"294 374 LINE SMOOTH",
"377 374 OFFCURVE",
"425 358 OFFCURVE",
"425 275 CURVE SMOOTH",
"425 173 OFFCURVE",
"389 128 OFFCURVE",
"312 128 CURVE SMOOTH",
"236 128 OFFCURVE",
"202 160 OFFCURVE",
"202 271 CURVE SMOOTH",
"202 305 OFFCURVE",
"202 356 OFFCURVE",
"202 406 CURVE",
"66 406 LINE",
"66 354 OFFCURVE",
"66 303 OFFCURVE",
"66 269 CURVE SMOOTH",
"66 83 OFFCURVE",
"147 -10 OFFCURVE",
"312 -10 CURVE SMOOTH"
);
}
);
width = 604;
},
{
background = {
paths = (
{
closed = 1;
nodes = (
"132 411 OFFCURVE",
"202 405 OFFCURVE",
"374 405 CURVE SMOOTH",
"421 405 LINE SMOOTH",
"580 405 OFFCURVE",
"590 395 OFFCURVE",
"590 347 CURVE SMOOTH",
"590 214 OFFCURVE",
"504 135 OFFCURVE",
"329 107 CURVE SMOOTH",
"228 91 LINE",
"216 284 LINE SMOOTH",
"214 314 OFFCURVE",
"213 333 OFFCURVE",
"213 357 CURVE SMOOTH",
"213 398 OFFCURVE",
"216 429 OFFCURVE",
"225 485 CURVE",
"171 515 LINE",
"163 463 OFFCURVE",
"159 408 OFFCURVE",
"159 357 CURVE SMOOTH",
"159 329 OFFCURVE",
"160 299 OFFCURVE",
"162 272 CURVE SMOOTH",
"186 -105 LINE",
"337 -81 LINE SMOOTH",
"522 -51 OFFCURVE",
"644 118 OFFCURVE",
"644 347 CURVE SMOOTH",
"644 528 OFFCURVE",
"587 595 OFFCURVE",
"421 595 CURVE SMOOTH",
"374 595 LINE SMOOTH",
"215 595 OFFCURVE",
"112 604 OFFCURVE",
"63 618 CURVE",
"47 436 LINE"
);
}
);
};
layerId = "E84AB450-BED0-484C-851E-2EB7B7ED9E73";
paths = (
{
closed = 1;
nodes = (
"316 -7 OFFCURVE",
"386 52 OFFCURVE",
"386 257 CURVE SMOOTH",
"386 464 OFFCURVE",
"340 486 OFFCURVE",
"218 486 CURVE SMOOTH",
"134 486 LINE SMOOTH",
"87 486 OFFCURVE",
"68 489 OFFCURVE",
"63 512 CURVE",
"32 512 LINE",
"21 478 OFFCURVE",
"16 437 OFFCURVE",
"16 396 CURVE SMOOTH",
"16 325 OFFCURVE",
"48 305 OFFCURVE",
"134 305 CURVE SMOOTH",
"242 305 LINE SMOOTH",
"310 305 OFFCURVE",
"336 297 OFFCURVE",
"336 256 CURVE SMOOTH",
"336 194 OFFCURVE",
"292 162 OFFCURVE",
"206 162 CURVE SMOOTH",
"150 162 OFFCURVE",
"111 181 OFFCURVE",
"111 244 CURVE SMOOTH",
"111 272 OFFCURVE",
"117 292 OFFCURVE",
"134 328 CURVE",
"89 328 LINE",
"69 292 OFFCURVE",
"54 254 OFFCURVE",
"54 194 CURVE SMOOTH",
"54 46 OFFCURVE",
"129 -7 OFFCURVE",
"207 -7 CURVE SMOOTH"
);
}
);
width = 424;
},
{
background = {
paths = (
{
closed = 1;
nodes = (
"123 452 OFFCURVE",
"209 445 OFFCURVE",
"376 445 CURVE SMOOTH",
"423 445 LINE SMOOTH",
"565 445 OFFCURVE",
"594 424 OFFCURVE",
"594 347 CURVE SMOOTH",
"594 194 OFFCURVE",
"501 94 OFFCURVE",
"331 67 CURVE SMOOTH",
"230 51 LINE",
"216 282 LINE SMOOTH",
"214 311 OFFCURVE",
"213 333 OFFCURVE",
"213 357 CURVE SMOOTH",
"213 400 OFFCURVE",
"216 438 OFFCURVE",
"225 492 CURVE",
"175 508 LINE",
"167 455 OFFCURVE",
"163 405 OFFCURVE",
"163 357 CURVE SMOOTH",
"163 330 OFFCURVE",
"164 302 OFFCURVE",
"166 274 CURVE SMOOTH",
"188 -65 LINE",
"339 -41 LINE SMOOTH",
"526 -12 OFFCURVE",
"644 139 OFFCURVE",
"644 347 CURVE SMOOTH",
"644 502 OFFCURVE",
"585 555 OFFCURVE",
"423 555 CURVE SMOOTH",
"376 555 LINE SMOOTH",
"214 555 OFFCURVE",
"123 562 OFFCURVE",
"64 580 CURVE",
"50 474 LINE"
);
}
);
};
layerId = "C42C1682-C410-46D1-BF5A-F68DB0880154";
paths = (
{
closed = 1;
nodes = (
"353 -8 OFFCURVE",
"418 96 OFFCURVE",
"418 249 CURVE SMOOTH",
"418 412 OFFCURVE",
"361 486 OFFCURVE",
"231 486 CURVE SMOOTH",
"129 486 LINE SMOOTH",
"90 486 OFFCURVE",
"81 492 OFFCURVE",
"71 512 CURVE",
"49 512 LINE",
"38 489 OFFCURVE",
"33 459 OFFCURVE",
"33 435 CURVE SMOOTH",
"33 382 OFFCURVE",
"46 377 OFFCURVE",
"129 377 CURVE SMOOTH",
"231 377 LINE SMOOTH",
"335 377 OFFCURVE",
"373 336 OFFCURVE",
"373 249 CURVE SMOOTH",
"373 137 OFFCURVE",
"314 99 OFFCURVE",
"234 99 CURVE SMOOTH",
"157 99 OFFCURVE",
"114 146 OFFCURVE",
"114 233 CURVE SMOOTH",
"114 310 OFFCURVE",
"137 354 OFFCURVE",
"167 396 CURVE",
"128 396 LINE",
"92 360 OFFCURVE",
"63 289 OFFCURVE",
"63 209 CURVE SMOOTH",
"63 63 OFFCURVE",
"126 -8 OFFCURVE",
"226 -8 CURVE SMOOTH"
);
}
);
width = 461;
},
{
background = {
paths = (
{
closed = 1;
nodes = (
"109 467 OFFCURVE",
"234 465 OFFCURVE",
"349 465 CURVE SMOOTH",
"396 465 LINE SMOOTH",
"529 465 OFFCURVE",
"557 442 OFFCURVE",
"557 347 CURVE SMOOTH",
"557 183 OFFCURVE",
"463 73 OFFCURVE",
"303 48 CURVE SMOOTH",
"215 34 LINE",
"199 280 LINE SMOOTH",
"197 308 OFFCURVE",
"196 332 OFFCURVE",
"196 357 CURVE SMOOTH",
"196 401 OFFCURVE",
"199 442 OFFCURVE",
"208 495 CURVE",
"138 505 LINE",
"130 450 OFFCURVE",
"126 405 OFFCURVE",
"126 357 CURVE SMOOTH",
"126 331 OFFCURVE",
"127 306 OFFCURVE",
"129 276 CURVE SMOOTH",
"149 -48 LINE",
"313 -22 LINE SMOOTH",
"508 9 OFFCURVE",
"627 149 OFFCURVE",
"627 347 CURVE SMOOTH",
"627 485 OFFCURVE",
"565 535 OFFCURVE",
"396 535 CURVE SMOOTH",
"349 535 LINE SMOOTH",
"234 535 OFFCURVE",
"119 537 OFFCURVE",
"40 561 CURVE",
"20 493 LINE"
);
}
);
};
layerId = "798D7B20-9AF4-495F-9307-CAE61518AA1C";
paths = (
{
closed = 1;
nodes = (
"419 0 OFFCURVE",
"501 108 OFFCURVE",
"501 281 CURVE SMOOTH",
"501 425 OFFCURVE",
"420 477 OFFCURVE",
"281 477 CURVE SMOOTH",
"154 477 LINE SMOOTH",
"115 477 OFFCURVE",
"79 477 OFFCURVE",
"38 477 CURVE",
"20 477 LINE",
"20 455 OFFCURVE",
"20 432 OFFCURVE",
"20 407 CURVE",
"38 407 OFFCURVE",
"111 407 OFFCURVE",
"154 407 CURVE SMOOTH",
"281 407 LINE SMOOTH",
"381 407 OFFCURVE",
"425 375 OFFCURVE",
"425 281 CURVE SMOOTH",
"425 148 OFFCURVE",
"382 70 OFFCURVE",
"279 70 CURVE SMOOTH",
"195 70 OFFCURVE",
"160 125 OFFCURVE",
"159 243 CURVE",
"159 305 OFFCURVE",
"159 367 OFFCURVE",
"159 429 CURVE",
"83 429 LINE",
"83 366 OFFCURVE",
"83 305 OFFCURVE",
"83 243 CURVE SMOOTH",
"83 85 OFFCURVE",
"149 0 OFFCURVE",
"279 0 CURVE SMOOTH"
);
}
);
width = 547;
},
{
background = {
paths = (
{
closed = 1;
nodes = (
"183 278 LINE SMOOTH",
"181 306 OFFCURVE",
"180 331 OFFCURVE",
"180 357 CURVE SMOOTH",
"180 399 OFFCURVE",
"183 442 OFFCURVE",
"192 500 CURVE",
"267 590 LINE",
"258 532 OFFCURVE",
"255 489 OFFCURVE",
"255 447 CURVE SMOOTH",
"255 421 OFFCURVE",
"256 396 OFFCURVE",
"258 368 CURVE SMOOTH",
"276 83 LINE",
"402 103 LINE SMOOTH",
"572 130 OFFCURVE",
"686 248 OFFCURVE",
"686 437 CURVE SMOOTH",
"686 545 OFFCURVE",
"651 590 OFFCURVE",
"490 590 CURVE SMOOTH",
"443 590 LINE SMOOTH",
"328 590 OFFCURVE",
"208 592 OFFCURVE",
"124 617 CURVE",
"49 527 LINE",
"133 502 OFFCURVE",
"253 500 OFFCURVE",
"368 500 CURVE SMOOTH",
"415 500 LINE SMOOTH",
"576 500 OFFCURVE",
"611 455 OFFCURVE",
"611 347 CURVE SMOOTH",
"611 158 OFFCURVE",
"497 40 OFFCURVE",
"327 13 CURVE SMOOTH",
"201 -7 LINE"
);
}
);
};
layerId = "5539344D-F27C-4FBD-A9E2-D2F022F19CCA";
paths = (
{
closed = 1;
nodes = (
"386 -4 OFFCURVE",
"479 109 OFFCURVE",
"479 305 CURVE SMOOTH",
"479 433 OFFCURVE",
"443 500 OFFCURVE",
"282 500 CURVE SMOOTH",
"197 500 LINE SMOOTH",
"137 500 OFFCURVE",
"100 504 OFFCURVE",
"81 513 CURVE",
"59 513 LINE",
"47 486 OFFCURVE",
"37 456 OFFCURVE",
"34 433 CURVE",
"57 416 OFFCURVE",
"120 411 OFFCURVE",
"166 411 CURVE SMOOTH",
"282 411 LINE SMOOTH",
"394 411 OFFCURVE",
"412 370 OFFCURVE",
"412 298 CURVE SMOOTH",
"412 168 OFFCURVE",
"360 87 OFFCURVE",
"255 87 CURVE SMOOTH",
"177 87 OFFCURVE",
"148 126 OFFCURVE",
"140 247 CURVE SMOOTH",
"135 327 OFFCURVE",
"128 383 OFFCURVE",
"107 445 CURVE",
"34 433 LINE",
"62 378 OFFCURVE",
"67 336 OFFCURVE",
"73 233 CURVE SMOOTH",
"82 67 OFFCURVE",
"138 -4 OFFCURVE",
"254 -4 CURVE SMOOTH"
);
}
);
width = 538;
}
);
unicode = 05E1;
},
{
color = 4;
glyphname = "ayin-hb";
lastChange = "2019-06-11 07:29:36 +0000";
layers = (
{
associatedMasterId = "D0BE0C1E-19E7-43D2-9BC3-AB141F408D31";
background = {
paths = (
{
closed = 1;
nodes = (
"419 439 LINE SMOOTH",
"472 418 OFFCURVE",
"478 408 OFFCURVE",
"475 373 CURVE SMOOTH",
"468 284 LINE SMOOTH",
"460 177 OFFCURVE",
"412 120 OFFCURVE",
"295 81 CURVE SMOOTH",
"109 18 LINE",
"151 -100 LINE",
"337 -37 LINE SMOOTH",
"502 19 OFFCURVE",
"586 118 OFFCURVE",
"598 274 CURVE SMOOTH",
"605 363 LINE SMOOTH",
"612 458 OFFCURVE",
"571 513 OFFCURVE",
"467 555 CURVE SMOOTH",
"402 581 LINE",
"354 465 LINE"
);
},
{
closed = 1;
nodes = (
"160 407 OFFCURVE",
"175 387 OFFCURVE",
"192 325 CURVE SMOOTH",
"279 17 LINE",
"405 51 LINE",
"318 359 LINE SMOOTH",
"292 448 OFFCURVE",
"257 493 OFFCURVE",
"167 555 CURVE",
"93 453 LINE"
);
}
);
};
layerId = "0D2F9F62-6D50-490D-B425-4005BBEB55D2";
name = Paths;
paths = (
{
closed = 0;
nodes = (
"130 -41 LINE",
"316 22 LINE SMOOTH",
"456 69 OFFCURVE",
"523 147 OFFCURVE",
"533 279 CURVE SMOOTH",
"540 368 LINE SMOOTH",
"545 437 OFFCURVE",
"517 467 OFFCURVE",
"443 497 CURVE SMOOTH",
"378 523 LINE"
);
},
{
closed = 0;
nodes = (
"342 34 LINE",
"255 342 LINE SMOOTH",
"235 412 OFFCURVE",
"214 446 OFFCURVE",
"130 504 CURVE"
);
}
);
width = 700;
},
{
background = {
paths = (
{
closed = 1;
nodes = (
"180 59 LINE",
"366 122 LINE SMOOTH",
"506 169 OFFCURVE",
"573 247 OFFCURVE",
"583 379 CURVE SMOOTH",
"590 468 LINE SMOOTH",
"595 537 OFFCURVE",
"567 567 OFFCURVE",
"493 597 CURVE SMOOTH",
"428 623 LINE",
"368 523 LINE",
"433 497 LINE SMOOTH",
"507 467 OFFCURVE",
"535 437 OFFCURVE",
"530 368 CURVE SMOOTH",
"523 279 LINE SMOOTH",
"513 147 OFFCURVE",
"446 69 OFFCURVE",
"306 22 CURVE SMOOTH",
"120 -41 LINE"
);
},
{
closed = 1;
nodes = (
"392 134 LINE",
"305 442 LINE SMOOTH",
"285 512 OFFCURVE",
"264 546 OFFCURVE",
"180 604 CURVE",
"120 504 LINE",
"204 446 OFFCURVE",
"225 412 OFFCURVE",
"245 342 CURVE SMOOTH",
"332 34 LINE"
);
}
);
};
layerId = "D0BE0C1E-19E7-43D2-9BC3-AB141F408D31";
paths = (
{
closed = 1;
nodes = (
"120 -9 OFFCURVE",
"162 4 OFFCURVE",
"214 23 CURVE SMOOTH",
"371 76 OFFCURVE",
"441 176 OFFCURVE",
"441 349 CURVE SMOOTH",
"441 453 OFFCURVE",
"407 479 OFFCURVE",
"351 501 CURVE SMOOTH",
"338 506 OFFCURVE",
"327 509 OFFCURVE",
"317 514 CURVE",
"299 514 LINE",
"288 482 OFFCURVE",
"275 449 OFFCURVE",
"273 420 CURVE",
"299 409 OFFCURVE",
"322 401 OFFCURVE",
"344 389 CURVE SMOOTH",
"362 379 OFFCURVE",
"378 373 OFFCURVE",
"378 323 CURVE SMOOTH",
"378 189 OFFCURVE",
"327 160 OFFCURVE",
"202 113 CURVE SMOOTH",
"156 93 OFFCURVE",
"118 90 OFFCURVE",
"72 76 CURVE",
"60 59 OFFCURVE",
"48 -10 OFFCURVE",
"49 -24 CURVE"
);
},
{
closed = 1;
nodes = (
"232 92 LINE",
"223 179 OFFCURVE",
"214 236 OFFCURVE",
"195 348 CURVE SMOOTH",
"181 433 OFFCURVE",
"166 459 OFFCURVE",
"123 486 CURVE SMOOTH",
"109 495 OFFCURVE",
"96 504 OFFCURVE",
"85 509 CURVE",
"61 509 LINE",
"48 480 OFFCURVE",
"40 442 OFFCURVE",
"32 410 CURVE",
"52 401 OFFCURVE",
"69 395 OFFCURVE",
"88 383 CURVE SMOOTH",
"118 364 OFFCURVE",
"127 354 OFFCURVE",
"142 284 CURVE SMOOTH",
"163 190 OFFCURVE",
"171 151 OFFCURVE",
"186 79 CURVE"
);
}
);
width = 504;
},
{
background = {
paths = (
{
closed = 1;
nodes = (
"268 139 LINE",
"454 202 LINE SMOOTH",
"594 249 OFFCURVE",
"661 327 OFFCURVE",
"671 459 CURVE SMOOTH",
"678 548 LINE SMOOTH",
"683 617 OFFCURVE",
"655 647 OFFCURVE",
"581 677 CURVE SMOOTH",
"516 703 LINE",
"431 523 LINE",
"496 497 LINE SMOOTH",
"570 467 OFFCURVE",
"598 437 OFFCURVE",
"593 368 CURVE SMOOTH",
"586 279 LINE SMOOTH",
"576 147 OFFCURVE",
"509 69 OFFCURVE",
"369 22 CURVE SMOOTH",
"183 -41 LINE"
);
},
{
closed = 1;
nodes = (
"480 214 LINE",
"393 522 LINE SMOOTH",
"373 592 OFFCURVE",
"352 626 OFFCURVE",
"268 684 CURVE",
"183 504 LINE",
"267 446 OFFCURVE",
"288 412 OFFCURVE",
"308 342 CURVE SMOOTH",
"395 34 LINE"
);
}
);
};
layerId = "AFDF4EF8-A213-4348-ACF7-371209F0497C";
paths = (
{
closed = 1;
nodes = (
"99 -29 OFFCURVE",
"165 -5 OFFCURVE",
"225 17 CURVE SMOOTH",
"383 70 OFFCURVE",
"431 152 OFFCURVE",
"431 316 CURVE SMOOTH",
"431 433 OFFCURVE",
"409 469 OFFCURVE",
"332 499 CURVE SMOOTH",
"309 508 OFFCURVE",
"299 508 OFFCURVE",
"292 508 CURVE",
"279 508 LINE",
"268 472 OFFCURVE",
"249 376 OFFCURVE",
"253 329 CURVE",
"276 322 OFFCURVE",
"294 317 OFFCURVE",
"314 309 CURVE SMOOTH",
"338 299 OFFCURVE",
"345 291 OFFCURVE",
"345 263 CURVE SMOOTH",
"345 220 OFFCURVE",
"336 211 OFFCURVE",
"198 169 CURVE SMOOTH",
"140 149 OFFCURVE",
"105 139 OFFCURVE",
"60 125 CURVE",
"50 101 OFFCURVE",
"31 -4 OFFCURVE",
"32 -44 CURVE"
);
},
{
closed = 1;
nodes = (
"226 84 LINE",
"219 170 OFFCURVE",
"203 263 OFFCURVE",
"193 349 CURVE SMOOTH",
"180 460 OFFCURVE",
"164 480 OFFCURVE",
"106 497 CURVE SMOOTH",
"96 500 OFFCURVE",
"87 502 OFFCURVE",
"82 503 CURVE",
"57 503 LINE",
"40 461 OFFCURVE",
"19 380 OFFCURVE",
"16 327 CURVE",
"41 318 OFFCURVE",
"68 313 OFFCURVE",
"84 301 CURVE SMOOTH",
"101 289 OFFCURVE",
"111 284 OFFCURVE",
"122 227 CURVE SMOOTH",
"134 166 OFFCURVE",
"143 136 OFFCURVE",
"158 59 CURVE"
);
}
);
width = 483;
},
{
background = {
paths = (
{
closed = 1;
nodes = (
"250 119 LINE",
"436 182 LINE SMOOTH",
"576 229 OFFCURVE",
"643 307 OFFCURVE",
"653 439 CURVE SMOOTH",
"660 528 LINE SMOOTH",
"665 597 OFFCURVE",
"637 627 OFFCURVE",
"563 657 CURVE SMOOTH",
"498 683 LINE",
"378 523 LINE",
"443 497 LINE SMOOTH",
"517 467 OFFCURVE",
"545 437 OFFCURVE",
"540 368 CURVE SMOOTH",
"533 279 LINE SMOOTH",
"523 147 OFFCURVE",
"456 69 OFFCURVE",
"316 22 CURVE SMOOTH",
"130 -41 LINE"
);
},
{
closed = 1;
nodes = (
"462 194 LINE",
"375 502 LINE SMOOTH",
"355 572 OFFCURVE",
"334 606 OFFCURVE",
"250 664 CURVE",
"130 504 LINE",
"214 446 OFFCURVE",
"235 412 OFFCURVE",
"255 342 CURVE SMOOTH",
"342 34 LINE"
);
}
);
};
layerId = "A396904D-C838-4FF7-A96F-91F438939708";
paths = (
{
closed = 1;
nodes = (
"93 -33 OFFCURVE",
"182 -5 OFFCURVE",
"248 16 CURVE SMOOTH",
"396 63 OFFCURVE",
"454 151 OFFCURVE",
"454 315 CURVE SMOOTH",
"454 437 OFFCURVE",
"441 464 OFFCURVE",
"363 491 CURVE SMOOTH",
"322 505 OFFCURVE",
"312 507 OFFCURVE",
"305 507 CURVE",
"292 507 LINE",
"281 471 OFFCURVE",
"262 377 OFFCURVE",
"266 330 CURVE",
"281 324 OFFCURVE",
"295 321 OFFCURVE",
"317 314 CURVE SMOOTH",
"335 308 OFFCURVE",
"347 290 OFFCURVE",
"347 252 CURVE SMOOTH",
"347 211 OFFCURVE",
"342 185 OFFCURVE",
"251 162 CURVE SMOOTH",
"159 139 OFFCURVE",
"108 127 OFFCURVE",
"63 113 CURVE",
"53 89 OFFCURVE",
"25 -9 OFFCURVE",
"26 -48 CURVE"
);
},
{
closed = 1;
nodes = (
"247 83 LINE",
"240 169 OFFCURVE",
"226 259 OFFCURVE",
"211 385 CURVE SMOOTH",
"201 469 OFFCURVE",
"182 482 OFFCURVE",
"140 496 CURVE SMOOTH",
"113 505 OFFCURVE",
"101 509 OFFCURVE",
"88 510 CURVE",
"63 510 LINE",
"50 466 OFFCURVE",
"33 380 OFFCURVE",
"32 322 CURVE",
"66 313 OFFCURVE",
"80 306 OFFCURVE",
"92 301 CURVE SMOOTH",
"108 294 OFFCURVE",
"115 279 OFFCURVE",
"124 230 CURVE SMOOTH",
"135 169 OFFCURVE",
"141 135 OFFCURVE",
"156 58 CURVE"
);
}
);
width = 497;
},
{
background = {
paths = (
{
closed = 1;
nodes = (
"215 49 LINE",
"401 112 LINE SMOOTH",
"541 159 OFFCURVE",
"608 237 OFFCURVE",
"618 369 CURVE SMOOTH",
"625 458 LINE SMOOTH",
"630 527 OFFCURVE",
"602 557 OFFCURVE",
"528 587 CURVE SMOOTH",
"463 613 LINE",
"388 523 LINE",
"453 497 LINE SMOOTH",
"527 467 OFFCURVE",
"555 437 OFFCURVE",
"550 368 CURVE SMOOTH",
"543 279 LINE SMOOTH",
"533 147 OFFCURVE",
"466 69 OFFCURVE",
"326 22 CURVE SMOOTH",
"140 -41 LINE"
);
},
{
closed = 1;
nodes = (
"427 124 LINE",
"340 432 LINE SMOOTH",
"320 502 OFFCURVE",
"299 536 OFFCURVE",
"215 594 CURVE",
"140 504 LINE",
"224 446 OFFCURVE",
"245 412 OFFCURVE",
"265 342 CURVE SMOOTH",
"352 34 LINE"
);
}
);
};
layerId = "5539344D-F27C-4FBD-A9E2-D2F022F19CCA";
paths = (
{
closed = 1;
nodes = (
"112 -17 OFFCURVE",
"159 -4 OFFCURVE",
"216 15 CURVE SMOOTH",
"374 68 OFFCURVE",
"443 173 OFFCURVE",
"443 351 CURVE SMOOTH",
"443 455 OFFCURVE",
"409 481 OFFCURVE",
"353 503 CURVE SMOOTH",
"340 508 OFFCURVE",
"329 511 OFFCURVE",
"319 516 CURVE",
"301 517 LINE",
"290 485 OFFCURVE",
"277 458 OFFCURVE",
"275 429 CURVE",
"301 418 OFFCURVE",
"322 410 OFFCURVE",
"344 398 CURVE SMOOTH",
"361 389 OFFCURVE",
"372 375 OFFCURVE",
"372 325 CURVE SMOOTH",
"372 185 OFFCURVE",
"329 142 OFFCURVE",
"204 101 CURVE SMOOTH",
"152 84 OFFCURVE",
"109 76 OFFCURVE",
"57 64 CURVE",
"45 47 OFFCURVE",
"33 -18 OFFCURVE",
"34 -32 CURVE"
);
},
{
closed = 1;
nodes = (
"228 84 LINE",
"219 174 OFFCURVE",
"210 241 OFFCURVE",
"190 367 CURVE SMOOTH",
"178 442 OFFCURVE",
"162 461 OFFCURVE",
"119 488 CURVE SMOOTH",
"105 497 OFFCURVE",
"85 506 OFFCURVE",
"74 511 CURVE",
"50 511 LINE",
"37 485 OFFCURVE",
"29 449 OFFCURVE",
"21 420 CURVE",
"41 411 OFFCURVE",
"65 405 OFFCURVE",
"84 393 CURVE SMOOTH",
"105 380 OFFCURVE",
"115 368 OFFCURVE",
"130 286 CURVE SMOOTH",
"148 187 OFFCURVE",
"154 139 OFFCURVE",
"167 67 CURVE"
);
}
);
width = 515;
},
{
background = {
paths = (
{
closed = 1;
nodes = (
"417 465 LINE SMOOTH",
"482 438 OFFCURVE",
"496 420 OFFCURVE",
"492 371 CURVE SMOOTH",
"485 282 LINE SMOOTH",
"476 165 OFFCURVE",
"420 98 OFFCURVE",
"292 55 CURVE SMOOTH",
"106 -8 LINE",
"128 -74 LINE",
"314 -11 LINE SMOOTH",
"468 40 OFFCURVE",
"544 131 OFFCURVE",
"555 276 CURVE SMOOTH",
"562 365 LINE SMOOTH",
"568 447 OFFCURVE",
"535 492 OFFCURVE",
"443 529 CURVE SMOOTH",
"378 555 LINE",
"352 491 LINE"
);
},
{
closed = 1;
nodes = (
"170 425 OFFCURVE",
"189 400 OFFCURVE",
"208 332 CURVE SMOOTH",
"295 24 LINE",
"363 44 LINE",
"276 352 LINE SMOOTH",
"252 435 OFFCURVE",
"221 475 OFFCURVE",
"137 533 CURVE",
"97 475 LINE"
);
}
);
};
layerId = "798D7B20-9AF4-495F-9307-CAE61518AA1C";
paths = (
{
closed = 1;
nodes = (
"94 1 OFFCURVE",
"136 0 OFFCURVE",
"157 0 CURVE SMOOTH",
"381 0 OFFCURVE",
"465 70 OFFCURVE",
"465 295 CURVE SMOOTH",
"465 443 OFFCURVE",
"410 477 OFFCURVE",
"332 477 CURVE SMOOTH",
"324 477 OFFCURVE",
"294 477 OFFCURVE",
"284 477 CURVE",
"276 477 LINE",
"276 454 OFFCURVE",
"276 430 OFFCURVE",
"276 407 CURVE",
"295 407 OFFCURVE",
"324 407 OFFCURVE",
"329 407 CURVE SMOOTH",
"368 407 OFFCURVE",
"389 395 OFFCURVE",
"389 295 CURVE SMOOTH",
"389 109 OFFCURVE",
"346 70 OFFCURVE",
"157 70 CURVE SMOOTH",
"147 70 OFFCURVE",
"85 70 OFFCURVE",
"46 70 CURVE",
"46 63 OFFCURVE",
"46 7 OFFCURVE",
"46 0 CURVE"
);
},
{
closed = 1;
nodes = (
"201 0 LINE",
"201 91 OFFCURVE",
"201 341 OFFCURVE",
"201 386 CURVE SMOOTH",
"201 457 OFFCURVE",
"181 477 OFFCURVE",
"104 477 CURVE SMOOTH",
"75 477 OFFCURVE",
"83 477 OFFCURVE",
"61 477 CURVE",
"47 477 LINE",
"47 455 OFFCURVE",
"47 432 OFFCURVE",
"47 407 CURVE",
"65 407 OFFCURVE",
"89 407 OFFCURVE",
"104 407 CURVE SMOOTH",
"122 407 OFFCURVE",
"125 403 OFFCURVE",
"125 376 CURVE SMOOTH",
"125 124 OFFCURVE",
"125 269 OFFCURVE",
"125 0 CURVE"
);
}
);
width = 519;
},
{
background = {
paths = (
{
closed = 1;
nodes = (
"444 446 LINE SMOOTH",
"523 414 OFFCURVE",
"528 408 OFFCURVE",
"525 372 CURVE SMOOTH",
"518 283 LINE SMOOTH",
"510 178 OFFCURVE",
"455 120 OFFCURVE",
"318 74 CURVE SMOOTH",
"132 11 LINE",
"148 -93 LINE",
"334 -30 LINE SMOOTH",
"480 19 OFFCURVE",
"556 118 OFFCURVE",
"568 275 CURVE SMOOTH",
"575 364 LINE SMOOTH",
"582 457 OFFCURVE",
"546 514 OFFCURVE",
"462 548 CURVE SMOOTH",
"397 574 LINE",
"379 472 LINE"
);
},
{
closed = 1;
nodes = (
"209 401 OFFCURVE",
"225 383 OFFCURVE",
"241 327 CURVE SMOOTH",
"328 19 LINE",
"376 49 LINE",
"289 357 LINE SMOOTH",
"262 453 OFFCURVE",
"233 495 OFFCURVE",
"154 549 CURVE",
"126 459 LINE"
);
}
);
};
layerId = "C42C1682-C410-46D1-BF5A-F68DB0880154";
paths = (
{
closed = 1;
nodes = (
"74 -9 OFFCURVE",
"97 -8 OFFCURVE",
"133 0 CURVE SMOOTH",
"339 48 OFFCURVE",
"406 204 OFFCURVE",
"406 317 CURVE SMOOTH",
"406 446 OFFCURVE",
"383 492 OFFCURVE",
"324 492 CURVE SMOOTH",
"296 492 OFFCURVE",
"282 493 OFFCURVE",
"267 512 CURVE",
"249 512 LINE",
"242 488 OFFCURVE",
"239 465 OFFCURVE",
"239 437 CURVE SMOOTH",
"239 374 OFFCURVE",
"263 374 OFFCURVE",
"310 374 CURVE SMOOTH",
"349 374 OFFCURVE",
"361 370 OFFCURVE",
"361 317 CURVE SMOOTH",
"361 215 OFFCURVE",
"318 139 OFFCURVE",
"127 101 CURVE SMOOTH",
"109 97 OFFCURVE",
"84 95 OFFCURVE",
"57 93 CURVE",
"51 44 OFFCURVE",
"45 -13 OFFCURVE",
"51 -11 CURVE"
);
},
{
closed = 1;
nodes = (
"250 70 LINE",
"215 110 OFFCURVE",
"172 225 OFFCURVE",
"172 319 CURVE SMOOTH",
"172 473 OFFCURVE",
"148 486 OFFCURVE",
"98 486 CURVE SMOOTH",
"71 486 OFFCURVE",
"65 497 OFFCURVE",
"59 512 CURVE",
"37 512 LINE",
"26 489 OFFCURVE",
"24 467 OFFCURVE",
"24 444 CURVE SMOOTH",
"24 390 OFFCURVE",
"37 374 OFFCURVE",
"88 374 CURVE SMOOTH",
"122 374 OFFCURVE",
"128 366 OFFCURVE",
"128 318 CURVE SMOOTH",
"128 220 OFFCURVE",
"170 126 OFFCURVE",
"206 70 CURVE"
);
}
);
width = 456;
},
{
background = {
paths = (
{
closed = 1;
nodes = (
"465 409 LINE SMOOTH",
"600 354 OFFCURVE",
"549 436 OFFCURVE",
"545 375 CURVE SMOOTH",
"538 286 LINE SMOOTH",
"532 201 OFFCURVE",
"486 161 OFFCURVE",
"339 112 CURVE SMOOTH",
"153 49 LINE",
"171 -131 LINE",
"357 -68 LINE SMOOTH",
"501 -20 OFFCURVE",
"579 95 OFFCURVE",
"592 272 CURVE SMOOTH",
"599 361 LINE SMOOTH",
"607 466 OFFCURVE",
"572 550 OFFCURVE",
"485 585 CURVE SMOOTH",
"420 611 LINE",
"400 435 LINE"
);
},
{
closed = 1;
nodes = (
"250 354 OFFCURVE",
"248 361 OFFCURVE",
"261 316 CURVE SMOOTH",
"348 8 LINE",
"400 60 LINE",
"313 368 LINE SMOOTH",
"281 481 OFFCURVE",
"255 528 OFFCURVE",
"177 582 CURVE",
"147 426 LINE"
);
}
);
};
layerId = "E84AB450-BED0-484C-851E-2EB7B7ED9E73";
paths = (
{
closed = 1;
nodes = (
"76 -12 OFFCURVE",
"105 -11 OFFCURVE",
"144 -3 CURVE SMOOTH",
"334 37 OFFCURVE",
"391 144 OFFCURVE",
"391 278 CURVE SMOOTH",
"391 477 OFFCURVE",
"368 492 OFFCURVE",
"314 492 CURVE SMOOTH",
"291 492 OFFCURVE",
"279 493 OFFCURVE",
"267 512 CURVE",
"239 512 LINE",
"232 476 OFFCURVE",
"224 441 OFFCURVE",
"224 398 CURVE SMOOTH",
"224 326 OFFCURVE",
"232 304 OFFCURVE",
"300 304 CURVE SMOOTH",
"329 304 OFFCURVE",
"341 293 OFFCURVE",
"341 267 CURVE SMOOTH",
"341 218 OFFCURVE",
"289 189 OFFCURVE",
"198 174 CURVE SMOOTH",
"137 164 OFFCURVE",
"88 162 OFFCURVE",
"60 160 CURVE",
"54 78 OFFCURVE",
"48 -17 OFFCURVE",
"54 -14 CURVE"
);
},
{
closed = 1;
nodes = (
"250 160 LINE",
"192 204 OFFCURVE",
"176 251 OFFCURVE",
"176 383 CURVE SMOOTH",
"176 472 OFFCURVE",
"148 486 OFFCURVE",
"110 486 CURVE SMOOTH",
"83 486 OFFCURVE",
"77 497 OFFCURVE",
"71 512 CURVE",
"39 512 LINE",
"28 470 OFFCURVE",
"24 433 OFFCURVE",
"24 390 CURVE SMOOTH",
"24 326 OFFCURVE",
"39 304 OFFCURVE",
"99 304 CURVE SMOOTH",
"122 304 OFFCURVE",
"131 296 OFFCURVE",
"135 269 CURVE SMOOTH",
"141 226 OFFCURVE",
"152 194 OFFCURVE",
"197 154 CURVE"
);
}
);
width = 444;
},
{
background = {
paths = (
{
closed = 1;
nodes = (
"449 439 LINE SMOOTH",
"502 418 OFFCURVE",
"508 408 OFFCURVE",
"505 373 CURVE SMOOTH",
"498 284 LINE SMOOTH",
"490 177 OFFCURVE",
"442 120 OFFCURVE",
"325 81 CURVE SMOOTH",
"139 18 LINE",
"181 -100 LINE",
"367 -37 LINE SMOOTH",
"532 19 OFFCURVE",
"616 118 OFFCURVE",
"628 274 CURVE SMOOTH",
"635 363 LINE SMOOTH",
"642 458 OFFCURVE",
"601 513 OFFCURVE",
"497 555 CURVE SMOOTH",
"432 581 LINE",
"384 465 LINE"
);
},
{
closed = 1;
nodes = (
"190 407 OFFCURVE",
"205 387 OFFCURVE",
"222 325 CURVE SMOOTH",
"309 17 LINE",
"435 51 LINE",
"348 359 LINE SMOOTH",
"322 448 OFFCURVE",
"287 493 OFFCURVE",
"197 555 CURVE",
"123 453 LINE"
);
}
);
};
layerId = "FB8990CA-0F96-4B7B-86A4-9D429D534475";
paths = (
{
closed = 1;
nodes = (
"106 1 OFFCURVE",
"222 0 OFFCURVE",
"229 0 CURVE SMOOTH",
"446 0 OFFCURVE",
"543 107 OFFCURVE",
"543 295 CURVE SMOOTH",
"543 447 OFFCURVE",
"474 500 OFFCURVE",
"364 500 CURVE SMOOTH",
"347 500 OFFCURVE",
"332 500 OFFCURVE",
"316 500 CURVE",
"308 500 LINE",
"308 459 OFFCURVE",
"308 415 OFFCURVE",
"308 374 CURVE",
"330 374 OFFCURVE",
"341 374 OFFCURVE",
"347 374 CURVE SMOOTH",
"393 374 OFFCURVE",
"407 359 OFFCURVE",
"407 295 CURVE SMOOTH",
"407 163 OFFCURVE",
"382 124 OFFCURVE",
"229 124 CURVE SMOOTH",
"193 124 OFFCURVE",
"93 124 OFFCURVE",
"39 124 CURVE",
"39 117 OFFCURVE",
"39 12 OFFCURVE",
"39 0 CURVE"
);
},
{
closed = 1;
nodes = (
"242 0 LINE",
"242 76 OFFCURVE",
"242 267 OFFCURVE",
"242 374 CURVE SMOOTH",
"242 455 OFFCURVE",
"212 500 OFFCURVE",
"132 500 CURVE SMOOTH",
"79 500 OFFCURVE",
"93 500 OFFCURVE",
"53 500 CURVE",
"38 500 LINE",
"38 460 OFFCURVE",
"38 419 OFFCURVE",
"38 374 CURVE",
"56 374 OFFCURVE",
"77 374 OFFCURVE",
"92 374 CURVE SMOOTH",
"110 374 OFFCURVE",
"113 370 OFFCURVE",
"113 343 CURVE SMOOTH",
"113 117 OFFCURVE",
"113 245 OFFCURVE",
"113 0 CURVE"
);
}
);
width = 588;
}
);
unicode = 05E2;
},
{
color = 4;
glyphname = "finalpe-hb";
lastChange = "2019-06-11 07:29:36 +0000";
layers = (
{
layerId = "D0BE0C1E-19E7-43D2-9BC3-AB141F408D31";
paths = (
{
closed = 1;
nodes = (
"377 -150 LINE",
"388 -120 OFFCURVE",
"396 -86 OFFCURVE",
"404 -51 CURVE",
"411 242 OFFCURVE",
"406 123 OFFCURVE",
"402 351 CURVE",
"393 465 OFFCURVE",
"345 487 OFFCURVE",
"235 494 CURVE SMOOTH",
"189 497 LINE SMOOTH",
"120 502 OFFCURVE",
"117 503 OFFCURVE",
"84 519 CURVE",
"61 519 LINE",
"47 490 OFFCURVE",
"39 459 OFFCURVE",
"35 423 CURVE",
"71 403 OFFCURVE",
"102 399 OFFCURVE",
"178 394 CURVE SMOOTH",
"224 391 LINE SMOOTH",
"310 385 OFFCURVE",
"332 382 OFFCURVE",
"340 301 CURVE",
"345 141 OFFCURVE",
"346 -28 OFFCURVE",
"345 -150 CURVE"
);
},
{
closed = 1;
nodes = (
"184 176 OFFCURVE",
"196 249 OFFCURVE",
"200 272 CURVE",
"143 285 LINE SMOOTH",
"115 291 OFFCURVE",
"110 299 OFFCURVE",
"112 321 CURVE SMOOTH",
"114 345 OFFCURVE",
"119 387 OFFCURVE",
"130 420 CURVE",
"86 425 LINE",
"67 348 OFFCURVE",
"47 290 OFFCURVE",
"47 240 CURVE SMOOTH",
"47 212 OFFCURVE",
"55 189 OFFCURVE",
"109 178 CURVE SMOOTH",
"176 164 LINE"
);
}
);
width = 490;
},
{
layerId = "AFDF4EF8-A213-4348-ACF7-371209F0497C";
paths = (
{
closed = 1;
nodes = (
"375 -150 LINE",
"388 -94 OFFCURVE",
"401 -37 OFFCURVE",
"407 18 CURVE",
"409 105 OFFCURVE",
"407 272 OFFCURVE",
"403 356 CURVE",
"391 464 OFFCURVE",
"340 489 OFFCURVE",
"239 500 CURVE SMOOTH",
"192 505 LINE SMOOTH",
"148 510 OFFCURVE",
"122 511 OFFCURVE",
"81 519 CURVE",
"56 519 LINE",
"43 481 OFFCURVE",
"30 411 OFFCURVE",
"28 363 CURVE",
"82 350 OFFCURVE",
"113 348 OFFCURVE",
"187 341 CURVE SMOOTH",
"231 337 LINE SMOOTH",
"307 330 OFFCURVE",
"314 319 OFFCURVE",
"325 226 CURVE",
"328 110 OFFCURVE",
"330 -55 OFFCURVE",
"332 -150 CURVE"
);
},
{
closed = 1;
nodes = (
"181 167 OFFCURVE",
"187 209 OFFCURVE",
"200 265 CURVE",
"165 271 LINE SMOOTH",
"128 277 OFFCURVE",
"126 316 OFFCURVE",
"126 331 CURVE SMOOTH",
"126 344 OFFCURVE",
"126 351 OFFCURVE",
"126 354 CURVE",
"69 373 LINE",
"55 330 OFFCURVE",
"30 223 OFFCURVE",
"30 197 CURVE SMOOTH",
"30 170 OFFCURVE",
"43 149 OFFCURVE",
"99 141 CURVE SMOOTH",
"168 131 LINE"
);
}
);
width = 469;
},
{
layerId = "A396904D-C838-4FF7-A96F-91F438939708";
paths = (
{
closed = 1;
nodes = (
"428 -150 LINE",
"434 -108 OFFCURVE",
"441 -56 OFFCURVE",
"444 1 CURVE",
"445 118 OFFCURVE",
"441 268 OFFCURVE",
"437 378 CURVE",
"431 456 OFFCURVE",
"386 491 OFFCURVE",
"265 500 CURVE SMOOTH",
"209 504 LINE SMOOTH",
"139 509 OFFCURVE",
"125 511 OFFCURVE",
"95 525 CURVE",
"68 525 LINE",
"58 497 OFFCURVE",
"40 413 OFFCURVE",
"39 369 CURVE",
"65 359 OFFCURVE",
"114 351 OFFCURVE",
"150 348 CURVE SMOOTH",
"230 342 LINE SMOOTH",
"321 335 OFFCURVE",
"323 335 OFFCURVE",
"328 259 CURVE SMOOTH",
"333 134 OFFCURVE",
"335 -2 OFFCURVE",
"337 -150 CURVE"
);
},
{
closed = 1;
nodes = (
"213 166 OFFCURVE",
"225 247 OFFCURVE",
"224 264 CURVE",
"181 271 LINE SMOOTH",
"162 274 OFFCURVE",
"155 276 OFFCURVE",
"155 293 CURVE SMOOTH",
"155 329 OFFCURVE",
"157 355 OFFCURVE",
"161 390 CURVE",
"91 407 LINE",
"77 361 OFFCURVE",
"50 261 OFFCURVE",
"50 210 CURVE SMOOTH",
"50 162 OFFCURVE",
"64 152 OFFCURVE",
"120 147 CURVE SMOOTH",
"203 139 LINE"
);
}
);
width = 490;
},
{
layerId = "5539344D-F27C-4FBD-A9E2-D2F022F19CCA";
paths = (
{
closed = 1;
nodes = (
"392 -150 LINE",
"398 -119 OFFCURVE",
"404 -85 OFFCURVE",
"406 -45 CURVE",
"409 48 OFFCURVE",
"413 158 OFFCURVE",
"411 351 CURVE",
"402 465 OFFCURVE",
"352 488 OFFCURVE",
"242 494 CURVE SMOOTH",
"186 497 LINE SMOOTH",
"117 501 OFFCURVE",
"114 503 OFFCURVE",
"81 519 CURVE",
"58 519 LINE",
"43 489 OFFCURVE",
"34 464 OFFCURVE",
"30 426 CURVE",
"67 409 OFFCURVE",
"98 405 OFFCURVE",
"175 401 CURVE SMOOTH",
"231 398 LINE SMOOTH",
"304 394 OFFCURVE",
"326 382 OFFCURVE",
"334 301 CURVE",
"339 82 OFFCURVE",
"339 2 OFFCURVE",
"341 -150 CURVE"
);
},
{
closed = 1;
nodes = (
"183 197 OFFCURVE",
"192 257 OFFCURVE",
"192 269 CURVE",
"154 277 LINE SMOOTH",
"121 284 OFFCURVE",
"117 289 OFFCURVE",
"118 311 CURVE SMOOTH",
"121 349 OFFCURVE",
"129 394 OFFCURVE",
"134 420 CURVE",
"79 425 LINE",
"62 358 OFFCURVE",
"47 281 OFFCURVE",
"47 251 CURVE SMOOTH",
"47 218 OFFCURVE",
"57 206 OFFCURVE",
"111 197 CURVE SMOOTH",
"175 186 LINE"
);
}
);
width = 493;
},
{
layerId = "798D7B20-9AF4-495F-9307-CAE61518AA1C";
paths = (
{
closed = 1;
nodes = (
"420 -150 LINE",
"420 -56 OFFCURVE",
"420 -5 OFFCURVE",
"420 55 CURVE SMOOTH",
"420 182 OFFCURVE",
"420 262 OFFCURVE",
"420 295 CURVE SMOOTH",
"420 417 OFFCURVE",
"392 477 OFFCURVE",
"239 477 CURVE SMOOTH",
"217 477 LINE SMOOTH",
"165 477 OFFCURVE",
"116 477 OFFCURVE",
"61 477 CURVE",
"43 477 LINE",
"43 455 OFFCURVE",
"43 432 OFFCURVE",
"43 407 CURVE",
"66 407 OFFCURVE",
"161 407 OFFCURVE",
"217 407 CURVE SMOOTH",
"239 407 LINE SMOOTH",
"330 407 OFFCURVE",
"344 382 OFFCURVE",
"344 295 CURVE SMOOTH",
"344 -32 OFFCURVE",
"344 194 OFFCURVE",
"344 -150 CURVE"
);
},
{
closed = 1;
nodes = (
"201 213 OFFCURVE",
"201 237 OFFCURVE",
"201 260 CURVE",
"160 260 LINE SMOOTH",
"124 260 OFFCURVE",
"119 266 OFFCURVE",
"119 297 CURVE SMOOTH",
"119 317 OFFCURVE",
"119 371 OFFCURVE",
"119 424 CURVE",
"43 424 LINE",
"43 386 OFFCURVE",
"42 316 OFFCURVE",
"42 287 CURVE SMOOTH",
"42 219 OFFCURVE",
"68 190 OFFCURVE",
"147 190 CURVE SMOOTH",
"201 190 LINE"
);
}
);
width = 480;
},
{
layerId = "C42C1682-C410-46D1-BF5A-F68DB0880154";
paths = (
{
closed = 1;
nodes = (
"377 -150 LINE",
"385 -101 OFFCURVE",
"393 -74 OFFCURVE",
"394 -3 CURVE SMOOTH",
"395 79 OFFCURVE",
"385 187 OFFCURVE",
"385 292 CURVE SMOOTH",
"385 474 OFFCURVE",
"367 486 OFFCURVE",
"226 486 CURVE SMOOTH",
"166 486 LINE SMOOTH",
"87 486 OFFCURVE",
"78 492 OFFCURVE",
"68 512 CURVE",
"46 512 LINE",
"35 489 OFFCURVE",
"30 459 OFFCURVE",
"30 435 CURVE SMOOTH",
"30 382 OFFCURVE",
"43 377 OFFCURVE",
"166 377 CURVE SMOOTH",
"226 377 LINE SMOOTH",
"324 377 OFFCURVE",
"340 359 OFFCURVE",
"341 276 CURVE SMOOTH",
"341 149 OFFCURVE",
"325 13 OFFCURVE",
"339 -150 CURVE"
);
},
{
closed = 1;
nodes = (
"189 198 OFFCURVE",
"190 249 OFFCURVE",
"188 275 CURVE",
"144 275 LINE SMOOTH",
"109 275 OFFCURVE",
"97 282 OFFCURVE",
"97 306 CURVE SMOOTH",
"97 329 OFFCURVE",
"107 369 OFFCURVE",
"134 418 CURVE",
"100 421 LINE",
"72 369 OFFCURVE",
"54 312 OFFCURVE",
"54 252 CURVE SMOOTH",
"54 206 OFFCURVE",
"68 177 OFFCURVE",
"138 177 CURVE SMOOTH",
"185 177 LINE"
);
}
);
width = 441;
},
{
layerId = "E84AB450-BED0-484C-851E-2EB7B7ED9E73";
paths = (
{
closed = 1;
nodes = (
"348 -150 LINE",
"364 -91 OFFCURVE",
"366 -40 OFFCURVE",
"366 3 CURVE SMOOTH",
"366 104 OFFCURVE",
"349 173 OFFCURVE",
"349 272 CURVE SMOOTH",
"349 467 OFFCURVE",
"345 486 OFFCURVE",
"212 486 CURVE SMOOTH",
"132 486 LINE SMOOTH",
"85 486 OFFCURVE",
"62 489 OFFCURVE",
"57 512 CURVE",
"26 512 LINE",
"15 478 OFFCURVE",
"14 437 OFFCURVE",
"14 396 CURVE SMOOTH",
"14 331 OFFCURVE",
"46 313 OFFCURVE",
"132 313 CURVE SMOOTH",
"212 313 LINE SMOOTH",
"304 313 OFFCURVE",
"299 307 OFFCURVE",
"299 249 CURVE SMOOTH",
"299 115 OFFCURVE",
"283 -19 OFFCURVE",
"294 -150 CURVE"
);
},
{
closed = 1;
nodes = (
"179 157 OFFCURVE",
"179 209 OFFCURVE",
"177 256 CURVE",
"113 256 LINE SMOOTH",
"88 256 OFFCURVE",
"77 261 OFFCURVE",
"77 277 CURVE SMOOTH",
"77 313 OFFCURVE",
"80 334 OFFCURVE",
"91 350 CURVE",
"57 353 LINE",
"36 327 OFFCURVE",
"25 264 OFFCURVE",
"25 206 CURVE SMOOTH",
"25 162 OFFCURVE",
"41 134 OFFCURVE",
"119 134 CURVE SMOOTH",
"175 134 LINE"
);
}
);
width = 406;
},
{
layerId = "FB8990CA-0F96-4B7B-86A4-9D429D534475";
paths = (
{
closed = 1;
nodes = (
"481 -150 LINE",
"481 -103 OFFCURVE",
"481 -63 OFFCURVE",
"481 -31 CURVE SMOOTH",
"481 136 OFFCURVE",
"481 108 OFFCURVE",
"481 279 CURVE SMOOTH",
"479 459 OFFCURVE",
"427 500 OFFCURVE",
"263 500 CURVE SMOOTH",
"153 500 LINE SMOOTH",
"119 500 OFFCURVE",
"85 500 OFFCURVE",
"51 500 CURVE",
"25 500 LINE",
"25 479 OFFCURVE",
"25 400 OFFCURVE",
"25 374 CURVE",
"49 374 OFFCURVE",
"72 374 OFFCURVE",
"96 374 CURVE",
"263 374 LINE SMOOTH",
"332 374 OFFCURVE",
"344 362 OFFCURVE",
"344 279 CURVE SMOOTH",
"344 -24 OFFCURVE",
"344 61 OFFCURVE",
"344 -150 CURVE"
);
},
{
closed = 1;
nodes = (
"238 191 OFFCURVE",
"238 260 OFFCURVE",
"238 276 CURVE",
"192 276 LINE SMOOTH",
"167 276 OFFCURVE",
"156 286 OFFCURVE",
"156 305 CURVE SMOOTH",
"156 320 OFFCURVE",
"156 373 OFFCURVE",
"156 392 CURVE",
"25 392 LINE",
"25 370 OFFCURVE",
"25 308 OFFCURVE",
"25 284 CURVE SMOOTH",
"25 193 OFFCURVE",
"53 162 OFFCURVE",
"160 162 CURVE SMOOTH",
"238 162 LINE"
);
}
);
width = 536;
}
);
rightMetricsKey = "het-hb";
unicode = 05E3;
},
{
color = 4;
glyphname = "pe-hb";
lastChange = "2019-06-11 07:29:36 +0000";
layers = (
{
associatedMasterId = "D0BE0C1E-19E7-43D2-9BC3-AB141F408D31";
layerId = "0D2F9F62-6D50-490D-B425-4005BBEB55D2";
name = Paths;
paths = (
{
closed = 0;
nodes = (
"137 0 LINE",
"519 0 LINE",
"520 286 LINE SMOOTH",
"520 419 OFFCURVE",
"496 474 OFFCURVE",
"388 486 CURVE SMOOTH",
"241 503 LINE SMOOTH",
"195 507 OFFCURVE",
"163 517 OFFCURVE",
"132 531 CURVE"
);
},
{
closed = 0;
nodes = (
"219 500 LINE",
"194 426 OFFCURVE",
"173 359 OFFCURVE",
"173 308 CURVE SMOOTH",
"173 260 OFFCURVE",
"190 238 OFFCURVE",
"249 229 CURVE",
"330 222 LINE"
);
}
);
width = 690;
},
{
background = {
paths = (
{
closed = 1;
nodes = (
"338 100 LINE",
"720 100 LINE",
"721 387 LINE SMOOTH",
"721 520 OFFCURVE",
"697 575 OFFCURVE",
"589 587 CURVE SMOOTH",
"442 604 LINE SMOOTH",
"396 608 OFFCURVE",
"364 618 OFFCURVE",
"333 632 CURVE",
"273 531 LINE",
"304 517 OFFCURVE",
"336 507 OFFCURVE",
"382 503 CURVE SMOOTH",
"529 486 LINE SMOOTH",
"637 474 OFFCURVE",
"661 419 OFFCURVE",
"661 286 CURVE SMOOTH",
"660 0 LINE",
"278 0 LINE"
);
}
);
};
layerId = "D0BE0C1E-19E7-43D2-9BC3-AB141F408D31";
paths = (
{
closed = 1;
nodes = (
"151 -1 OFFCURVE",
"277 -1 OFFCURVE",
"401 1 CURVE",
"413 31 OFFCURVE",
"422 62 OFFCURVE",
"429 103 CURVE",
"426 184 OFFCURVE",
"424 271 OFFCURVE",
"418 351 CURVE SMOOTH",
"409 465 OFFCURVE",
"361 487 OFFCURVE",
"251 494 CURVE SMOOTH",
"205 497 LINE SMOOTH",
"136 502 OFFCURVE",
"133 503 OFFCURVE",
"100 519 CURVE",
"77 519 LINE",
"63 490 OFFCURVE",
"55 459 OFFCURVE",
"51 423 CURVE",
"87 403 OFFCURVE",
"118 399 OFFCURVE",
"194 394 CURVE SMOOTH",
"240 391 LINE SMOOTH",
"326 385 OFFCURVE",
"348 382 OFFCURVE",
"356 301 CURVE SMOOTH",
"361 248 OFFCURVE",
"364 189 OFFCURVE",
"370 99 CURVE",
"268 99 OFFCURVE",
"166 99 OFFCURVE",
"64 99 CURVE",
"58 82 OFFCURVE",
"49 21 OFFCURVE",
"48 1 CURVE"
);
},
{
closed = 1;
nodes = (
"204 196 OFFCURVE",
"216 269 OFFCURVE",
"216 282 CURVE",
"159 295 LINE SMOOTH",
"131 301 OFFCURVE",
"126 309 OFFCURVE",
"128 331 CURVE SMOOTH",
"130 355 OFFCURVE",
"135 387 OFFCURVE",
"146 420 CURVE",
"102 425 LINE",
"83 358 OFFCURVE",
"67 300 OFFCURVE",
"67 260 CURVE SMOOTH",
"67 232 OFFCURVE",
"75 209 OFFCURVE",
"129 198 CURVE SMOOTH",
"196 184 LINE"
);
}
);
width = 511;
},
{
layerId = "AFDF4EF8-A213-4348-ACF7-371209F0497C";
paths = (
{
closed = 1;
nodes = (
"115 -3 OFFCURVE",
"272 -3 OFFCURVE",
"384 0 CURVE",
"400 54 OFFCURVE",
"413 111 OFFCURVE",
"417 177 CURVE",
"415 251 OFFCURVE",
"413 297 OFFCURVE",
"406 356 CURVE SMOOTH",
"394 464 OFFCURVE",
"343 489 OFFCURVE",
"242 500 CURVE SMOOTH",
"195 505 LINE SMOOTH",
"151 510 OFFCURVE",
"125 511 OFFCURVE",
"84 519 CURVE",
"59 519 LINE",
"46 481 OFFCURVE",
"33 411 OFFCURVE",
"31 363 CURVE",
"85 350 OFFCURVE",
"116 348 OFFCURVE",
"190 341 CURVE SMOOTH",
"234 337 LINE SMOOTH",
"310 330 OFFCURVE",
"317 319 OFFCURVE",
"328 226 CURVE SMOOTH",
"330 208 OFFCURVE",
"331 181 OFFCURVE",
"333 163 CURVE",
"216 163 OFFCURVE",
"124 163 OFFCURVE",
"55 163 CURVE",
"44 128 OFFCURVE",
"29 51 OFFCURVE",
"27 0 CURVE"
);
},
{
closed = 1;
nodes = (
"198 217 OFFCURVE",
"205 262 OFFCURVE",
"208 298 CURVE",
"162 306 LINE SMOOTH",
"135 311 OFFCURVE",
"129 316 OFFCURVE",
"129 331 CURVE SMOOTH",
"129 344 OFFCURVE",
"129 351 OFFCURVE",
"129 354 CURVE",
"72 373 LINE",
"58 330 OFFCURVE",
"47 276 OFFCURVE",
"47 250 CURVE SMOOTH",
"47 223 OFFCURVE",
"60 205 OFFCURVE",
"116 194 CURVE SMOOTH",
"185 181 LINE"
);
}
);
width = 478;
},
{
layerId = "A396904D-C838-4FF7-A96F-91F438939708";
paths = (
{
closed = 1;
nodes = (
"195 -2 OFFCURVE",
"311 -2 OFFCURVE",
"426 0 CURVE",
"439 45 OFFCURVE",
"455 118 OFFCURVE",
"458 161 CURVE",
"457 232 OFFCURVE",
"451 315 OFFCURVE",
"446 378 CURVE SMOOTH",
"440 456 OFFCURVE",
"395 491 OFFCURVE",
"274 500 CURVE SMOOTH",
"218 504 LINE SMOOTH",
"148 509 OFFCURVE",
"134 511 OFFCURVE",
"104 525 CURVE",
"77 525 LINE",
"67 497 OFFCURVE",
"49 413 OFFCURVE",
"48 369 CURVE",
"74 359 OFFCURVE",
"123 351 OFFCURVE",
"159 348 CURVE SMOOTH",
"239 342 LINE SMOOTH",
"330 335 OFFCURVE",
"332 335 OFFCURVE",
"337 259 CURVE SMOOTH",
"340 209 OFFCURVE",
"342 174 OFFCURVE",
"344 138 CURVE",
"219 138 OFFCURVE",
"160 138 OFFCURVE",
"74 138 CURVE",
"67 114 OFFCURVE",
"53 38 OFFCURVE",
"50 0 CURVE"
);
},
{
closed = 1;
nodes = (
"227 196 OFFCURVE",
"234 267 OFFCURVE",
"233 284 CURVE",
"190 291 LINE SMOOTH",
"171 294 OFFCURVE",
"164 296 OFFCURVE",
"164 313 CURVE SMOOTH",
"164 329 OFFCURVE",
"166 355 OFFCURVE",
"170 390 CURVE",
"100 407 LINE",
"86 361 OFFCURVE",
"64 281 OFFCURVE",
"64 240 CURVE SMOOTH",
"64 192 OFFCURVE",
"78 182 OFFCURVE",
"134 177 CURVE SMOOTH",
"217 169 LINE"
);
}
);
width = 504;
},
{
background = {
paths = (
{
closed = 1;
nodes = (
"523 90 LINE",
"905 90 LINE",
"906 377 LINE SMOOTH",
"906 510 OFFCURVE",
"882 565 OFFCURVE",
"774 577 CURVE SMOOTH",
"627 594 LINE SMOOTH",
"581 598 OFFCURVE",
"549 608 OFFCURVE",
"518 622 CURVE",
"443 531 LINE",
"474 517 OFFCURVE",
"506 507 OFFCURVE",
"552 503 CURVE SMOOTH",
"699 486 LINE SMOOTH",
"807 474 OFFCURVE",
"831 419 OFFCURVE",
"831 286 CURVE SMOOTH",
"830 0 LINE",
"448 0 LINE"
);
},
{
closed = 1;
nodes = (
"716 312 LINE",
"635 319 LINE",
"576 328 OFFCURVE",
"559 350 OFFCURVE",
"559 399 CURVE SMOOTH",
"559 450 OFFCURVE",
"580 517 OFFCURVE",
"605 591 CURVE",
"530 500 LINE",
"505 426 OFFCURVE",
"484 359 OFFCURVE",
"484 308 CURVE SMOOTH",
"484 260 OFFCURVE",
"501 238 OFFCURVE",
"560 229 CURVE",
"641 222 LINE"
);
}
);
};
layerId = "5539344D-F27C-4FBD-A9E2-D2F022F19CCA";
paths = (
{
closed = 1;
nodes = (
"156 -1 OFFCURVE",
"296 -1 OFFCURVE",
"420 1 CURVE",
"432 31 OFFCURVE",
"441 62 OFFCURVE",
"448 103 CURVE",
"447 184 OFFCURVE",
"445 271 OFFCURVE",
"439 351 CURVE SMOOTH",
"430 465 OFFCURVE",
"380 488 OFFCURVE",
"270 494 CURVE SMOOTH",
"214 497 LINE SMOOTH",
"145 501 OFFCURVE",
"142 503 OFFCURVE",
"109 519 CURVE",
"86 519 LINE",
"71 489 OFFCURVE",
"62 464 OFFCURVE",
"58 426 CURVE",
"95 409 OFFCURVE",
"126 405 OFFCURVE",
"203 401 CURVE SMOOTH",
"259 398 LINE SMOOTH",
"332 394 OFFCURVE",
"354 382 OFFCURVE",
"362 301 CURVE SMOOTH",
"367 249 OFFCURVE",
"370 178 OFFCURVE",
"376 89 CURVE",
"274 89 OFFCURVE",
"171 89 OFFCURVE",
"69 89 CURVE",
"63 73 OFFCURVE",
"54 21 OFFCURVE",
"53 1 CURVE"
);
},
{
closed = 1;
nodes = (
"211 207 OFFCURVE",
"220 267 OFFCURVE",
"220 279 CURVE",
"182 287 LINE SMOOTH",
"149 294 OFFCURVE",
"145 299 OFFCURVE",
"147 321 CURVE SMOOTH",
"149 349 OFFCURVE",
"157 394 OFFCURVE",
"162 420 CURVE",
"107 425 LINE",
"90 358 OFFCURVE",
"75 291 OFFCURVE",
"75 261 CURVE SMOOTH",
"75 228 OFFCURVE",
"85 216 OFFCURVE",
"139 207 CURVE SMOOTH",
"203 196 LINE"
);
}
);
width = 529;
},
{
layerId = "798D7B20-9AF4-495F-9307-CAE61518AA1C";
paths = (
{
closed = 1;
nodes = (
"189 0 OFFCURVE",
"309 0 OFFCURVE",
"442 0 CURVE",
"442 85 OFFCURVE",
"442 131 OFFCURVE",
"442 184 CURVE SMOOTH",
"442 235 OFFCURVE",
"442 257 OFFCURVE",
"442 295 CURVE SMOOTH",
"442 417 OFFCURVE",
"414 477 OFFCURVE",
"261 477 CURVE SMOOTH",
"239 477 LINE SMOOTH",
"187 477 OFFCURVE",
"138 477 OFFCURVE",
"83 477 CURVE",
"65 477 LINE",
"65 455 OFFCURVE",
"65 432 OFFCURVE",
"65 407 CURVE",
"88 407 OFFCURVE",
"183 407 OFFCURVE",
"239 407 CURVE SMOOTH",
"261 407 LINE SMOOTH",
"352 407 OFFCURVE",
"366 382 OFFCURVE",
"366 295 CURVE SMOOTH",
"366 98 OFFCURVE",
"366 231 OFFCURVE",
"366 70 CURVE",
"264 70 OFFCURVE",
"163 70 OFFCURVE",
"65 70 CURVE",
"65 47 OFFCURVE",
"65 23 OFFCURVE",
"65 0 CURVE"
);
},
{
closed = 1;
nodes = (
"223 223 OFFCURVE",
"223 247 OFFCURVE",
"223 270 CURVE",
"182 270 LINE SMOOTH",
"146 270 OFFCURVE",
"141 276 OFFCURVE",
"141 307 CURVE SMOOTH",
"141 327 OFFCURVE",
"141 371 OFFCURVE",
"141 424 CURVE",
"65 424 LINE",
"65 386 OFFCURVE",
"64 326 OFFCURVE",
"64 297 CURVE SMOOTH",
"64 229 OFFCURVE",
"90 200 OFFCURVE",
"169 200 CURVE SMOOTH",
"223 200 LINE"
);
}
);
width = 502;
},
{
layerId = "C42C1682-C410-46D1-BF5A-F68DB0880154";
paths = (
{
closed = 1;
nodes = (
"181 0 OFFCURVE",
"278 0 OFFCURVE",
"396 0 CURVE",
"406 39 OFFCURVE",
"411 88 OFFCURVE",
"411 114 CURVE SMOOTH",
"411 163 OFFCURVE",
"406 221 OFFCURVE",
"406 284 CURVE SMOOTH",
"406 476 OFFCURVE",
"388 486 OFFCURVE",
"247 486 CURVE SMOOTH",
"187 486 LINE SMOOTH",
"108 486 OFFCURVE",
"99 492 OFFCURVE",
"89 512 CURVE",
"67 512 LINE",
"56 489 OFFCURVE",
"51 459 OFFCURVE",
"51 435 CURVE SMOOTH",
"51 382 OFFCURVE",
"64 377 OFFCURVE",
"187 377 CURVE SMOOTH",
"247 377 LINE SMOOTH",
"345 377 OFFCURVE",
"361 359 OFFCURVE",
"362 276 CURVE SMOOTH",
"363 222 OFFCURVE",
"362 161 OFFCURVE",
"355 107 CURVE",
"257 107 OFFCURVE",
"171 107 OFFCURVE",
"67 107 CURVE",
"59 91 OFFCURVE",
"59 16 OFFCURVE",
"67 0 CURVE"
);
},
{
closed = 1;
nodes = (
"210 212 OFFCURVE",
"211 263 OFFCURVE",
"209 279 CURVE",
"165 279 LINE SMOOTH",
"130 279 OFFCURVE",
"118 286 OFFCURVE",
"118 310 CURVE SMOOTH",
"118 333 OFFCURVE",
"128 369 OFFCURVE",
"155 418 CURVE",
"121 421 LINE",
"93 369 OFFCURVE",
"75 316 OFFCURVE",
"75 266 CURVE SMOOTH",
"75 220 OFFCURVE",
"89 191 OFFCURVE",
"159 191 CURVE SMOOTH",
"206 191 LINE"
);
}
);
width = 458;
},
{
layerId = "E84AB450-BED0-484C-851E-2EB7B7ED9E73";
paths = (
{
closed = 1;
nodes = (
"140 0 OFFCURVE",
"231 0 OFFCURVE",
"374 0 CURVE",
"383 40 OFFCURVE",
"384 74 OFFCURVE",
"384 103 CURVE SMOOTH",
"384 170 OFFCURVE",
"370 206 OFFCURVE",
"370 272 CURVE SMOOTH",
"370 467 OFFCURVE",
"366 486 OFFCURVE",
"233 486 CURVE SMOOTH",
"153 486 LINE SMOOTH",
"106 486 OFFCURVE",
"83 489 OFFCURVE",
"78 512 CURVE",
"47 512 LINE",
"36 478 OFFCURVE",
"35 437 OFFCURVE",
"35 396 CURVE SMOOTH",
"35 331 OFFCURVE",
"67 313 OFFCURVE",
"153 313 CURVE SMOOTH",
"233 313 LINE SMOOTH",
"325 313 OFFCURVE",
"320 306 OFFCURVE",
"320 248 CURVE SMOOTH",
"320 223 OFFCURVE",
"320 199 OFFCURVE",
"315 174 CURVE",
"228 174 OFFCURVE",
"140 174 OFFCURVE",
"53 174 CURVE",
"44 152 OFFCURVE",
"43 26 OFFCURVE",
"52 0 CURVE"
);
},
{
closed = 1;
nodes = (
"200 217 OFFCURVE",
"200 269 OFFCURVE",
"198 286 CURVE",
"134 286 LINE SMOOTH",
"109 286 OFFCURVE",
"98 293 OFFCURVE",
"98 307 CURVE SMOOTH",
"98 321 OFFCURVE",
"101 334 OFFCURVE",
"112 350 CURVE",
"78 353 LINE",
"57 327 OFFCURVE",
"46 294 OFFCURVE",
"46 266 CURVE SMOOTH",
"46 222 OFFCURVE",
"62 194 OFFCURVE",
"140 194 CURVE SMOOTH",
"196 194 LINE"
);
}
);
width = 424;
},
{
layerId = "FB8990CA-0F96-4B7B-86A4-9D429D534475";
paths = (
{
closed = 1;
nodes = (
"178 -1 OFFCURVE",
"274 0 OFFCURVE",
"507 0 CURVE",
"507 54 OFFCURVE",
"507 100 OFFCURVE",
"507 137 CURVE",
"507 184 OFFCURVE",
"507 232 OFFCURVE",
"507 279 CURVE",
"507 459 OFFCURVE",
"454 500 OFFCURVE",
"290 500 CURVE SMOOTH",
"180 500 LINE SMOOTH",
"146 500 OFFCURVE",
"112 500 OFFCURVE",
"78 500 CURVE",
"52 500 LINE",
"52 479 OFFCURVE",
"52 400 OFFCURVE",
"52 374 CURVE",
"76 374 OFFCURVE",
"99 374 OFFCURVE",
"123 374 CURVE",
"290 374 LINE SMOOTH",
"359 374 OFFCURVE",
"371 362 OFFCURVE",
"371 279 CURVE SMOOTH",
"371 232 OFFCURVE",
"371 185 OFFCURVE",
"371 138 CURVE",
"264 138 OFFCURVE",
"181 138 OFFCURVE",
"61 138 CURVE",
"61 92 OFFCURVE",
"61 46 OFFCURVE",
"61 0 CURVE"
);
},
{
closed = 1;
nodes = (
"265 221 OFFCURVE",
"265 290 OFFCURVE",
"265 306 CURVE",
"219 306 LINE SMOOTH",
"194 306 OFFCURVE",
"183 316 OFFCURVE",
"183 335 CURVE SMOOTH",
"183 350 OFFCURVE",
"183 373 OFFCURVE",
"183 392 CURVE",
"52 392 LINE",
"52 370 OFFCURVE",
"52 338 OFFCURVE",
"52 314 CURVE SMOOTH",
"52 223 OFFCURVE",
"80 192 OFFCURVE",
"187 192 CURVE SMOOTH",
"265 192 LINE"
);
}
);
width = 562;
}
);
leftMetricsKey = "he-hb";
rightMetricsKey = "het-hb";
unicode = 05E4;
},
